<?xml version="1.0" encoding="UTF-8" standalone="no"?>
<svg class='icon'>
  <path
     style="fill:#9762cc"
     d="M 11.019531 2.0039062 C 9.9259185 2.0037631 9.0392435 2.897433 9.0390625 4 C 9.0392435 5.102567 9.9259185 5.9962371 11.019531 5.9960938 C 11.887476 5.9967429 12.654682 5.427474 12.912109 4.5917969 C 13.631448 4.5304629 14.471081 4.600827 15.126953 5.0976562 C 15.607069 5.4613397 15.864609 5.8060082 16.023438 6.1191406 C 10.911094 6.8633525 7 11.391503 7 16.849609 L 7 18 L 5.828125 18 C 4.124905 18 2.7427919 19.366989 2.3886719 21.099609 L 1.9375 23.228516 C 1.2733258 23.517637 0.78915504 24.033822 0.51953125 24.492188 C 0.12201125 25.167966 0.015625 25.826172 0.015625 25.826172 C -0.26617139 27.173093 1.7878153 27.535801 1.984375 26.173828 C 1.984375 26.173828 2.053481 25.832033 2.2441406 25.507812 C 2.4348606 25.183604 2.58123 25 3 25 C 3.41877 25 3.5651394 25.183604 3.7558594 25.507812 C 3.9465694 25.832034 4.015625 26.173828 4.015625 26.173828 C 4.2121847 27.535801 6.2661714 27.173093 5.984375 25.826172 C 5.984375 25.826172 5.8779888 25.167967 5.4804688 24.492188 C 5.200907 24.016928 4.6909822 23.478742 3.9882812 23.197266 L 4.3476562 21.503906 L 4.3476562 21.5 C 4.5249264 20.632614 5.344055 20 5.828125 20 L 7 20 L 7 28.101562 C 4.7229717 28.567166 3 30.589402 3 33 C 3 35.7527 5.2473 38 8 38 L 9.3574219 38 C 11.27936 40.43807 14.206838 42 17.5 42 C 20.793162 42 23.72064 40.43807 25.642578 38 L 27 38 C 29.7527 38 32 35.7527 32 33 C 32 30.589402 30.277028 28.567166 28 28.101562 L 28 23 L 29.978516 23 C 31.681746 23 33.063849 21.633011 33.417969 19.900391 L 33.869141 17.771484 C 34.533315 17.482363 35.017486 16.966178 35.287109 16.507812 C 35.684629 15.832033 35.791016 15.173828 35.791016 15.173828 C 36.072812 13.826907 34.018826 13.464199 33.822266 14.826172 C 33.822266 14.826172 33.753166 15.167966 33.5625 15.492188 C 33.37179 15.816394 33.225411 16 32.806641 16 C 32.387871 16 32.241501 15.816397 32.050781 15.492188 C 31.860071 15.167967 31.791016 14.826172 31.791016 14.826172 C 31.713086 14.345966 31.300914 13.991495 30.814453 13.986328 C 30.182983 13.980128 29.703904 14.553519 29.822266 15.173828 C 29.822266 15.173828 29.928652 15.832032 30.326172 16.507812 C 30.605734 16.983072 31.115658 17.521258 31.818359 17.802734 L 31.458984 19.496094 L 31.458984 19.5 C 31.281714 20.367386 30.462586 21 29.978516 21 L 28 21 L 28 16.849609 C 28 11.087843 23.64289 6.3635088 18.113281 6.0332031 C 17.894674 5.2367866 17.3831 4.2966499 16.333984 3.5019531 C 15.063984 2.5399331 13.629622 2.4366056 12.513672 2.5722656 C 12.478942 2.5764856 12.452069 2.5851748 12.417969 2.5898438 C 12.047239 2.2154421 11.544268 2.0047004 11.019531 2.0039062 z M 17.5 8 C 22.20652 8 26 11.910279 26 16.849609 L 26 28 L 9 28 L 9 16.849609 C 9 11.910279 12.79348 8 17.5 8 z M 17.503906 11.945312 C 17.175453 11.944427 16.869505 12.127257 16.693359 12.429688 L 13.191406 18.429688 C 12.785466 19.125421 13.244006 20.035865 14 20.035156 L 21 20.035156 C 21.755989 20.035865 22.214534 19.125419 21.808594 18.429688 L 18.306641 12.429688 C 18.131986 12.129808 17.829583 11.947337 17.503906 11.945312 z M 17.5 14.9375 L 19.255859 17.947266 L 15.744141 17.947266 L 17.5 14.9375 z M 21.455078 21.958984 C 20.995779 21.984234 20.612936 22.319525 20.527344 22.771484 C 20.527344 22.771484 20.397599 23.311125 19.949219 23.882812 C 19.500839 24.454503 18.8435 25 17.5 25 C 16.15651 25 15.499171 24.454503 15.050781 23.882812 C 14.602401 23.311124 14.472656 22.771484 14.472656 22.771484 C 14.368545 22.296093 13.937347 21.964656 13.451172 21.986328 C 12.819953 22.015558 12.373708 22.615582 12.527344 23.228516 C 12.527344 23.228516 12.750426 24.188875 13.478516 25.117188 C 14.206596 26.045497 15.54937 27 17.5 27 C 19.45064 27 20.793404 26.045497 21.521484 25.117188 C 22.249574 24.188876 22.472656 23.228516 22.472656 23.228516 C 22.658442 22.568381 22.139825 21.921354 21.455078 21.958984 z M 8 30 L 27 30 C 28.6793 30 30 31.3207 30 33 C 30 34.6793 28.6793 36 27 36 L 8 36 C 6.3207 36 5 34.6793 5 33 C 5 31.3207 6.3207 30 8 30 z M 9.984375 30.986328 A 1.0000999 1.0000999 0 0 0 9 32 L 9 34 A 1.0000999 1.0000999 0 1 0 11 34 L 11 32 A 1.0000999 1.0000999 0 0 0 9.984375 30.986328 z M 14.984375 30.986328 A 1.0000999 1.0000999 0 0 0 14 32 L 14 34 A 1.0000999 1.0000999 0 1 0 16 34 L 16 32 A 1.0000999 1.0000999 0 0 0 14.984375 30.986328 z M 19.984375 30.986328 A 1.0000999 1.0000999 0 0 0 19 32 L 19 34 A 1.0000999 1.0000999 0 1 0 21 34 L 21 32 A 1.0000999 1.0000999 0 0 0 19.984375 30.986328 z M 24.984375 30.986328 A 1.0000999 1.0000999 0 0 0 24 32 L 24 34 A 1.0000999 1.0000999 0 1 0 26 34 L 26 32 A 1.0000999 1.0000999 0 0 0 24.984375 30.986328 z M 12.09375 38 L 22.90625 38 C 21.438653 39.252876 19.556604 40 17.5 40 C 15.443396 40 13.561347 39.252876 12.09375 38 z "/>
</svg>