<?xml version="1.0" encoding="UTF-8" standalone="no"?>
<!-- Created with Inkscape (http://www.inkscape.org/) -->

<svg
   xmlns:dc="http://purl.org/dc/elements/1.1/"
   xmlns:cc="http://creativecommons.org/ns#"
   xmlns:rdf="http://www.w3.org/1999/02/22-rdf-syntax-ns#"
   xmlns:svg="http://www.w3.org/2000/svg"
   xmlns="http://www.w3.org/2000/svg"
   xmlns:sodipodi="http://sodipodi.sourceforge.net/DTD/sodipodi-0.dtd"
   xmlns:inkscape="http://www.inkscape.org/namespaces/inkscape"
   width="72"
   height="72"
   viewBox="0 0 72 72"
   id="svg2"
   version="1.1"
   inkscape:version="0.91 r13725"
   sodipodi:docname="custom-icons.svg">
  <defs
     id="defs4" />
  <sodipodi:namedview
     id="base"
     pagecolor="#ffffff"
     bordercolor="#666666"
     borderopacity="1.0"
     inkscape:pageopacity="0.0"
     inkscape:pageshadow="2"
     inkscape:zoom="2.8284271"
     inkscape:cx="-110.61255"
     inkscape:cy="-9.7770845"
     inkscape:document-units="px"
     inkscape:current-layer="layer1"
     showgrid="false"
     units="px"
     inkscape:window-width="2560"
     inkscape:window-height="1391"
     inkscape:window-x="73"
     inkscape:window-y="0"
     inkscape:window-maximized="0"
     inkscape:snap-bbox="true"
     inkscape:bbox-paths="true"
     inkscape:bbox-nodes="true"
     showguides="false"
     inkscape:guide-bbox="true"
     inkscape:object-paths="true"
     inkscape:object-nodes="true">
    <inkscape:grid
       type="xygrid"
       id="grid4152" />
    <sodipodi:guide
       position="36,71"
       orientation="1,0"
       id="guide4220" />
    <sodipodi:guide
       position="70,36"
       orientation="0,1"
       id="guide4222" />
  </sodipodi:namedview>
  <metadata
     id="metadata7">
    <rdf:RDF>
      <cc:Work
         rdf:about="">
        <dc:format>image/svg+xml</dc:format>
        <dc:type
           rdf:resource="http://purl.org/dc/dcmitype/StillImage" />
        <dc:title />
      </cc:Work>
    </rdf:RDF>
  </metadata>
  <g
     inkscape:label="Layer 1"
     inkscape:groupmode="layer"
     id="layer1"
     transform="translate(0,-980.36216)">
    <g
       transform="matrix(2,0,0,2,18,998.16216)"
       id="g5984"
       style="fill:#ffffff;fill-opacity:1;opacity:0.5">
      <g
         id="g5986"
         style="fill:#ffffff;fill-opacity:1">
        <path
           inkscape:connector-curvature="0"
           d="M 6.8,2.7 C 6.5,2.7 6.2,2.8 6,3.1 5.5,3.6 5.5,4.1 6,4.6 L 6.5,5.1 5,6.6 3,8.6 c 0,0 -1,1 0,2 l 4,4 c 0,0 1,1 2,0 l 5,-5 0,2 c 0,2 2,2 2,2 l 0,-4 c 0,0 0,-2 -2,-2 -0.7,0 -1.1,0.2 -1.4,0.6 L 12,7.6 9,4.6 8,3.6 7.5,3.1 C 7.2,2.8 7,2.7 6.8,2.7 Z M 8,6.6 10.5,9.1 5.5,9.1 8,6.6 Z"
           id="path5988"
           style="fill:#ffffff;fill-opacity:1" />
      </g>
    </g>
  </g>
</svg>
