<?xml version="1.0" encoding="UTF-8" standalone="no"?>
<!-- Created with Inkscape (http://www.inkscape.org/) -->

<svg
   xmlns:dc="http://purl.org/dc/elements/1.1/"
   xmlns:cc="http://creativecommons.org/ns#"
   xmlns:rdf="http://www.w3.org/1999/02/22-rdf-syntax-ns#"
   xmlns:svg="http://www.w3.org/2000/svg"
   xmlns="http://www.w3.org/2000/svg"
   xmlns:sodipodi="http://sodipodi.sourceforge.net/DTD/sodipodi-0.dtd"
   xmlns:inkscape="http://www.inkscape.org/namespaces/inkscape"
   width="48"
   height="48"
   viewBox="0 0 48 48"
   id="svg2"
   version="1.1"
   inkscape:version="0.91 r13725"
   sodipodi:docname="custom-icons.svg">
  <defs
     id="defs4" />
  <sodipodi:namedview
     id="base"
     pagecolor="#ffffff"
     bordercolor="#666666"
     borderopacity="1.0"
     inkscape:pageopacity="0.0"
     inkscape:pageshadow="2"
     inkscape:zoom="32"
     inkscape:cx="28.213082"
     inkscape:cy="15.810361"
     inkscape:document-units="px"
     inkscape:current-layer="layer1"
     showgrid="true"
     units="px"
     inkscape:window-width="2560"
     inkscape:window-height="1391"
     inkscape:window-x="-227"
     inkscape:window-y="120"
     inkscape:window-maximized="0"
     inkscape:snap-bbox="true"
     inkscape:bbox-paths="true"
     inkscape:bbox-nodes="true"
     showguides="false"
     inkscape:guide-bbox="true"
     inkscape:object-paths="true"
     inkscape:object-nodes="true">
    <inkscape:grid
       type="xygrid"
       id="grid4152" />
    <sodipodi:guide
       position="36,71"
       orientation="1,0"
       id="guide4220" />
    <sodipodi:guide
       position="70,36"
       orientation="0,1"
       id="guide4222" />
  </sodipodi:namedview>
  <metadata
     id="metadata7">
    <rdf:RDF>
      <cc:Work
         rdf:about="">
        <dc:format>image/svg+xml</dc:format>
        <dc:type
           rdf:resource="http://purl.org/dc/dcmitype/StillImage" />
        <dc:title></dc:title>
      </cc:Work>
    </rdf:RDF>
  </metadata>
  <g
     inkscape:label="Layer 1"
     inkscape:groupmode="layer"
     id="layer1"
     transform="translate(0,-1004.3622)">
    <g
       id="g9582"
       transform="translate(-1,-1)">
      <path
         sodipodi:nodetypes="scscccscscsccsccccss"
         inkscape:connector-curvature="0"
         d="m 20.6,1016.5622 c -0.6,0 -1.2,0.2 -1.6,0.8 -1,1 -1,2 0,3 l 1,1 -3,3 -4,4 c 0,0 -2,2 0,4 l 8,8 c 0,0 2,2 4,0 l 10,-10 0,4 c 0,4 4,4 4,4 l 0,-8 c 0,0 0,-4 -4,-4 -1.4,0 -2.2,0.4 -2.8,1.2 l -1.2,-1.2 -6,-6 -2,-2 -1,-1 c -0.6,-0.6 -1,-0.8 -1.4,-0.8 z"
         id="path8937"
         style="fill:#448ee4;fill-opacity:1;stroke:#448ee4;stroke-width:4;stroke-miterlimit:4;stroke-dasharray:none;stroke-opacity:1" />
      <path
         style="fill:#ffffff;fill-opacity:1"
         id="path5988"
         d="m 20.6,1016.5622 c -0.6,0 -1.2,0.2 -1.6,0.8 -1,1 -1,2 0,3 l 1,1 -3,3 -4,4 c 0,0 -2,2 0,4 l 8,8 c 0,0 2,2 4,0 l 10,-10 0,4 c 0,4 4,4 4,4 l 0,-8 c 0,0 0,-4 -4,-4 -1.4,0 -2.2,0.4 -2.8,1.2 l -1.2,-1.2 -6,-6 -2,-2 -1,-1 c -0.6,-0.6 -1,-0.8 -1.4,-0.8 z m 2.4,7.8 5,5 -10,0 5,-5 z"
         inkscape:connector-curvature="0" />
    </g>
  </g>
</svg>
