<?xml version="1.0" encoding="UTF-8" standalone="no"?>
<!-- Generator: Adobe Illustrator 20.1.0, SVG Export Plug-In . SVG Version: 6.00 Build 0)  -->

<svg
   xmlns:dc="http://purl.org/dc/elements/1.1/"
   xmlns:cc="http://creativecommons.org/ns#"
   xmlns:rdf="http://www.w3.org/1999/02/22-rdf-syntax-ns#"
   xmlns:svg="http://www.w3.org/2000/svg"
   xmlns="http://www.w3.org/2000/svg"
   xmlns:sodipodi="http://sodipodi.sourceforge.net/DTD/sodipodi-0.dtd"
   xmlns:inkscape="http://www.inkscape.org/namespaces/inkscape"
   version="1.1"
   id="svg2"
   inkscape:version="0.91 r13725"
   sodipodi:docname="is-active.svg"
   x="0px"
   y="0px"
   viewBox="0 0 48 48"
   xml:space="preserve"
   width="48"
   height="48"><metadata
     id="metadata6393"><rdf:RDF><cc:Work
         rdf:about=""><dc:format>image/svg+xml</dc:format><dc:type
           rdf:resource="http://purl.org/dc/dcmitype/StillImage" /><dc:title></dc:title></cc:Work></rdf:RDF></metadata><defs
     id="defs6391" /><style
     type="text/css"
     id="style6380">
	.st0{opacity:0.5;fill:none;stroke:#FFFFFF;stroke-width:2;stroke-linecap:round;stroke-linejoin:round;enable-background:new    ;}
	.st1{opacity:0.5;fill:#FFFFFF;enable-background:new    ;}
	.st2{fill:none;stroke:#FFFFFF;stroke-width:2;stroke-linecap:round;stroke-linejoin:round;}
	.st3{fill:#FFFFFF;}
</style><sodipodi:namedview
     bordercolor="#666666"
     borderopacity="1.0"
     id="base"
     inkscape:bbox-nodes="true"
     inkscape:bbox-paths="true"
     inkscape:current-layer="layer1"
     inkscape:cx="38.396363"
     inkscape:cy="29.980003"
     inkscape:document-units="px"
     inkscape:guide-bbox="true"
     inkscape:object-nodes="true"
     inkscape:object-paths="true"
     inkscape:pageopacity="0.0"
     inkscape:pageshadow="2"
     inkscape:snap-bbox="true"
     inkscape:snap-nodes="true"
     inkscape:window-height="1281"
     inkscape:window-maximized="0"
     inkscape:window-width="2383"
     inkscape:window-x="123"
     inkscape:window-y="152"
     inkscape:zoom="11.313708"
     pagecolor="#ffffff"
     showgrid="true"
     showguides="true"
     units="px"><inkscape:grid
       id="grid4152"
       type="xygrid" /><sodipodi:guide
       id="guide4220"
       orientation="1,0"
       position="36,71" /><sodipodi:guide
       id="guide4222"
       orientation="0,1"
       position="70,36" /></sodipodi:namedview><g
     id="layer1"
     transform="translate(0,-1004.3622)"
     inkscape:groupmode="layer"
     inkscape:label="Layer 1"><g
       id="g10910"
       transform="translate(7.9999985,1.9622)"><path
         inkscape:connector-curvature="0"
         style="opacity:0.5;fill:none;stroke:#448ee4;stroke-width:2;stroke-linecap:round;stroke-linejoin:round;stroke-opacity:1;enable-background:new"
         d="m -0.764705,1011.4 33.529413,0 c 1.229412,0 2.235294,0.9 2.235294,2 l 0,7 c 0,1.1 -1.005882,2 -2.235294,2 l -33.529413,0 c -1.229412,0 -2.235294,-0.9 -2.235294,-2 l 0,-7 c 0,-1.1 1.005882,-2 2.235294,-2 z"
         class="st0"
         id="rect6649" /><path
         sodipodi:nodetypes="ssccssccs"
         inkscape:connector-curvature="0"
         style="opacity:0.5;fill:#448ee4;fill-opacity:1;enable-background:new"
         d="m 4.5,1015.4 24,0 c 0.8,0 1.5,0.7 1.5,1.5 l 0,0 c 0,0.8 -0.7,1.5 -1.5,1.5 l -24,0 c -0.8,0 -1.5,-0.7 -1.5,-1.5 l 0,0 c 0,-0.9 0.7,-1.5 1.5,-1.5 z"
         class="st1"
         id="rect6665" /><path
         inkscape:connector-curvature="0"
         style="fill:none;stroke:#448ee4;stroke-width:2;stroke-linecap:round;stroke-linejoin:round;stroke-opacity:1"
         d="m -0.764705,1030.4 33.529413,0 c 1.229412,0 2.235294,0.9 2.235294,2 l 0,7 c 0,1.1 -1.005882,2 -2.235294,2 l -33.529413,0 c -1.229412,0 -2.235294,-0.9 -2.235294,-2 l 0,-7 c 0,-1.1 1.005882,-2 2.235294,-2 z"
         class="st2"
         id="rect7393" /><path
         sodipodi:nodetypes="ssccssccs"
         inkscape:connector-curvature="0"
         style="fill:#448ee4;fill-opacity:1"
         d="m 4.5,1034.4 24,0 c 0.8,0 1.5,0.7 1.5,1.5 l 0,0 c 0,0.8 -0.7,1.5 -1.5,1.5 l -24,0 c -0.8,0 -1.5,-0.7 -1.5,-1.5 l 0,0 c 0,-0.9 0.7,-1.5 1.5,-1.5 z"
         class="st3"
         id="rect7395" /></g></g></svg>