<?xml version="1.0" encoding="utf-8"?>
<!-- Generator: Adobe Illustrator 20.1.0, SVG Export Plug-In . SVG Version: 6.00 Build 0)  -->
<!DOCTYPE svg PUBLIC "-//W3C//DTD SVG 1.1//EN" "http://www.w3.org/Graphics/SVG/1.1/DTD/svg11.dtd">
<svg version="1.1"
	 id="svg2" inkscape:version="0.91 r13725" sodipodi:docname="is-active.svg" xmlns:cc="http://creativecommons.org/ns#" xmlns:dc="http://purl.org/dc/elements/1.1/" xmlns:inkscape="http://www.inkscape.org/namespaces/inkscape" xmlns:rdf="http://www.w3.org/1999/02/22-rdf-syntax-ns#" xmlns:sodipodi="http://sodipodi.sourceforge.net/DTD/sodipodi-0.dtd" xmlns:svg="http://www.w3.org/2000/svg"
	 xmlns="http://www.w3.org/2000/svg" xmlns:xlink="http://www.w3.org/1999/xlink" x="0px" y="0px" viewBox="0 0 72 72"
	 style="enable-background:new 0 0 72 72;" xml:space="preserve">
<style type="text/css">
	.st0{opacity:0.5;fill:none;stroke:#FFFFFF;stroke-width:2;stroke-linecap:round;stroke-linejoin:round;enable-background:new    ;}
	.st1{opacity:0.5;fill:#FFFFFF;enable-background:new    ;}
	.st2{fill:none;stroke:#FFFFFF;stroke-width:2;stroke-linecap:round;stroke-linejoin:round;}
	.st3{fill:#FFFFFF;}
</style>
<sodipodi:namedview  bordercolor="#666666" borderopacity="1.0" id="base" inkscape:bbox-nodes="true" inkscape:bbox-paths="true" inkscape:current-layer="layer1" inkscape:cx="52.980441" inkscape:cy="30.863887" inkscape:document-units="px" inkscape:guide-bbox="true" inkscape:object-nodes="true" inkscape:object-paths="true" inkscape:pageopacity="0.0" inkscape:pageshadow="2" inkscape:snap-bbox="true" inkscape:snap-nodes="true" inkscape:window-height="1281" inkscape:window-maximized="0" inkscape:window-width="2383" inkscape:window-x="134" inkscape:window-y="0" inkscape:zoom="11.313708" pagecolor="#ffffff" showgrid="true" showguides="true" units="px">
	<inkscape:grid  id="grid4152" type="xygrid"></inkscape:grid>
	<sodipodi:guide  id="guide4220" orientation="1,0" position="36,71"></sodipodi:guide>
	<sodipodi:guide  id="guide4222" orientation="0,1" position="70,36"></sodipodi:guide>
</sodipodi:namedview>
<g id="layer1" transform="translate(0,-980.36216)" inkscape:groupmode="layer" inkscape:label="Layer 1">
	<path id="rect6649" class="st0" d="M21,1001.4h30c1.1,0,2,0.9,2,2v7c0,1.1-0.9,2-2,2H21c-1.1,0-2-0.9-2-2v-7
		C19,1002.3,19.9,1001.4,21,1001.4z"/>
	<path id="rect6665" class="st1" d="M26.5,1005.4h20c0.8,0,1.5,0.7,1.5,1.5l0,0c0,0.8-0.7,1.5-1.5,1.5h-20c-0.8,0-1.5-0.7-1.5-1.5
		l0,0C25,1006,25.7,1005.4,26.5,1005.4z"/>
	<path id="rect7393" class="st2" d="M21,1020.4h30c1.1,0,2,0.9,2,2v7c0,1.1-0.9,2-2,2H21c-1.1,0-2-0.9-2-2v-7
		C19,1021.3,19.9,1020.4,21,1020.4z"/>
	<path id="rect7395" class="st3" d="M26.5,1024.4h20c0.8,0,1.5,0.7,1.5,1.5l0,0c0,0.8-0.7,1.5-1.5,1.5h-20c-0.8,0-1.5-0.7-1.5-1.5
		l0,0C25,1025,25.7,1024.4,26.5,1024.4z"/>
</g>
</svg>
