<?xml version="1.0" encoding="UTF-8" standalone="yes"?>
<svg viewBox="0 0 18 18" xmlns="http://www.w3.org/2000/svg">
  <path fill-rule="evenodd" clip-rule="evenodd" d="M9.85166 2.38398L16.0621 12.4759C16.4721 13.1422 15.9928 14 15.2104 14H2.78956C2.00724 14 1.52789 13.1422 1.93791 12.4759L8.14834 2.38398C8.53883 1.74945 9.46117 1.74945 9.85166 2.38398ZM9 10C9.55228 10 10 10.4478 10 11C10 11.5523 9.55228 12 9 12C8.44772 12 8 11.5523 8 11C8 10.4478 8.44772 10 9 10ZM9 9.00004C8.44772 9.00004 8 8.55232 8 8.00004V6.00004C8 5.44775 8.44772 5.00004 9 5.00004C9.55228 5.00004 10 5.44775 10 6.00004V8.00004C10 8.55232 9.55228 9.00004 9 9.00004Z"/>
</svg>