<?xml version="1.0" encoding="UTF-8" standalone="no"?>
<!-- Created with Inkscape (http://www.inkscape.org/) -->

<svg
   xmlns:dc="http://purl.org/dc/elements/1.1/"
   xmlns:cc="http://creativecommons.org/ns#"
   xmlns:rdf="http://www.w3.org/1999/02/22-rdf-syntax-ns#"
   xmlns:svg="http://www.w3.org/2000/svg"
   xmlns="http://www.w3.org/2000/svg"
   xmlns:sodipodi="http://sodipodi.sourceforge.net/DTD/sodipodi-0.dtd"
   xmlns:inkscape="http://www.inkscape.org/namespaces/inkscape"
   width="20"
   height="20"
   viewBox="0 0 20 20"
   id="svg4136"
   version="1.1"
   inkscape:version="0.91 r13725"
   sodipodi:docname="analytics.svg">
  <defs
     id="defs4138" />
  <sodipodi:namedview
     id="base"
     pagecolor="#ffffff"
     bordercolor="#666666"
     borderopacity="1.0"
     inkscape:pageopacity="0.0"
     inkscape:pageshadow="2"
     inkscape:zoom="1"
     inkscape:cx="9.999622"
     inkscape:cy="9.9999976"
     inkscape:document-units="px"
     inkscape:current-layer="layer1"
     showgrid="true"
     units="px"
     showborder="true"
     inkscape:window-width="1448"
     inkscape:window-height="960"
     inkscape:window-x="1740"
     inkscape:window-y="135"
     inkscape:window-maximized="0"
     inkscape:snap-bbox="true"
     inkscape:bbox-paths="true"
     inkscape:bbox-nodes="true"
     inkscape:snap-bbox-edge-midpoints="true">
    <inkscape:grid
       type="xygrid"
       id="grid4684"
       color="#ee3f00"
       opacity="0.1254902"
       empspacing="2"
       spacingx="0.5"
       spacingy="0.5"
       dotted="false" />
  </sodipodi:namedview>
  <metadata
     id="metadata4141">
    <rdf:RDF>
      <cc:Work
         rdf:about="">
        <dc:format>image/svg+xml</dc:format>
        <dc:type
           rdf:resource="http://purl.org/dc/dcmitype/StillImage" />
        <dc:title />
      </cc:Work>
    </rdf:RDF>
  </metadata>
  <g
     inkscape:label="Layer 1"
     inkscape:groupmode="layer"
     id="layer1"
     transform="translate(0,-1032.3622)">
    <path
       style="fill:#000000;fill-opacity:1;stroke:none;stroke-width:2;stroke-linecap:round;stroke-linejoin:round;stroke-miterlimit:4;stroke-dasharray:none;stroke-opacity:1"
       d="M 3.4921875,4 C 3.2160425,4.0043087 2.9956791,4.2316677 3,4.5078125 L 3,16 16.492188,16 c 0.676158,0.0096 0.676158,-1.00956 0,-1 L 16,15 16,9.46875 C 16,9.2090531 15.790947,9 15.53125,9 l -1.0625,0 C 14.209053,9 14,9.2090531 14,9.46875 L 14,15 13,15 13,11.75 C 13,11.611497 12.888503,11.5 12.75,11.5 l -1.5,0 C 11.111497,11.5 11,11.611497 11,11.75 l 0,3.25 -1,0 0,-4.5 C 10,10.222994 9.7770064,10 9.5,10 l -1,0 C 8.2229936,10 8,10.222994 8,10.5 L 8,15 7,15 7,12.845703 C 7,12.654569 6.845431,12.5 6.6542969,12.5 l -1.3085938,0 C 5.154569,12.5 5,12.654569 5,12.845703 L 5,15 4,15 4,4.5078125 C 4.0044169,4.2255461 3.7744539,3.9955831 3.4921875,4 Z M 15.402344,4.03125 C 15.203912,4.02955 15.017471,4.12606 14.904297,4.2890625 L 11.867188,8.515625 9.3789062,6.1738281 C 9.1317698,5.9417054 8.7415393,5.9602878 8.5175781,6.2148438 l -3.34375,3.8085942 c -0.5883228,0.603399 0.3777891,1.452151 0.9003907,0.791015 L 9.0097656,7.4746094 11.544922,9.8574219 c 0.263917,0.2487331 0.686458,0.2083161 0.898437,-0.085937 L 15.878906,4.9882812 C 16.170482,4.5943575 15.892416,4.0359455 15.402344,4.03125 Z"
       transform="translate(0,1032.3622)"
       id="rect4143"
       inkscape:connector-curvature="0"
       sodipodi:nodetypes="ccccccssssccssssccssssccsssscccccccccccccccc" />
  </g>
</svg>
