<?xml version="1.0" encoding="UTF-8" standalone="yes"?>
<svg viewBox="0 0 18 18" xmlns="http://www.w3.org/2000/svg">
  <path d="M7.6,3.5c0,0.1,0,0.2-0.1,0.2s-0.1,0-0.2-0.1L6.5,1.9c0-0.1,0-0.2,0.1-0.2s0.1,0,0.2,0.1L7.6,3.5L7.6,3.5z"/>
  <path d="M10.3,3.4l0.8-1.7c0.1-0.1,0.1-0.1,0.2-0.1c0.1,0,0.1,0.1,0.1,0.2l-0.8,1.7c-0.1,0.1-0.1,0.1-0.2,0.1&#xA;&#x9;C10.3,3.6,10.3,3.5,10.3,3.4L10.3,3.4z"/>
  <path d="M15.1,11.2c0,0.5-0.4,0.9-0.8,0.9c-0.5,0-0.8-0.4-0.8-0.9V7.4c0-0.5,0.4-0.9,0.8-0.9c0.5,0,0.8,0.4,0.8,0.9&#xA;&#x9;V11.2z"/>
  <path d="M4.4,11.3c0,0.5-0.4,0.9-0.8,0.9c-0.5,0-0.8-0.4-0.8-0.9V7.5c0-0.5,0.4-0.9,0.8-0.9c0.5,0,0.8,0.4,0.8,0.9&#xA;&#x9;V11.3z"/>
  <path d="M5,7v6.4C5,13.7,5.3,14,5.6,14h0.8v1.7c0,0.5,0.3,0.9,0.8,0.9c0.4,0,0.8-0.4,0.8-0.9V14h2v1.6c0,0.5,0.3,0.9,0.8,0.9&#xA;&#x9;c0.4,0,0.8-0.4,0.8-0.9V14h0.8c0.3,0,0.6-0.3,0.6-0.6V7H5z"/>
  <path d="M10.8,4.7c-0.2,0-0.3-0.2-0.3-0.3c0-0.2,0.1-0.3,0.3-0.3s0.3,0.2,0.3,0.3C11.1,4.6,10.9,4.7,10.8,4.7L10.8,4.7&#xA;&#x9;z M7.2,4.7C7,4.7,6.9,4.5,6.9,4.4c0-0.2,0.1-0.3,0.3-0.3c0.2,0,0.3,0.2,0.3,0.3C7.5,4.6,7.3,4.7,7.2,4.7L7.2,4.7z M9,2.5&#xA;&#x9;c-2.1,0-3.8,1.6-4,3.7h8C12.7,4.1,11,2.5,9,2.5L9,2.5z"/>
</svg>