<?xml version="1.0" encoding="UTF-8" standalone="yes"?>
<svg viewBox="0 0 20 20">
  <g>
    <g>
      <path d="M7.6,5.9C8,5.9,8.5,6,9,6.2c0.5,0.2,0.9,0.2,1.1,0.2c0.2,0,0.6-0.1,1.1-0.3c0.5-0.2,1-0.3,1.4-0.3c0.6,0,1.2,0.2,1.7,0.5
			c0.3,0.2,0.6,0.5,0.8,0.8c-0.4,0.3-0.7,0.7-0.9,0.9c-0.3,0.5-0.5,1-0.5,1.6c0,0.7,0.2,1.2,0.5,1.8c0.4,0.5,0.8,0.9,1.2,1
			c-0.2,0.6-0.5,1.3-1,2c-0.7,1-1.4,1.5-2,1.5c-0.3,0-0.6-0.1-1.1-0.3c-0.5-0.2-0.9-0.3-1.2-0.3c-0.3,0-0.7,0.1-1.1,0.3
			C8.6,15.9,8.3,16,8,16c-0.8,0-1.6-0.7-2.4-2c-0.8-1.3-1.2-2.7-1.2-4c0-1.2,0.3-2.2,0.9-2.9C6,6.3,6.7,5.9,7.6,5.9 M12.5,2.7
			c0,0.1,0,0.1,0,0.2c0,0.1,0,0.1,0,0.2c0,0.3-0.1,0.7-0.2,1.1c-0.2,0.4-0.4,0.8-0.7,1.1c-0.3,0.3-0.6,0.5-0.9,0.6
			c-0.2,0.1-0.5,0.1-0.8,0.1c0-0.8,0.2-1.5,0.6-2C10.9,3.3,11.6,3,12.5,2.7"/>
    </g>
  </g>
</svg>