<?xml version="1.0" encoding="UTF-8" standalone="yes"?>
<svg viewBox="0 0 18 18">
  <g>
    <g>
      <path d="M6.6,4.9C7,4.9,7.5,5,8,5.2s0.9,0.2,1.1,0.2c0.2,0,0.6-0.1,1.1-0.3c0.5-0.2,1-0.3,1.4-0.3c0.6,0,1.2,0.2,1.7,0.5
			c0.3,0.2,0.6,0.5,0.8,0.8c-0.4,0.3-0.7,0.7-0.9,0.9c-0.3,0.5-0.5,1-0.5,1.6c0,0.7,0.2,1.2,0.5,1.8c0.4,0.5,0.8,0.9,1.2,1
			c-0.2,0.6-0.5,1.3-1,2c-0.7,1-1.4,1.5-2,1.5c-0.3,0-0.6-0.1-1.1-0.3s-0.9-0.3-1.2-0.3S8.4,14.4,8,14.6C7.6,14.9,7.3,15,7,15
			c-0.8,0-1.6-0.7-2.4-2s-1.2-2.7-1.2-4c0-1.2,0.3-2.2,0.9-2.9C5,5.3,5.7,4.9,6.6,4.9 M11.5,1.7c0,0.1,0,0.1,0,0.2
			c0,0.1,0,0.1,0,0.2c0,0.3-0.1,0.7-0.2,1.1c-0.2,0.4-0.4,0.8-0.7,1.1C10.3,4.6,10,4.8,9.7,4.9C9.5,5,9.2,5,8.9,5
			c0-0.8,0.2-1.5,0.6-2C9.9,2.3,10.6,2,11.5,1.7"/>
    </g>
  </g>
</svg>