<?xml version="1.0" encoding="UTF-8" standalone="yes"?>
<svg viewBox="0 0 20 20">
  <g>
    <path d="m 10.000028,1040.3622 c -0.3260005,4e-4 -0.6436005,0.208 -0.8750005,0.4375 l -2.875,2.8437 c -0.3636,0.3778 -0.3438,1.0397 0.031,1.4063 0.3781,0.364 1.037,0.3729 1.4063,0 l 1.3125,-1.2813 0,4.5938 c -0.01,0.5283 0.4711,1 1,1 0.5286005,-3e-4 1.0074005,-0.4715 1.0000005,-1 l 0,-4.5938 1.3125,1.2813 c 0.3708,0.371 1.0315,0.3669 1.4063,0 0.3778,-0.3637 0.3955,-1.0291 0.031,-1.4063 l -2.875,-2.8437 c -0.2311,-0.2303 -0.5488,-0.4377 -0.8750005,-0.4375 z m 0,-5 c -1.1046005,0 -2.0000005,0.8954 -2.0000005,2 0,1.1045 0.8954,2 2.0000005,2 1.1046,0 2,-0.8955 2,-2 0,-1.1046 -0.8954,-2 -2,-2 z"/>
  </g>
</svg>