<?xml version="1.0" encoding="UTF-8" standalone="no"?>
<!-- Created with Inkscape (http://www.inkscape.org/) -->

<svg
   xmlns:dc="http://purl.org/dc/elements/1.1/"
   xmlns:cc="http://creativecommons.org/ns#"
   xmlns:rdf="http://www.w3.org/1999/02/22-rdf-syntax-ns#"
   xmlns:svg="http://www.w3.org/2000/svg"
   xmlns="http://www.w3.org/2000/svg"
   xmlns:sodipodi="http://sodipodi.sourceforge.net/DTD/sodipodi-0.dtd"
   xmlns:inkscape="http://www.inkscape.org/namespaces/inkscape"
   width="20"
   height="20"
   id="svg5738"
   version="1.1"
   inkscape:version="0.48.5 r10040"
   sodipodi:docname="@symbol.svg">
  <defs
     id="defs5740" />
  <sodipodi:namedview
     id="base"
     pagecolor="#ffffff"
     bordercolor="#666666"
     borderopacity="1.0"
     inkscape:pageopacity="0.0"
     inkscape:pageshadow="2"
     inkscape:zoom="16"
     inkscape:cx="2.1090342"
     inkscape:cy="9.8591455"
     inkscape:document-units="px"
     inkscape:current-layer="layer1"
     showgrid="false"
     inkscape:window-width="1194"
     inkscape:window-height="750"
     inkscape:window-x="58"
     inkscape:window-y="0"
     inkscape:window-maximized="0"
     inkscape:snap-bbox="true"
     inkscape:snap-nodes="true">
    <inkscape:grid
       type="xygrid"
       id="grid5746"
       empspacing="5"
       visible="true"
       enabled="true"
       snapvisiblegridlinesonly="true" />
  </sodipodi:namedview>
  <metadata
     id="metadata5743">
    <rdf:RDF>
      <cc:Work
         rdf:about="">
        <dc:format>image/svg+xml</dc:format>
        <dc:type
           rdf:resource="http://purl.org/dc/dcmitype/StillImage" />
        <dc:title></dc:title>
      </cc:Work>
    </rdf:RDF>
  </metadata>
  <g
     inkscape:label="Layer 1"
     inkscape:groupmode="layer"
     id="layer1"
     transform="translate(0,-1032.3622)">
    <path
       style="font-size:medium;font-style:normal;font-variant:normal;font-weight:normal;font-stretch:normal;text-indent:0;text-align:start;text-decoration:none;line-height:normal;letter-spacing:normal;word-spacing:normal;text-transform:none;direction:ltr;block-progression:tb;writing-mode:lr-tb;text-anchor:start;baseline-shift:baseline;color:#000000;fill:#000000;fill-opacity:1;stroke:none;stroke-width:2.27630854;marker:none;visibility:visible;display:inline;overflow:visible;enable-background:accumulate;font-family:Sans;-inkscape-font-specification:Sans"
       d="M 10,3 C 8.2064506,3 6.3938972,3.6999 5.03125,5.0625 c -2.7252943,2.7253 -2.7252948,7.1497 0,9.875 C 6.3938972,16.3001 8.210142,17 10,17 c 0.894929,0 1.812852,-0.18925 2.65625,-0.53125 0.482691,-0.204531 0.735778,-0.829808 0.531247,-1.312501 C 12.982967,14.673557 12.357691,14.420469 11.875,14.625 11.273856,14.8687 10.640604,15 10,15 8.7187909,15 7.4492488,14.51175 6.46875,13.53125 c -1.960998,-1.961 -1.9609974,-5.1015 0,-7.0625 1.9609974,-1.961 5.101503,-1.961 7.0625,0 0.63213,0.6322 1.089021,1.416 1.3125,2.25 C 14.980416,9.1799627 15,9.5790758 15,10 c 0,1.569421 -1.485608,1.495763 -2.34375,1.25 -0.383224,-0.3968 -1.108768,-0.37896 -1.472028,0.03619 -0.36326,0.415155 -0.284631,1.136646 0.159528,1.463806 C 14.28249,13.933628 17,12.716914 17,10 17,9.4099046 16.875145,8.7115816 16.75,8.1875 16.469345,7.0121721 15.821121,5.9462 14.9375,5.0625 13.574853,3.6999 11.79355,3 10,3 z"
       transform="translate(0,1032.3622)"
       id="path9213"
       inkscape:connector-curvature="0"
       sodipodi:nodetypes="cccscscsssccscccsscc" />
    <path
       style="font-size:medium;font-style:normal;font-variant:normal;font-weight:normal;font-stretch:normal;text-indent:0;text-align:start;text-decoration:none;line-height:normal;letter-spacing:normal;word-spacing:normal;text-transform:none;direction:ltr;block-progression:tb;writing-mode:lr-tb;text-anchor:start;baseline-shift:baseline;color:#000000;fill:#000000;fill-opacity:1;stroke:none;stroke-width:2;marker:none;visibility:visible;display:inline;overflow:visible;enable-background:accumulate;font-family:Sans;-inkscape-font-specification:Sans"
       d="m 10,1039.3622 c -2,0 -3.5,1.0249 -3.5,3.5 0,1.5095 1.4980866,3 3,3 1.470365,0 2.75,-1.0312 2.75,-1.0312 0.425583,-0.1099 0.75021,-0.5293 0.75,-0.9688 l 0,-3.5 c 0,0 -0.01172,-1 -1,-1 -0.333333,0 -2,0 -2,0 z m 1,2 0,1 c 0,1 -0.453125,1.5 -1.5,1.5 -0.4870527,0 -1,-0.5004 -1,-1 0,-0.9331 0.4943769,-1.4404 1.5,-1.5 z"
       id="path9984"
       inkscape:connector-curvature="0"
       sodipodi:nodetypes="csscccscccsscc" />
  </g>
</svg>
