<?xml version="1.0" encoding="UTF-8" standalone="yes"?>
<svg viewBox="0 0 20 20">
  <path d="M16.8,8.2c-0.3-1.2-0.9-2.2-1.8-3.1C13.6,3.7,11.8,3,10,3C8.2,3,6.4,3.7,5,5.1c-2.7,2.7-2.7,7.1,0,9.9
	c1.4,1.4,3.2,2.1,5,2.1c0.9,0,1.8-0.2,2.7-0.5c0.5-0.2,0.7-0.8,0.5-1.3s-0.8-0.7-1.3-0.5C11.3,14.9,10.6,15,10,15
	c-1.3,0-2.6-0.5-3.5-1.5c-2-2-2-5.1,0-7.1s5.1-2,7.1,0c0.6,0.6,1.1,1.4,1.3,2.2C15,9.2,15,9.6,15,10c0,1.4-1.1,1.5-2,1.3V8
	c0,0,0-1-1-1c-0.3,0-2,0-2,0c-2,0-3.5,1-3.5,3.5c0,1.5,1.5,3,3,3c0.9,0,1.6-0.3,2.2-0.6c2.8,1,5.4-0.2,5.4-2.9
	C17,9.4,16.9,8.7,16.8,8.2z M9.5,11.5c-0.5,0-1-0.5-1-1C8.5,9.6,9,9.1,10,9h1v1C11,11,10.5,11.5,9.5,11.5z"/>
</svg>