<?xml version="1.0" encoding="UTF-8" standalone="yes"?>
<svg viewBox="0 0 18 18">
  <path d="M15.8,7.2C15.5,6,14.9,5,14,4.1C12.6,2.7,10.8,2,9,2S5.4,2.7,4,4.1C1.3,6.8,1.3,11.2,4,14c1.4,1.4,3.2,2.1,5,2.1
	c0.9,0,1.8-0.2,2.7-0.5c0.5-0.2,0.7-0.8,0.5-1.3s-0.8-0.7-1.3-0.5C10.3,13.9,9.6,14,9,14c-1.3,0-2.6-0.5-3.5-1.5c-2-2-2-5.1,0-7.1
	s5.1-2,7.1,0c0.6,0.6,1.1,1.4,1.3,2.2C14,8.2,14,8.6,14,9c0,1.4-1.1,1.5-2,1.3V7c0,0,0-1-1-1c-0.3,0-2,0-2,0C7,6,5.5,7,5.5,9.5
	c0,1.5,1.5,3,3,3c0.9,0,1.6-0.3,2.2-0.6c2.8,1,5.4-0.2,5.4-2.9C16,8.4,15.9,7.7,15.8,7.2z M8.5,10.5c-0.5,0-1-0.5-1-1
	C7.5,8.6,8,8.1,9,8h1v1C10,10,9.5,10.5,8.5,10.5z"/>
</svg>