<?xml version="1.0" encoding="UTF-8" standalone="yes"?>
<svg viewBox="0 0 18 18" xmlns="http://www.w3.org/2000/svg">
  <path d="M9 1C8.44772 1 8 1.44772 8 2V3C5.79086 3 4 4.79086 4 7V10.5L3.27428 12.3143C3.14291 12.6427 3.38478 13 3.73852 13H14.2615C14.6152 13 14.8571 12.6427 14.7257 12.3143L14 10.5V7C14 4.79086 12.2091 3 10 3V2C10 1.44772 9.55229 1 9 1Z"/>
  <path d="M11 14C11 14.5304 10.7893 15.0391 10.4142 15.4142C10.0391 15.7893 9.53043 16 9 16C8.46957 16 7.96086 15.7893 7.58579 15.4142C7.21071 15.0391 7 14.5304 7 14H11Z"/>
</svg>