<?xml version="1.0" encoding="UTF-8" standalone="yes"?>
<svg viewBox="0 0 18 18" xmlns="http://www.w3.org/2000/svg">
  <path fill-rule="evenodd" clip-rule="evenodd" d="M13.75 3.125C13.75 4.16053 12.9105 5 11.875 5C10.8395 5 10 4.16053 10 3.125C10 2.08947 10.8395 1.25 11.875 1.25C12.9105 1.25 13.75 2.08947 13.75 3.125ZM7.86677 8.44535L9.83966 7.03614L10.6 8.04993C10.9305 8.49059 11.4492 8.74993 12 8.74993H13.5C13.9142 8.74993 14.25 8.41415 14.25 7.99993C14.25 7.58572 13.9142 7.24993 13.5 7.24993H12C11.9213 7.24993 11.8472 7.21289 11.8 7.14993L10.6349 5.59648C10.1436 4.71318 8.98602 4.44538 8.15429 5.03948L6.2594 6.39297C5.55867 6.89349 5.32621 7.82941 5.71132 8.59963L5.82918 8.83534C5.89297 8.96292 5.99182 9.06967 6.11413 9.14305L8.12862 10.3518C8.20393 10.3969 8.25 10.4783 8.25 10.5661V12.9999C8.25 13.4141 8.58579 13.7499 9 13.7499C9.41421 13.7499 9.75 13.4141 9.75 12.9999V10.5661C9.75 9.95141 9.42748 9.38178 8.90037 9.06551L7.86677 8.44535ZM3.75 16C5.54493 16 7 14.5449 7 12.75C7 10.9551 5.54493 9.5 3.75 9.5C1.95507 9.5 0.5 10.9551 0.5 12.75C0.5 14.5449 1.95507 16 3.75 16ZM3.75 14.75C4.85457 14.75 5.75 13.8546 5.75 12.75C5.75 11.6454 4.85457 10.75 3.75 10.75C2.64543 10.75 1.75 11.6454 1.75 12.75C1.75 13.8546 2.64543 14.75 3.75 14.75ZM14.25 16C16.0449 16 17.5 14.5449 17.5 12.75C17.5 10.9551 16.0449 9.5 14.25 9.5C12.4551 9.5 11 10.9551 11 12.75C11 14.5449 12.4551 16 14.25 16ZM14.25 14.75C15.3546 14.75 16.25 13.8546 16.25 12.75C16.25 11.6454 15.3546 10.75 14.25 10.75C13.1454 10.75 12.25 11.6454 12.25 12.75C12.25 13.8546 13.1454 14.75 14.25 14.75Z"/>
</svg>