<?xml version="1.0" encoding="UTF-8" standalone="no"?>
<!-- Created with Inkscape (http://www.inkscape.org/) -->

<svg
   xmlns:dc="http://purl.org/dc/elements/1.1/"
   xmlns:cc="http://creativecommons.org/ns#"
   xmlns:rdf="http://www.w3.org/1999/02/22-rdf-syntax-ns#"
   xmlns:svg="http://www.w3.org/2000/svg"
   xmlns="http://www.w3.org/2000/svg"
   xmlns:sodipodi="http://sodipodi.sourceforge.net/DTD/sodipodi-0.dtd"
   xmlns:inkscape="http://www.inkscape.org/namespaces/inkscape"
   width="20"
   height="20"
   viewBox="0 0 20 20"
   id="svg4136"
   version="1.1"
   inkscape:version="0.91 r13725"
   sodipodi:docname="bike.svg">
  <defs
     id="defs4138" />
  <sodipodi:namedview
     id="base"
     pagecolor="#ffffff"
     bordercolor="#666666"
     borderopacity="1.0"
     inkscape:pageopacity="0.0"
     inkscape:pageshadow="2"
     inkscape:zoom="11.313708"
     inkscape:cx="9.9363052"
     inkscape:cy="9.7500244"
     inkscape:document-units="px"
     inkscape:current-layer="layer1"
     showgrid="true"
     units="px"
     showborder="true"
     inkscape:window-width="1280"
     inkscape:window-height="778"
     inkscape:window-x="435"
     inkscape:window-y="254"
     inkscape:window-maximized="0"
     inkscape:snap-bbox="true"
     inkscape:bbox-paths="true"
     inkscape:bbox-nodes="true"
     inkscape:snap-bbox-edge-midpoints="true"
     showguides="true">
    <inkscape:grid
       type="xygrid"
       id="grid4684"
       color="#ee3f00"
       opacity="0.1254902"
       empspacing="2"
       spacingx="0.5"
       spacingy="0.5"
       dotted="false"
       visible="true"
       enabled="true" />
  </sodipodi:namedview>
  <metadata
     id="metadata4141">
    <rdf:RDF>
      <cc:Work
         rdf:about="">
        <dc:format>image/svg+xml</dc:format>
        <dc:type
           rdf:resource="http://purl.org/dc/dcmitype/StillImage" />
        <dc:title />
      </cc:Work>
    </rdf:RDF>
  </metadata>
  <g
     inkscape:label="Layer 1"
     inkscape:groupmode="layer"
     id="layer1"
     transform="translate(0,-1032.3622)">
    <ellipse
       style="fill:#000000;fill-opacity:1;stroke-width:2;stroke-linecap:round;stroke-linejoin:round;stroke-miterlimit:4;stroke-dasharray:none"
       id="path4139"
       cx="12.75"
       cy="1037.1122"
       rx="1.75"
       ry="1.7499919" />
    <path
       style="color:#000000;font-style:normal;font-variant:normal;font-weight:normal;font-stretch:normal;font-size:medium;line-height:normal;font-family:sans-serif;text-indent:0;text-align:start;text-decoration:none;text-decoration-line:none;text-decoration-style:solid;text-decoration-color:#000000;letter-spacing:normal;word-spacing:normal;text-transform:none;direction:ltr;block-progression:tb;writing-mode:lr-tb;baseline-shift:baseline;text-anchor:start;white-space:normal;clip-rule:nonzero;display:inline;overflow:visible;visibility:visible;opacity:1;isolation:auto;mix-blend-mode:normal;color-interpolation:sRGB;color-interpolation-filters:linearRGB;solid-color:#000000;solid-opacity:1;fill:#000000;fill-opacity:1;fill-rule:evenodd;stroke:none;stroke-width:1.60000002;stroke-linecap:round;stroke-linejoin:round;stroke-miterlimit:4;stroke-dasharray:none;stroke-dashoffset:0;stroke-opacity:1;color-rendering:auto;image-rendering:auto;shape-rendering:auto;text-rendering:auto;enable-background:accumulate"
       d="m 10.339844,1038.4531 a 0.80008001,0.80008001 0 0 0 -0.5781252,1.3653 l 1.5683592,1.6211 a 0.80008001,0.80008001 0 0 0 0.367188,0.2167 l 1.753906,0.4747 a 0.80026919,0.80026919 0 0 0 0.417969,-1.545 l -1.541016,-0.4179 -1.417969,-1.4629 a 0.80008001,0.80008001 0 0 0 -0.570312,-0.252 z"
       id="path4145"
       inkscape:connector-curvature="0" />
    <path
       style="color:#000000;font-style:normal;font-variant:normal;font-weight:normal;font-stretch:normal;font-size:medium;line-height:normal;font-family:sans-serif;text-indent:0;text-align:start;text-decoration:none;text-decoration-line:none;text-decoration-style:solid;text-decoration-color:#000000;letter-spacing:normal;word-spacing:normal;text-transform:none;direction:ltr;block-progression:tb;writing-mode:lr-tb;baseline-shift:baseline;text-anchor:start;white-space:normal;clip-rule:nonzero;display:inline;overflow:visible;visibility:visible;opacity:1;isolation:auto;mix-blend-mode:normal;color-interpolation:sRGB;color-interpolation-filters:linearRGB;solid-color:#000000;solid-opacity:1;fill:#000000;fill-opacity:1;fill-rule:evenodd;stroke:none;stroke-width:1.60000002;stroke-linecap:round;stroke-linejoin:round;stroke-miterlimit:4;stroke-dasharray:none;stroke-dashoffset:0;stroke-opacity:1;color-rendering:auto;image-rendering:auto;shape-rendering:auto;text-rendering:auto;enable-background:accumulate"
       d="m 10.107422,1038.4199 a 0.80008001,0.80008001 0 0 0 -0.5156251,0.2149 c -0.018505,0.014 -0.051583,0.04 -0.09375,0.07 -0.084333,0.061 -0.2061826,0.1469 -0.3496094,0.248 -0.2868537,0.2023 -0.6645753,0.4664 -1.0527344,0.7461 -0.3881591,0.2797 -0.7856774,0.5735 -1.1210937,0.8399 -0.3354164,0.2663 -0.5745045,0.4292 -0.8125,0.7695 a 0.80008001,0.80008001 0 0 0 0.2988281,1.1758 l 1.6972656,0.8418 1.0664063,0.9941 -0.017578,3.2324 a 0.80008001,0.80008001 0 1 0 1.5996098,0.01 l 0.02148,-3.584 a 0.80008001,0.80008001 0 0 0 -0.255859,-0.5898 l -1.4082035,-1.3125 a 0.80008001,0.80008001 0 0 0 -0.1894531,-0.1309 l -0.7265625,-0.3613 c 0.2492505,-0.1906 0.504391,-0.3851 0.7832031,-0.586 0.3777992,-0.2722 0.7518413,-0.5343 1.041016,-0.7382 0.144587,-0.102 0.26711,-0.1883 0.363281,-0.2578 0.04809,-0.035 0.08959,-0.065 0.126953,-0.094 0.03737,-0.029 0.0477,-0.026 0.142578,-0.123 a 0.80008001,0.80008001 0 0 0 -0.597656,-1.3653 z"
       id="path4149"
       inkscape:connector-curvature="0" />
    <path
       style="color:#000000;font-style:normal;font-variant:normal;font-weight:normal;font-stretch:normal;font-size:medium;line-height:normal;font-family:sans-serif;text-indent:0;text-align:start;text-decoration:none;text-decoration-line:none;text-decoration-style:solid;text-decoration-color:#000000;letter-spacing:normal;word-spacing:normal;text-transform:none;direction:ltr;block-progression:tb;writing-mode:lr-tb;baseline-shift:baseline;text-anchor:start;white-space:normal;clip-rule:nonzero;display:inline;overflow:visible;visibility:visible;opacity:1;isolation:auto;mix-blend-mode:normal;color-interpolation:sRGB;color-interpolation-filters:linearRGB;solid-color:#000000;solid-opacity:1;fill:#000000;fill-opacity:1;fill-rule:nonzero;stroke:none;stroke-width:1.60000002;stroke-linecap:round;stroke-linejoin:round;stroke-miterlimit:4;stroke-dasharray:none;stroke-dashoffset:0;stroke-opacity:1;color-rendering:auto;image-rendering:auto;shape-rendering:auto;text-rendering:auto;enable-background:accumulate"
       d="m 4.7285156,1043.3203 c -1.7968225,0 -3.2695312,1.4747 -3.2695312,3.2715 0,1.7968 1.4727087,3.2695 3.2695312,3.2695 1.7968226,0 3.2714844,-1.4727 3.2714844,-3.2695 0,-1.7968 -1.4746618,-3.2715 -3.2714844,-3.2715 z m 0,1.6016 c 0.9321104,0 1.671875,0.7378 1.671875,1.6699 0,0.9321 -0.7397646,1.6699 -1.671875,1.6699 -0.9321104,0 -1.6699218,-0.7378 -1.6699218,-1.6699 0,-0.9321 0.7378114,-1.6699 1.6699218,-1.6699 z"
       id="ellipse4139"
       inkscape:connector-curvature="0" />
    <path
       style="color:#000000;font-style:normal;font-variant:normal;font-weight:normal;font-stretch:normal;font-size:medium;line-height:normal;font-family:sans-serif;text-indent:0;text-align:start;text-decoration:none;text-decoration-line:none;text-decoration-style:solid;text-decoration-color:#000000;letter-spacing:normal;word-spacing:normal;text-transform:none;direction:ltr;block-progression:tb;writing-mode:lr-tb;baseline-shift:baseline;text-anchor:start;white-space:normal;clip-rule:nonzero;display:inline;overflow:visible;visibility:visible;opacity:1;isolation:auto;mix-blend-mode:normal;color-interpolation:sRGB;color-interpolation-filters:linearRGB;solid-color:#000000;solid-opacity:1;fill:#000000;fill-opacity:1;fill-rule:nonzero;stroke:none;stroke-width:1.60000002;stroke-linecap:round;stroke-linejoin:round;stroke-miterlimit:4;stroke-dasharray:none;stroke-dashoffset:0;stroke-opacity:1;color-rendering:auto;image-rendering:auto;shape-rendering:auto;text-rendering:auto;enable-background:accumulate"
       d="m 15.228516,1043.3203 c -1.796823,0 -3.269532,1.4747 -3.269532,3.2715 0,1.7968 1.472709,3.2695 3.269532,3.2695 1.796822,0 3.271484,-1.4727 3.271484,-3.2695 0,-1.7968 -1.474662,-3.2715 -3.271484,-3.2715 z m 0,1.6016 c 0.93211,0 1.671875,0.7378 1.671875,1.6699 0,0.9321 -0.739765,1.6699 -1.671875,1.6699 -0.932111,0 -1.669922,-0.7378 -1.669922,-1.6699 0,-0.9321 0.737811,-1.6699 1.669922,-1.6699 z"
       id="ellipse4141"
       inkscape:connector-curvature="0" />
    <path
       style="fill:#000000;fill-opacity:1;fill-rule:evenodd;stroke:#000000;stroke-width:0;stroke-linecap:butt;stroke-linejoin:miter;stroke-miterlimit:4;stroke-dasharray:none;stroke-opacity:1"
       d="m 9.8517163,1039.1786 -2.4575171,2.268 1.7279411,1.1868 2.2091517,-1.9967 -1.4795757,-1.4581 2e-7,0.023"
       id="path4143"
       inkscape:connector-curvature="0"
       sodipodi:nodetypes="cccccc" />
  </g>
</svg>
