<?xml version="1.0" encoding="UTF-8" standalone="yes"?>
<svg viewBox="0 0 20 20">
  <path d="M13.5,9.5L11.7,9c-0.1,0-0.2-0.1-0.3-0.2L11,8.4L9.5,9.7l1.1,1c0.2,0.2,0.3,0.4,0.3,0.6v3.6c0,0.5-0.3,0.8-0.8,0.8
	s-0.8-0.4-0.8-0.8v-3.2l-1.1-1L6.5,9.9c0-0.1-0.1-0.1-0.1-0.1C6,9.6,5.9,9.1,6.2,8.7C6.4,8.4,6.7,8.1,7,7.9c0.3-0.2,0.7-0.5,1.1-0.8
	c0.4-0.3,0.8-0.6,1.1-0.8c0.1-0.1,0.2-0.1,0.3-0.2C9.5,6,9.6,6,9.6,6c0.2-0.1,0.3-0.2,0.6-0.2c0.1,0,0.1,0,0.2,0
	c0.2,0.1,0.5,0.1,0.6,0.3l1.4,1.5L13.9,8c0.5,0.1,0.7,0.6,0.6,1C14.3,9.4,13.9,9.6,13.5,9.5z M8,14c0,1.8-1.5,3.3-3.3,3.3
	S1.4,15.8,1.4,14s1.5-3.3,3.3-3.3S8,12.2,8,14z M6.4,14c0-1-0.7-1.8-1.7-1.8S3,12.9,3,13.9s0.8,1.7,1.7,1.7C5.7,15.6,6.4,15,6.4,14z
	 M18.5,14c0,1.8-1.5,3.3-3.3,3.3s-3.3-1.5-3.3-3.3s1.5-3.3,3.3-3.3S18.5,12.2,18.5,14z M16.9,13.9c0-1-0.7-1.7-1.7-1.7
	s-1.7,0.7-1.7,1.7s0.8,1.7,1.7,1.7C16.2,15.6,16.9,14.9,16.9,13.9z M12.8,6.3c1,0,1.8-0.8,1.8-1.8s-0.8-1.8-1.8-1.8
	c-1,0-1.8,0.8-1.8,1.8S11.8,6.3,12.8,6.3z"/>
</svg>