<?xml version="1.0" encoding="UTF-8" standalone="yes"?>
<svg viewBox="0 0 18 18">
  <g>
    <path d="M12.5,8.2l-1.8-0.5c-0.1,0-0.2-0.1-0.3-0.2L10,7.1L8.5,8.4l1.1,1C9.8,9.6,9.9,9.8,9.9,10v3.6c0,0.5-0.3,0.8-0.8,0.8
		S8.3,14,8.3,13.6v-3.2l-1.1-1L5.4,8.5C5,8.3,5,7.5,5.3,7.2C5.5,6.9,5.7,6.8,6,6.6c0.3-0.2,0.7-0.5,1.1-0.8C7.5,5.5,7.9,5.2,8.2,5
		c0.3-0.2,0.7-0.5,1-0.5c0.3,0,0.7,0.1,0.8,0.3l1.4,1.5l1.5,0.4c0.5,0.1,0.7,0.6,0.6,1C13.3,8.1,12.9,8.3,12.5,8.2z M7,12.7
		C7,14.5,5.5,16,3.7,16s-3.3-1.5-3.3-3.3s1.5-3.3,3.3-3.3S7,10.9,7,12.7z M5.4,12.7c0-1-0.7-1.8-1.7-1.8S2,11.6,2,12.6
		s0.8,1.7,1.7,1.7C4.7,14.3,5.4,13.7,5.4,12.7z M17.5,12.7c0,1.8-1.5,3.3-3.3,3.3s-3.3-1.5-3.3-3.3s1.5-3.3,3.3-3.3
		S17.5,10.9,17.5,12.7z M15.9,12.6c0-1-0.7-1.7-1.7-1.7s-1.7,0.7-1.7,1.7s0.8,1.7,1.7,1.7C15.2,14.3,15.9,13.6,15.9,12.6z M11.8,5
		c1,0,1.8-0.8,1.8-1.8s-0.8-1.8-1.8-1.8S10,2.2,10,3.2S10.8,5,11.8,5z"/>
    <path d="M12.5,8.2l-1.8-0.5c-0.1,0-0.2-0.1-0.3-0.2L10,7.1L8.5,8.4l1.1,1C9.8,9.6,9.9,9.8,9.9,10v3.6c0,0.5-0.3,0.8-0.8,0.8
		S8.3,14,8.3,13.6v-3.2l-1.1-1L5.4,8.5C5,8.3,5,7.5,5.3,7.2C5.5,6.9,5.7,6.8,6,6.6c0.3-0.2,0.7-0.5,1.1-0.8C7.5,5.5,7.9,5.2,8.2,5
		c0.3-0.2,0.7-0.5,1-0.5c0.3,0,0.7,0.1,0.8,0.3l1.4,1.5l1.5,0.4c0.5,0.1,0.7,0.6,0.6,1C13.3,8.1,12.9,8.3,12.5,8.2z M7,12.7
		C7,14.5,5.5,16,3.7,16s-3.3-1.5-3.3-3.3s1.5-3.3,3.3-3.3S7,10.9,7,12.7z M5.4,12.7c0-1-0.7-1.8-1.7-1.8S2,11.6,2,12.6
		s0.8,1.7,1.7,1.7C4.7,14.3,5.4,13.7,5.4,12.7z M17.5,12.7c0,1.8-1.5,3.3-3.3,3.3s-3.3-1.5-3.3-3.3s1.5-3.3,3.3-3.3
		S17.5,10.9,17.5,12.7z M15.9,12.6c0-1-0.7-1.7-1.7-1.7s-1.7,0.7-1.7,1.7s0.8,1.7,1.7,1.7C15.2,14.3,15.9,13.6,15.9,12.6z M11.8,5
		c1,0,1.8-0.8,1.8-1.8s-0.8-1.8-1.8-1.8S10,2.2,10,3.2S10.8,5,11.8,5z"/>
  </g>
</svg>