<?xml version="1.0" encoding="UTF-8" standalone="yes"?>
<svg viewBox="0 0 18 18" xmlns="http://www.w3.org/2000/svg">
  <path fill-rule="evenodd" clip-rule="evenodd" d="M3 5.38749V12.2793C3 12.7097 3.27543 13.0919 3.68377 13.228L8.68377 14.8946C8.88904 14.9631 9.11096 14.9631 9.31623 14.8946L14.3162 13.228C14.7246 13.0919 15 12.7097 15 12.2793V5.38749C15 4.70493 14.3313 4.22296 13.6838 4.4388L9.31623 5.89465C9.11096 5.96307 8.88904 5.96307 8.68377 5.89465L4.31623 4.4388C3.6687 4.22296 3 4.70493 3 5.38749ZM10.8419 6.8861C10.6377 6.95415 10.5 7.14522 10.5 7.36044V12.3063C10.5 12.6476 10.8343 12.8886 11.1581 12.7807L13.1581 12.114C13.3623 12.046 13.5 11.8549 13.5 11.6397V6.69377C13.5 6.35249 13.1657 6.11151 12.8419 6.21943L10.8419 6.8861Z"/>
</svg>