<?xml version="1.0" encoding="UTF-8" standalone="yes"?>
<svg viewBox="0 0 18 18" xmlns="http://www.w3.org/2000/svg">
  <path fill-rule="evenodd" clip-rule="evenodd" d="M5.5 3C4.11929 3 3 4.11929 3 5.5C3 6.88071 4.11929 8 5.5 8H13.5C14.8807 8 16 6.88071 16 5.5C16 4.11929 14.8807 3 13.5 3H5.5ZM13.5 7C14.3284 7 15 6.32843 15 5.5C15 4.67157 14.3284 4 13.5 4C12.6716 4 12 4.67157 12 5.5C12 6.32843 12.6716 7 13.5 7Z"/>
  <path fill-rule="evenodd" clip-rule="evenodd" d="M5.5 10C4.11929 10 3 11.1193 3 12.5C3 13.8807 4.11929 15 5.5 15H13.5C14.8807 15 16 13.8807 16 12.5C16 11.1193 14.8807 10 13.5 10H5.5ZM5.5 14C6.32843 14 7 13.3284 7 12.5C7 11.6716 6.32843 11 5.5 11C4.67157 11 4 11.6716 4 12.5C4 13.3284 4.67157 14 5.5 14Z"/>
</svg>