<?xml version="1.0" encoding="UTF-8" standalone="yes"?>
<svg viewBox="0 0 18 18" xmlns="http://www.w3.org/2000/svg">
  <path d="M9 2C7.61929 2 6.5 3.11929 6.5 4.5V5C6.5 5.55228 6.94772 6 7.5 6H10.5C11.0523 6 11.5 5.55228 11.5 5V4.5C11.5 3.11929 10.3807 2 9 2Z"/>
  <path d="M3.41603 5.37596C3.07138 5.1462 2.60573 5.23933 2.37596 5.58397C2.1462 5.92862 2.23933 6.39427 2.58397 6.62404L5 8.23472V9.25H2C1.58579 9.25 1.25 9.58579 1.25 10C1.25 10.4142 1.58579 10.75 2 10.75H5V11C5 11.2465 5.0223 11.4878 5.06498 11.722L2.58397 13.376C2.23933 13.6057 2.1462 14.0714 2.37596 14.416C2.60573 14.7607 3.07138 14.8538 3.41603 14.624L5.62657 13.1503C6.33701 14.2625 7.58238 15 9 15C10.4176 15 11.663 14.2625 12.3734 13.1503L14.584 14.624C14.9286 14.8538 15.3943 14.7607 15.624 14.416C15.8538 14.0714 15.7607 13.6057 15.416 13.376L12.935 11.722C12.9777 11.4878 13 11.2465 13 11V10.75H16C16.4142 10.75 16.75 10.4142 16.75 10C16.75 9.58579 16.4142 9.25 16 9.25H13V8.23472L15.416 6.62404C15.7607 6.39427 15.8538 5.92862 15.624 5.58397C15.3943 5.23933 14.9286 5.1462 14.584 5.37596L12.1479 7H5.85208L3.41603 5.37596Z"/>
</svg>