<?xml version="1.0" encoding="UTF-8" standalone="yes"?>
<svg viewBox="0 0 18 18">
  <g>
    <path d="M8,7h2c1,0,1-1,1-1s0-2-2-2S7,6,7,6S7,7,8,7z"/>
    <path d="M13.9,12.9l-2-1.2c0-0.1,0.1-0.3,0.1-0.4h1.5c0.4,0,0.8-0.3,0.8-0.7S14,9.8,13.6,9.8l0,0H12V9.3l1.9-1.1
		c0.4-0.2,0.5-0.7,0.3-1c-0.1-0.2-0.4-0.4-0.6-0.4c-0.1,0-0.3,0-0.4,0.1l-2,1.1H9l0,0H6.8L4.9,6.9C4.8,6.8,4.6,6.7,4.5,6.7
		C4,6.8,3.7,7.1,3.7,7.5c0,0.3,0.2,0.5,0.4,0.6L6,9.3v0.5H4.5c-0.4,0-0.8,0.3-0.8,0.7s0.3,0.8,0.7,0.8l0,0H6c0,0.1,0,0.3,0.1,0.4
		l-2,1.2c-0.4,0.2-0.5,0.7-0.3,1s0.7,0.5,1,0.3l2-1.2c0.6,0.6,1.4,1,2.2,1s1.6-0.4,2.2-1l1.9,1.1c0.4,0.2,0.8,0.1,1-0.3
		S14.2,13.1,13.9,12.9z"/>
  </g>
</svg>