<?xml version="1.0" encoding="UTF-8" standalone="yes"?>
<svg viewBox="0 0 20 20">
  <g>
    <path d="M9,8h2c1,0,1-1,1-1s0-2-2-2S8,7,8,7S8,8,9,8z"/>
    <path d="M14.9,13.9l-2-1.2c0-0.1,0.1-0.3,0.1-0.4h1.5c0.4,0,0.8-0.3,0.8-0.7c0-0.4-0.3-0.8-0.7-0.8c0,0,0,0,0,0H13v-0.5l1.9-1.1
		c0.4-0.2,0.5-0.7,0.3-1c-0.1-0.2-0.4-0.4-0.6-0.4c-0.1,0-0.3,0-0.4,0.1L12.2,9H10h0H7.8L5.9,7.9C5.8,7.8,5.6,7.7,5.5,7.7
		C5,7.8,4.7,8.1,4.7,8.5c0,0.3,0.2,0.5,0.4,0.6L7,10.3v0.5H5.5c-0.4,0-0.8,0.3-0.8,0.7c0,0.4,0.3,0.8,0.7,0.8c0,0,0,0,0,0H7
		c0,0.1,0,0.3,0.1,0.4l-2,1.2c-0.4,0.2-0.5,0.7-0.3,1s0.7,0.5,1,0.3L7.8,14c0.6,0.6,1.4,1,2.2,1c0.8,0,1.6-0.4,2.2-1l1.9,1.1
		c0.4,0.2,0.8,0.1,1-0.3S15.2,14.1,14.9,13.9z"/>
  </g>
</svg>