<?xml version="1.0" encoding="UTF-8" standalone="no"?>
<!-- Created with Inkscape (http://www.inkscape.org/) -->

<svg
   xmlns:dc="http://purl.org/dc/elements/1.1/"
   xmlns:cc="http://creativecommons.org/ns#"
   xmlns:rdf="http://www.w3.org/1999/02/22-rdf-syntax-ns#"
   xmlns:svg="http://www.w3.org/2000/svg"
   xmlns="http://www.w3.org/2000/svg"
   xmlns:sodipodi="http://sodipodi.sourceforge.net/DTD/sodipodi-0.dtd"
   xmlns:inkscape="http://www.inkscape.org/namespaces/inkscape"
   width="20"
   height="20"
   viewBox="0 0 20 20"
   id="svg4136"
   version="1.1"
   inkscape:version="0.91 r13725"
   sodipodi:docname="car.svg">
  <defs
     id="defs4138" />
  <sodipodi:namedview
     id="base"
     pagecolor="#ffffff"
     bordercolor="#666666"
     borderopacity="1.0"
     inkscape:pageopacity="0.0"
     inkscape:pageshadow="2"
     inkscape:zoom="11.313708"
     inkscape:cx="-1.559998"
     inkscape:cy="7.0710908"
     inkscape:document-units="px"
     inkscape:current-layer="layer1"
     showgrid="true"
     units="px"
     showborder="true"
     inkscape:window-width="1280"
     inkscape:window-height="778"
     inkscape:window-x="435"
     inkscape:window-y="218"
     inkscape:window-maximized="0"
     inkscape:snap-bbox="true"
     inkscape:bbox-paths="true"
     inkscape:bbox-nodes="true"
     inkscape:snap-bbox-edge-midpoints="true"
     showguides="true">
    <inkscape:grid
       type="xygrid"
       id="grid4684"
       color="#ee3f00"
       opacity="0.1254902"
       empspacing="2"
       spacingx="0.5"
       spacingy="0.5"
       dotted="false"
       visible="true"
       enabled="true" />
  </sodipodi:namedview>
  <metadata
     id="metadata4141">
    <rdf:RDF>
      <cc:Work
         rdf:about="">
        <dc:format>image/svg+xml</dc:format>
        <dc:type
           rdf:resource="http://purl.org/dc/dcmitype/StillImage" />
        <dc:title />
      </cc:Work>
    </rdf:RDF>
  </metadata>
  <g
     inkscape:label="Layer 1"
     inkscape:groupmode="layer"
     id="layer1"
     transform="translate(0,-1032.3622)">
    <path
       style="fill:#000000;fill-opacity:0.98095236;stroke:#000000;stroke-width:0;stroke-linecap:round;stroke-linejoin:round;stroke-miterlimit:4;stroke-dasharray:none;stroke-opacity:1"
       d="M 9.453125 4.0058594 C 7.4044387 4.0504969 5.4199108 4.3654281 4.9199219 4.7988281 L 4.21875 9.1035156 C 3.5099487 9.3450174 3 10.008208 3 10.800781 L 3 13.199219 C 3 13.906498 3.4091404 14.509844 4 14.804688 L 4 15.5 C 4 15.77701 4.2229904 16 4.5 16 L 6.5 16 C 6.7770096 16 7 15.77701 7 15.5 L 7 15 L 13 15 L 13 15.5 C 13 15.77701 13.22299 16 13.5 16 L 15.5 16 C 15.77701 16 16 15.77701 16 15.5 L 16 14.804688 C 16.59086 14.509844 17 13.906498 17 13.199219 L 17 10.800781 C 17 9.9600397 16.427075 9.2642156 15.650391 9.0644531 L 14.367188 4.8359375 C 13.61437 4.1859875 11.501811 3.9612219 9.453125 4.0058594 z M 9.5449219 5.5039062 C 10.927283 5.4778437 12.353365 5.6092314 12.861328 5.9882812 L 13.496094 9 L 6.4863281 9 L 6.0078125 9 L 6.4863281 5.9667969 C 6.8236981 5.7139969 8.162561 5.529969 9.5449219 5.5039062 z M 6.25 11 A 1.2499999 1.2500005 0 0 1 7.5 12.25 A 1.2499999 1.2500005 0 0 1 6.25 13.5 A 1.2499999 1.2500005 0 0 1 5 12.25 A 1.2499999 1.2500005 0 0 1 6.25 11 z M 13.75 11 A 1.25 1.25 0 0 1 15 12.25 A 1.25 1.25 0 0 1 13.75 13.5 A 1.25 1.25 0 0 1 12.5 12.25 A 1.25 1.25 0 0 1 13.75 11 z "
       transform="translate(0,1032.3622)"
       id="rect4157" />
  </g>
</svg>
