<?xml version="1.0" encoding="UTF-8" standalone="yes"?>
<svg viewBox="0 0 20 20">
  <path d="M15.8,9.1l-0.7-4.3c-0.5-0.4-2.5-0.7-4.5-0.8c-0.2,0-0.4,0-0.5,0C9.8,4,9.6,4,9.5,4c-2,0-4,0.4-4.5,0.8L4.2,9.1
	C3.5,9.3,3,10,3,10.8v2.4c0,0.7,0.4,1.3,1,1.6v0.7C4,15.8,4.2,16,4.5,16h2C6.8,16,7,15.8,7,15.5V15h3h3v0.5c0,0.3,0.2,0.5,0.5,0.5h2
	c0.3,0,0.5-0.2,0.5-0.5v-0.7c0.6-0.3,1-0.9,1-1.6v-2.4C17,10,16.5,9.3,15.8,9.1z M6.2,13.5c-0.7,0-1.2-0.6-1.2-1.2S5.6,11,6.2,11
	s1.2,0.6,1.2,1.2S6.9,13.5,6.2,13.5z M6.5,9H6l0.5-3c0.3-0.3,1.7-0.4,3.1-0.5c0.2,0,0.3,0,0.5,0c0.2,0,0.3,0,0.5,0
	c1.4,0,2.7,0.2,3.1,0.5L14,9h-0.5H10H6.5z M13.8,13.5c-0.7,0-1.2-0.6-1.2-1.2s0.6-1.2,1.2-1.2s1.2,0.6,1.2,1.2S14.4,13.5,13.8,13.5z
	"/>
</svg>