<?xml version="1.0" encoding="UTF-8" standalone="yes"?>
<svg viewBox="0 0 18 18" xmlns="http://www.w3.org/2000/svg">
  <path fill-rule="evenodd" clip-rule="evenodd" d="M5.35407 3C4.53626 3 3.80084 3.4979 3.49711 4.25722L2.42914 6.92715C2.41945 6.95138 2.40992 6.97566 2.40055 7H2C1.44772 7 1 7.44772 1 8C1 8.55229 1.44772 9 2 9H2.00202C2.00067 9.05179 2 9.10363 2 9.15549V12C2 12.5523 2.44772 13 3 13L3 13.5C3 14.3284 3.67157 15 4.5 15C5.32843 15 6 14.3284 6 13.5V13H12V13.5C12 14.3284 12.6716 15 13.5 15C14.3284 15 15 14.3284 15 13.5V13C15.5523 13 16 12.5523 16 12V9.15549C16 9.10363 15.9993 9.05179 15.998 9H16C16.5523 9 17 8.55229 17 8C17 7.44772 16.5523 7 16 7H15.5995C15.5901 6.97566 15.5806 6.95138 15.5709 6.92715L14.5029 4.25722C14.1992 3.4979 13.4637 3 12.6459 3H5.35407ZM13.5 11C13.7761 11 14 10.7761 14 10.5V9.5C14 9.22386 13.7761 9 13.5 9H11.809C11.6196 9 11.4465 9.107 11.3618 9.27639L10.8618 10.2764C10.6956 10.6088 10.9373 11 11.309 11H13.5ZM4.5 11H6.69098C7.06267 11 7.30442 10.6088 7.1382 10.2764L6.6382 9.27639C6.5535 9.107 6.38037 9 6.19098 9H4.5C4.22386 9 4 9.22386 4 9.5V10.5C4 10.7761 4.22386 11 4.5 11ZM5.61803 4C5.23926 4 4.893 4.214 4.72361 4.55279L4.22361 5.55279C3.89116 6.21769 4.37465 7 5.11803 7H12.882C13.6253 7 14.1088 6.21769 13.7764 5.55279L13.2764 4.55279C13.107 4.214 12.7607 4 12.382 4H5.61803Z"/>
</svg>