<?xml version="1.0" encoding="UTF-8" standalone="yes"?>
<svg viewBox="0 0 18 18">
  <path d="M14.8,8.1l-0.7-4.3C13.6,3.4,11.6,3.1,9.6,3C9.4,3,9.2,3,9.1,3C8.8,3,8.6,3,8.5,3c-2,0-4,0.4-4.5,0.8L3.2,8.1
	C2.5,8.3,2,9,2,9.8v2.4c0,0.7,0.4,1.3,1,1.6v0.7C3,14.8,3.2,15,3.5,15h2C5.8,15,6,14.8,6,14.5V14h3h3v0.5c0,0.3,0.2,0.5,0.5,0.5h2
	c0.3,0,0.5-0.2,0.5-0.5v-0.7c0.6-0.3,1-0.9,1-1.6V9.8C16,9,15.5,8.3,14.8,8.1z M5.2,12.5c-0.7,0-1.2-0.6-1.2-1.2S4.6,10,5.2,10
	s1.2,0.6,1.2,1.2S5.9,12.5,5.2,12.5z M5.5,8H5l0.5-3c0.3-0.3,1.7-0.4,3.1-0.5c0.2,0,0.3,0,0.5,0s0.3,0,0.5,0c1.4,0,2.7,0.2,3.1,0.5
	L13,8h-0.5H9H5.5z M12.8,12.5c-0.7,0-1.2-0.6-1.2-1.2s0.6-1.2,1.2-1.2s1.2,0.6,1.2,1.2S13.4,12.5,12.8,12.5z"/>
</svg>