<?xml version="1.0" encoding="UTF-8" standalone="yes"?>
<svg viewBox="0 0 18 18" xmlns="http://www.w3.org/2000/svg">
  <path d="M2 2C1.44772 2 1 2.44772 1 3C1 3.55228 1.44772 4 2 4H2.71922L4.52986 11.2425C4.64115 11.6877 5.04113 12 5.5 12H14V10H6.28078L5.90578 8.5H14L15 4H4.78078L4.47014 2.75746C4.35885 2.3123 3.95887 2 3.5 2H2Z"/>
  <path d="M6.5 16C7.32843 16 8 15.3284 8 14.5C8 13.6716 7.32843 13 6.5 13C5.67157 13 5 13.6716 5 14.5C5 15.3284 5.67157 16 6.5 16Z"/>
  <path d="M14 14.5C14 15.3284 13.3284 16 12.5 16C11.6716 16 11 15.3284 11 14.5C11 13.6716 11.6716 13 12.5 13C13.3284 13 14 13.6716 14 14.5Z"/>
</svg>