<?xml version="1.0" encoding="UTF-8" standalone="no"?>
<!-- Created with Inkscape (http://www.inkscape.org/) -->

<svg
   xmlns:dc="http://purl.org/dc/elements/1.1/"
   xmlns:cc="http://creativecommons.org/ns#"
   xmlns:rdf="http://www.w3.org/1999/02/22-rdf-syntax-ns#"
   xmlns:svg="http://www.w3.org/2000/svg"
   xmlns="http://www.w3.org/2000/svg"
   xmlns:sodipodi="http://sodipodi.sourceforge.net/DTD/sodipodi-0.dtd"
   xmlns:inkscape="http://www.inkscape.org/namespaces/inkscape"
   width="20"
   height="20"
   viewBox="0 0 20 20"
   id="svg4136"
   version="1.1"
   inkscape:version="0.91 r13725"
   sodipodi:docname="certificate.svg">
  <defs
     id="defs4138" />
  <sodipodi:namedview
     id="base"
     pagecolor="#ffffff"
     bordercolor="#666666"
     borderopacity="1.0"
     inkscape:pageopacity="0.0"
     inkscape:pageshadow="2"
     inkscape:zoom="38.210574"
     inkscape:cx="11.046851"
     inkscape:cy="9.9907544"
     inkscape:document-units="px"
     inkscape:current-layer="layer1"
     showgrid="true"
     units="px"
     showborder="true"
     inkscape:window-width="1280"
     inkscape:window-height="778"
     inkscape:window-x="881"
     inkscape:window-y="280"
     inkscape:window-maximized="0"
     inkscape:snap-bbox="true"
     inkscape:bbox-paths="true"
     inkscape:bbox-nodes="true"
     inkscape:snap-bbox-edge-midpoints="true">
    <inkscape:grid
       type="xygrid"
       id="grid4684"
       color="#ee3f00"
       opacity="0.1254902"
       empspacing="2"
       spacingx="0.5"
       spacingy="0.5"
       dotted="false" />
  </sodipodi:namedview>
  <metadata
     id="metadata4141">
    <rdf:RDF>
      <cc:Work
         rdf:about="">
        <dc:format>image/svg+xml</dc:format>
        <dc:type
           rdf:resource="http://purl.org/dc/dcmitype/StillImage" />
        <dc:title />
      </cc:Work>
    </rdf:RDF>
  </metadata>
  <g
     inkscape:label="Layer 1"
     inkscape:groupmode="layer"
     id="layer1"
     transform="translate(0,-1032.3622)">
    <path
       style="fill:#000000;fill-opacity:1;stroke:none;stroke-width:2;stroke-linecap:round;stroke-linejoin:round;stroke-miterlimit:4;stroke-dasharray:none;stroke-opacity:1"
       d="m 6.8484045,1043.3447 3.4640955,2.4972 -2.2674162,4.5378 -1.0003421,-2.8839 -3.0117416,0.9161 z"
       id="rect4137"
       inkscape:connector-curvature="0"
       sodipodi:nodetypes="cccccc" />
    <path
       sodipodi:nodetypes="cccccc"
       inkscape:connector-curvature="0"
       id="path4145"
       d="m 13.184596,1043.5947 -3.6472914,1.9215 2.4506114,4.8635 1.000342,-2.8839 L 16,1048.4119 Z"
       style="fill:#000000;fill-opacity:1;stroke:none;stroke-width:2;stroke-linecap:round;stroke-linejoin:round;stroke-miterlimit:4;stroke-dasharray:none;stroke-opacity:1" />
    <path
       style="fill:#000000;fill-opacity:1;stroke:none;stroke-width:2;stroke-linecap:round;stroke-linejoin:round;stroke-miterlimit:4;stroke-dasharray:none;stroke-opacity:1"
       d="M 8.3339844 2.0019531 C 8.2346492 2.0065236 8.1240189 2.0261435 7.9980469 2.0683594 C 6.9902705 2.4060867 7.6093233 3.2228532 6.78125 3.875 C 5.9531767 4.5271468 5.2594298 3.7684076 4.7109375 4.65625 C 4.1624451 5.5440924 5.1773646 5.7821975 4.9746094 6.7988281 C 4.7718543 7.8153399 3.7407657 7.6668766 3.9082031 8.6894531 C 4.0756404 9.7120297 5.0099094 9.2606923 5.5273438 10.166016 C 6.0447781 11.071339 5.1559163 11.602466 5.9609375 12.28125 C 6.7659587 12.960034 7.1822238 12.029961 8.1777344 12.400391 C 9.1732449 12.77082 8.8442296 13.734115 9.9101562 13.751953 C 10.976083 13.769315 10.679723 12.796712 11.6875 12.458984 C 12.695277 12.1209 13.08013 13.062303 13.908203 12.410156 C 14.736276 11.758009 13.867523 11.198508 14.416016 10.310547 C 14.964508 9.4227045 15.88123 9.9051836 16.083984 8.8886719 C 16.28674 7.8721601 15.249469 7.9854672 15.082031 6.9628906 C 14.914594 5.9403141 15.937357 5.7373546 15.419922 4.8320312 C 14.902487 3.9270647 14.183927 4.6612063 13.378906 3.9824219 C 12.573884 3.3035186 13.222072 2.5092206 12.226562 2.1386719 C 11.231052 1.7682421 11.165537 2.7795565 10.099609 2.7617188 C 9.1669238 2.746527 9.0293308 1.96996 8.3339844 2.0019531 z M 10 4.5 C 11.927074 4.5 13.5 6.073 13.5 8 C 13.5 9.9271 11.927074 11.5 10 11.5 C 8.0729261 11.5 6.5 9.9271 6.5 8 C 6.5 6.073 8.0729261 4.5 10 4.5 z M 10 5.5 C 8.6133654 5.5 7.5 6.6134 7.5 8 C 7.5 9.3867 8.6133654 10.5 10 10.5 C 11.386635 10.5 12.5 9.3867 12.5 8 C 12.5 6.6134 11.386635 5.5 10 5.5 z "
       transform="translate(0,1032.3622)"
       id="path4149" />
  </g>
</svg>
