<?xml version="1.0" encoding="UTF-8" standalone="no"?>
<!-- Created with Inkscape (http://www.inkscape.org/) -->

<svg
   xmlns:dc="http://purl.org/dc/elements/1.1/"
   xmlns:cc="http://creativecommons.org/ns#"
   xmlns:rdf="http://www.w3.org/1999/02/22-rdf-syntax-ns#"
   xmlns:svg="http://www.w3.org/2000/svg"
   xmlns="http://www.w3.org/2000/svg"
   xmlns:sodipodi="http://sodipodi.sourceforge.net/DTD/sodipodi-0.dtd"
   xmlns:inkscape="http://www.inkscape.org/namespaces/inkscape"
   width="20"
   height="20"
   id="svg5738"
   version="1.1"
   inkscape:version="0.91+devel+osxmenu r12911"
   sodipodi:docname="check-document.svg"
   viewBox="0 0 20 20">
  <defs
     id="defs5740" />
  <sodipodi:namedview
     id="base"
     pagecolor="#ffffff"
     bordercolor="#666666"
     borderopacity="1.0"
     inkscape:pageopacity="0.0"
     inkscape:pageshadow="2"
     inkscape:zoom="22.627417"
     inkscape:cx="8.6871061"
     inkscape:cy="11.523605"
     inkscape:document-units="px"
     inkscape:current-layer="layer1"
     showgrid="false"
     inkscape:window-width="1033"
     inkscape:window-height="844"
     inkscape:window-x="20"
     inkscape:window-y="20"
     inkscape:window-maximized="0"
     inkscape:snap-bbox="true"
     inkscape:bbox-paths="true"
     inkscape:bbox-nodes="true"
     inkscape:object-paths="true"
     inkscape:snap-intersection-paths="true"
     inkscape:object-nodes="true">
    <inkscape:grid
       type="xygrid"
       id="grid5746"
       empspacing="5"
       visible="true"
       enabled="true"
       snapvisiblegridlinesonly="true" />
  </sodipodi:namedview>
  <metadata
     id="metadata5743">
    <rdf:RDF>
      <cc:Work
         rdf:about="">
        <dc:format>image/svg+xml</dc:format>
        <dc:type
           rdf:resource="http://purl.org/dc/dcmitype/StillImage" />
        <dc:title></dc:title>
      </cc:Work>
    </rdf:RDF>
  </metadata>
  <g
     inkscape:label="Layer 1"
     inkscape:groupmode="layer"
     id="layer1"
     transform="translate(0,-1032.3622)">
    <path
       style="color:#000000;display:inline;overflow:visible;visibility:visible;fill:#000000;fill-opacity:1;fill-rule:nonzero;stroke:none;stroke-width:1;marker:none;enable-background:accumulate"
       d="M 9 5 C 8 5 8 6 8 6 L 8 8.265625 C 8.2787191 8.102836 8.5908376 8.0008953 8.9199219 7.9863281 L 8.9199219 7.9902344 C 9.7930541 7.9450344 10.553859 8.4898469 10.857422 9.1855469 C 11.161982 9.8834469 11.044456 10.816481 10.412109 11.425781 L 8 13.837891 L 8 14 C 8 15 9 15 9 15 L 15 15 C 16 15 16 14 16 14 L 16 9 C 16 8 15.52702 7.527 15 7 L 14 6 C 13.47295 5.473 13 5 12 5 L 9 5 z M 12.25 6.5625 C 12.39649 6.5335 12.62504 6.6245 13 7 L 14 8 C 14.375 8.3749 14.4668 8.6035 14.4375 8.75 C 14.3885 8.9941 14 9 14 9 L 12 9 L 12 7 C 12 7 12.006 6.6113 12.25 6.5625 z M 8.96875 8.9824219 C 8.70755 8.9924219 8.46077 9.1049219 8.28125 9.2949219 L 6 11.576172 L 4.71875 10.294922 C 3.781217 9.3366219 2.343717 10.742872 3.28125 11.701172 L 5.28125 13.701172 C 5.674309 14.107472 6.325691 14.107472 6.71875 13.701172 L 9.71875 10.701172 C 10.386601 10.057672 9.894733 8.9304219 8.96875 8.9824219 z "
       transform="translate(0,1032.3622)"
       id="path5809" />
  </g>
</svg>
