<?xml version="1.0" encoding="UTF-8" standalone="yes"?>
<svg viewBox="0 0 18 18" xmlns="http://www.w3.org/2000/svg">
  <path fill-rule="evenodd" clip-rule="evenodd" d="M9 14C11.7614 14 14 11.7614 14 9C14 6.23858 11.7614 4 9 4C6.23858 4 4 6.23858 4 9C4 11.7614 6.23858 14 9 14ZM9 16C12.866 16 16 12.866 16 9C16 5.13401 12.866 2 9 2C5.13401 2 2 5.13401 2 9C2 12.866 5.13401 16 9 16ZM9 5.5C9.55228 5.5 10 5.94772 10 6.5V8H11.5C12.0523 8 12.5 8.44772 12.5 9C12.5 9.55228 12.0523 10 11.5 10H9C8.44772 10 8 9.55228 8 9V6.5C8 5.94772 8.44772 5.5 9 5.5Z"/>
</svg>