<?xml version="1.0" encoding="UTF-8" standalone="yes"?>
<svg viewBox="0 0 18 18" xmlns="http://www.w3.org/2000/svg">
  <path fill-rule="evenodd" clip-rule="evenodd" d="M3.79289 3.79289C4.18342 3.40237 4.81658 3.40237 5.20711 3.79289L9 7.58579L12.7929 3.79289C13.1834 3.40237 13.8166 3.40237 14.2071 3.79289C14.5976 4.18342 14.5976 4.81658 14.2071 5.20711L10.4142 9L14.2071 12.7929C14.5976 13.1834 14.5976 13.8166 14.2071 14.2071C13.8166 14.5976 13.1834 14.5976 12.7929 14.2071L9 10.4142L5.20711 14.2071C4.81658 14.5976 4.18342 14.5976 3.79289 14.2071C3.40237 13.8166 3.40237 13.1834 3.79289 12.7929L7.58579 9L3.79289 5.20711C3.40237 4.81658 3.40237 4.18342 3.79289 3.79289Z"/>
</svg>