<?xml version="1.0" encoding="UTF-8" standalone="no"?>
<!-- Created with Inkscape (http://www.inkscape.org/) -->

<svg
   xmlns:dc="http://purl.org/dc/elements/1.1/"
   xmlns:cc="http://creativecommons.org/ns#"
   xmlns:rdf="http://www.w3.org/1999/02/22-rdf-syntax-ns#"
   xmlns:svg="http://www.w3.org/2000/svg"
   xmlns="http://www.w3.org/2000/svg"
   xmlns:sodipodi="http://sodipodi.sourceforge.net/DTD/sodipodi-0.dtd"
   xmlns:inkscape="http://www.inkscape.org/namespaces/inkscape"
   width="20"
   height="20"
   id="svg5738"
   version="1.1"
   inkscape:version="0.91 r13725"
   sodipodi:docname="close.svg">
  <defs
     id="defs5740" />
  <sodipodi:namedview
     id="base"
     pagecolor="#ffffff"
     bordercolor="#666666"
     borderopacity="1.0"
     inkscape:pageopacity="0.0"
     inkscape:pageshadow="2"
     inkscape:zoom="34.952852"
     inkscape:cx="10.011049"
     inkscape:cy="10.0227"
     inkscape:document-units="px"
     inkscape:current-layer="layer1"
     showgrid="true"
     inkscape:window-width="1649"
     inkscape:window-height="958"
     inkscape:window-x="20"
     inkscape:window-y="20"
     inkscape:window-maximized="0">
    <inkscape:grid
       type="xygrid"
       id="grid5746"
       empspacing="5"
       visible="true"
       enabled="true"
       snapvisiblegridlinesonly="true" />
  </sodipodi:namedview>
  <metadata
     id="metadata5743">
    <rdf:RDF>
      <cc:Work
         rdf:about="">
        <dc:format>image/svg+xml</dc:format>
        <dc:type
           rdf:resource="http://purl.org/dc/dcmitype/StillImage" />
        <dc:title />
      </cc:Work>
    </rdf:RDF>
  </metadata>
  <g
     inkscape:label="Layer 1"
     inkscape:groupmode="layer"
     id="layer1"
     transform="translate(0,-1032.3622)">
    <path
       inkscape:connector-curvature="0"
       style="color:#000000;font-style:normal;font-variant:normal;font-weight:normal;font-stretch:normal;font-size:medium;line-height:normal;font-family:Sans;-inkscape-font-specification:Sans;text-indent:0;text-align:start;text-decoration:none;text-decoration-line:none;letter-spacing:normal;word-spacing:normal;text-transform:none;direction:ltr;block-progression:tb;writing-mode:lr-tb;baseline-shift:baseline;text-anchor:start;display:inline;overflow:visible;visibility:visible;fill:#000000;fill-opacity:1;fill-rule:nonzero;stroke:none;stroke-width:2;marker:none;enable-background:accumulate"
       d="m 6.8330602,1038.3345 c -0.4387888,0 -0.7944971,0.3586 -0.7944971,0.801 0,0.2136 0.088462,0.4073 0.2234523,0.5509 0.017376,0.018 0.03062,0.034 0.049656,0.049 l 2.5572875,2.6037 -2.6069436,2.6288 c -0.1437752,0.1453 -0.2234522,0.355 -0.2234522,0.5761 0,0.4424 0.3557083,0.8011 0.7944971,0.8011 0.22708,0 0.4262532,-0.096 0.5710448,-0.2503 l 2.606944,-2.6287 2.582115,2.6037 c 0.145648,0.1683 0.356915,0.2753 0.595873,0.2753 0.438789,0 0.794497,-0.3587 0.794497,-0.8011 0,-0.2211 -0.07967,-0.4308 -0.223452,-0.5758 l -2.606944,-2.6287 2.606944,-2.6537 c 0.134991,-0.1436 0.223452,-0.3373 0.223452,-0.5509 0,-0.4424 -0.355708,-0.801 -0.794497,-0.801 -0.219395,0 -0.427269,0.08 -0.571045,0.2253 l -2.606943,2.6286 -2.606944,-2.6286 c -0.1437754,-0.145 -0.3516508,-0.2253 -0.5710448,-0.2253 z"
       id="path4364" />
  </g>
</svg>
