<?xml version="1.0" encoding="UTF-8" standalone="yes"?>
<svg viewBox="0 0 18 18">
  <g>
    <path d="M4.7,5.1C4.5,5,4.3,5,4.1,5C3.7,5,3.4,5.1,3.2,5.4l-2.1,3c-0.2,0.3-0.2,0.8,0,1.1l2.1,3c0.3,0.5,0.9,0.6,1.4,0.3
		s0.6-0.9,0.3-1.4L3.2,9l1.7-2.4C5.2,6.1,5.1,5.5,4.7,5.1z"/>
    <path d="M16.8,8.4c-0.7-1-1.3-2-2-3C14.6,5.1,14.3,5,14,5c-0.5,0-1,0.4-1,1c0,0.2,0.1,0.4,0.2,0.6c0.5,0.8,1.1,1.6,1.6,2.5
		c-0.5,0.8-1.1,1.6-1.6,2.5c-0.3,0.5-0.2,1.1,0.3,1.4c0.5,0.3,1.1,0.2,1.4-0.3c0.7-1,1.3-2,2-3C17.1,9.2,17.1,8.8,16.8,8.4z"/>
    <path d="M10,4C9.6,4,9.2,4.3,9,4.7l-2,8c-0.5,1.3,1.5,1.9,1.9,0.7l2-8C11.2,4.7,10.7,4,10,4z"/>
  </g>
</svg>