<?xml version="1.0" encoding="UTF-8" standalone="yes"?>
<svg viewBox="0 0 20 20">
  <g>
    <path d="M5.7,6.1C5.5,6,5.3,6,5.1,6C4.7,6,4.4,6.1,4.2,6.4l-2.1,3c-0.2,0.3-0.2,0.8,0,1.1l2.1,3c0.3,0.5,0.9,0.6,1.4,0.3
		s0.6-0.9,0.3-1.4L4.2,10l1.7-2.4C6.2,7.1,6.1,6.5,5.7,6.1z"/>
    <path d="M17.8,9.4c-0.7-1-1.3-2-2-3C15.6,6.1,15.3,6,15,6c-0.5,0-1,0.4-1,1c0,0.2,0.1,0.4,0.2,0.6c0.5,0.8,1.1,1.6,1.6,2.5
		c-0.5,0.8-1.1,1.6-1.6,2.5c-0.3,0.5-0.2,1.1,0.3,1.4c0.5,0.3,1.1,0.2,1.4-0.3c0.7-1,1.3-2,2-3C18.1,10.2,18.1,9.8,17.8,9.4z"/>
    <path d="M11,5c-0.4,0-0.8,0.3-1,0.7l-2,8c-0.5,1.3,1.5,1.9,1.9,0.7l2-8C12.2,5.7,11.7,5,11,5z"/>
  </g>
</svg>