<?xml version="1.0" encoding="UTF-8" standalone="yes"?>
<svg viewBox="0 0 18 18" xmlns="http://www.w3.org/2000/svg">
  <path d="M9 4.00006L7 14.0001H9L11 4.00006H9Z"/>
  <path fill-rule="evenodd" clip-rule="evenodd" d="M5.6 4.20006C6.04183 4.53143 6.13137 5.15823 5.8 5.60006L3.25 9.00006L5.8 12.4001C6.13137 12.8419 6.04183 13.4687 5.6 13.8001C5.15817 14.1314 4.53137 14.0419 4.2 13.6001L0.75 9.00006L4.2 4.40006C4.53137 3.95823 5.15817 3.86869 5.6 4.20006Z"/>
  <path fill-rule="evenodd" clip-rule="evenodd" d="M12.4 4.20006C11.9582 4.53143 11.8686 5.15823 12.2 5.60006L14.75 9.00006L12.2 12.4001C11.8686 12.8419 11.9582 13.4687 12.4 13.8001C12.8418 14.1314 13.4686 14.0419 13.8 13.6001L17.25 9.00006L13.8 4.40006C13.4686 3.95823 12.8418 3.86869 12.4 4.20006Z"/>
</svg>