<?xml version="1.0" encoding="UTF-8" standalone="yes"?>
<svg viewBox="0 0 18 18">
  <g>
    <path d="M7.7,13.3C7.5,13.1,7.3,13,7,13s-0.5,0.1-0.7,0.3l-1,1c-0.4,0.4-0.4,1,0,1.4l1,1c0.4,0.4,1,0.4,1.4,0l1-1
		c0.4-0.4,0.4-1,0-1.4L7.7,13.3z"/>
    <path d="M3.7,9.3C3.5,9.1,3.3,9,3,9S2.5,9.1,2.3,9.3l-1,1c-0.4,0.4-0.4,1,0,1.4l1,1c0.4,0.4,1,0.4,1.4,0l1-1c0.4-0.4,0.4-1,0-1.4
		L3.7,9.3z"/>
    <path d="M16.7,6.2l-4.9-4.9C11.6,1.1,11.3,1,11.1,1s-0.5,0.1-0.7,0.3l-1,1C9,2.7,9,3.3,9.4,3.7l4.9,4.9c0.4,0.4,1,0.4,1.4,0l1-1
		C17.1,7.3,17.1,6.6,16.7,6.2z"/>
    <path d="M6.5,8.5c0.3,0.3,1,1,1,1l-1,1c0,0-0.5,0.5,0,1s1,0,1,0l1-1l1,1C10,12,11,12,11,11V7H7C6,7,6,8,6.5,8.5z"/>
  </g>
</svg>