<?xml version="1.0" encoding="UTF-8" standalone="yes"?>
<svg viewBox="0 0 18 18" xmlns="http://www.w3.org/2000/svg">
  <path d="M11.7071 1.70708L16.2929 6.29286C16.6834 6.68339 16.6834 7.31655 16.2929 7.70708L15.7071 8.29286C15.3166 8.68339 14.6834 8.68339 14.2929 8.29286L9.70711 3.70708C9.31658 3.31655 9.31658 2.68339 9.70711 2.29286L10.2929 1.70708C10.6834 1.31655 11.3166 1.31655 11.7071 1.70708Z"/>
  <path d="M7.20711 13.2071L8.29289 14.2929C8.68342 14.6834 8.68342 15.3166 8.29289 15.7071L7.70711 16.2929C7.31658 16.6834 6.68342 16.6834 6.29289 16.2929L5.20711 15.2071C4.81658 14.8166 4.81658 14.1834 5.20711 13.7929L5.79289 13.2071C6.18342 12.8166 6.81658 12.8166 7.20711 13.2071Z"/>
  <path d="M4.79289 10.7929L3.70711 9.70708C3.31658 9.31655 2.68342 9.31655 2.29289 9.70708L1.70711 10.2929C1.31658 10.6834 1.31658 11.3166 1.70711 11.7071L2.79289 12.7929C3.18342 13.1834 3.81658 13.1834 4.20711 12.7929L4.79289 12.2071C5.18342 11.8166 5.18342 11.1834 4.79289 10.7929Z"/>
  <path d="M9.28033 9.7803L10.5 11L11 6.99997L7 7.49997L8.21967 8.71964L6.46967 10.4696C6.17678 10.7625 6.17678 11.2374 6.46967 11.5303C6.76256 11.8232 7.23744 11.8232 7.53033 11.5303L9.28033 9.7803Z"/>
</svg>