<?xml version="1.0" encoding="UTF-8" standalone="yes"?>
<svg viewBox="0 0 20 20">
  <g>
    <path d="M8.7,14.3C8.5,14.1,8.3,14,8,14s-0.5,0.1-0.7,0.3l-1,1c-0.4,0.4-0.4,1,0,1.4l1,1c0.4,0.4,1,0.4,1.4,0l1-1
		c0.4-0.4,0.4-1,0-1.4L8.7,14.3z"/>
    <path d="M4.7,10.3C4.5,10.1,4.3,10,4,10s-0.5,0.1-0.7,0.3l-1,1c-0.4,0.4-0.4,1,0,1.4l1,1c0.4,0.4,1,0.4,1.4,0l1-1
		c0.4-0.4,0.4-1,0-1.4L4.7,10.3z"/>
    <path d="M17.7,7.2l-4.9-4.9C12.6,2.1,12.3,2,12.1,2s-0.5,0.1-0.7,0.3l-1,1c-0.4,0.4-0.4,1,0,1.4l4.9,4.9c0.4,0.4,1,0.4,1.4,0l1-1
		C18.1,8.3,18.1,7.6,17.7,7.2z"/>
    <path d="M7.5,9.5c0.3,0.3,1,1,1,1l-1,1c0,0-0.5,0.5,0,1s1,0,1,0l1-1l1,1C11,13,12,13,12,12V8H8C7,8,7,9,7.5,9.5z"/>
  </g>
</svg>