<?xml version="1.0" encoding="UTF-8" standalone="no"?>
<!-- Created with Inkscape (http://www.inkscape.org/) -->

<svg
   xmlns:dc="http://purl.org/dc/elements/1.1/"
   xmlns:cc="http://creativecommons.org/ns#"
   xmlns:rdf="http://www.w3.org/1999/02/22-rdf-syntax-ns#"
   xmlns:svg="http://www.w3.org/2000/svg"
   xmlns="http://www.w3.org/2000/svg"
   xmlns:sodipodi="http://sodipodi.sourceforge.net/DTD/sodipodi-0.dtd"
   xmlns:inkscape="http://www.inkscape.org/namespaces/inkscape"
   width="20"
   height="20"
   id="svg5738"
   version="1.1"
   inkscape:version="0.48.5 r10040"
   sodipodi:docname="crosshair.svg">
  <defs
     id="defs5740" />
  <sodipodi:namedview
     id="base"
     pagecolor="#ffffff"
     bordercolor="#666666"
     borderopacity="1.0"
     inkscape:pageopacity="0.0"
     inkscape:pageshadow="2"
     inkscape:zoom="22.627417"
     inkscape:cx="13.591695"
     inkscape:cy="12.620939"
     inkscape:document-units="px"
     inkscape:current-layer="layer1"
     showgrid="false"
     inkscape:window-width="1390"
     inkscape:window-height="884"
     inkscape:window-x="20"
     inkscape:window-y="20"
     inkscape:window-maximized="0">
    <inkscape:grid
       type="xygrid"
       id="grid5746"
       empspacing="5"
       visible="true"
       enabled="true"
       snapvisiblegridlinesonly="true" />
  </sodipodi:namedview>
  <metadata
     id="metadata5743">
    <rdf:RDF>
      <cc:Work
         rdf:about="">
        <dc:format>image/svg+xml</dc:format>
        <dc:type
           rdf:resource="http://purl.org/dc/dcmitype/StillImage" />
        <dc:title />
      </cc:Work>
    </rdf:RDF>
  </metadata>
  <g
     inkscape:label="Layer 1"
     inkscape:groupmode="layer"
     id="layer1"
     transform="translate(0,-1032.3622)">
    <path
       style="color:#000000;fill:#000000;fill-opacity:1;fill-rule:nonzero;stroke:none;stroke-width:2;marker:none;visibility:visible;display:inline;overflow:visible;enable-background:accumulate"
       d="M 10,3 C 9.4477153,3 9,3.4477153 9,4 L 9,4.59375 C 6.7352,4.97875 4.95155,6.7473 4.53125,9 L 4,9 c -0.5522847,0 -1,0.4477153 -1,1 0,0.552285 0.4477153,1 1,1 l 0.53125,0 C 4.95165,13.2527 6.7352,15.02125 9,15.40625 L 9,16 c 0,0.552285 0.4477153,1 1,1 0.552285,0 1,-0.447715 1,-1 l 0,-0.625 C 13.1953,14.9388 14.93415,13.2047 15.34375,11 L 16,11 c 0.552285,0 1,-0.447715 1,-1 C 17,9.4477153 16.552285,9 16,9 L 15.34375,9 C 14.93415,6.7953 13.1953,5.0612 11,4.625 L 11,4 C 11,3.4477153 10.552285,3 10,3 z m 0,3.5 c 1.932997,0 3.5,1.5670033 3.5,3.5 0,1.932997 -1.567003,3.5 -3.5,3.5 C 8.0670033,13.5 6.5,11.932997 6.5,10 6.5,8.0670033 8.0670033,6.5 10,6.5 z M 10,9 c -0.5522847,0 -1,0.4477153 -1,1 0,0.552285 0.4477153,1 1,1 0.552285,0 1,-0.447715 1,-1 0,-0.5522847 -0.447715,-1 -1,-1 z"
       transform="translate(0,1032.3622)"
       id="path4135"
       inkscape:connector-curvature="0"
       sodipodi:nodetypes="ccccccccccccccccccccccccccccccc" />
  </g>
</svg>
