<?xml version="1.0" encoding="UTF-8" standalone="yes"?>
<svg viewBox="0 0 20 20">
  <path d="M10,3C9.4,3,9,3.4,9,4v0.6C6.7,5,5,6.7,4.5,9H4c-0.6,0-1,0.4-1,1c0,0.6,0.4,1,1,1h0.5C5,13.3,6.7,15,9,15.4V16
	c0,0.6,0.4,1,1,1c0.6,0,1-0.4,1-1v-0.6c2.2-0.4,3.9-2.2,4.3-4.4H16c0.6,0,1-0.4,1-1c0-0.6-0.4-1-1-1h-0.7c-0.4-2.2-2.1-3.9-4.3-4.4
	V4C11,3.4,10.6,3,10,3z M10,6.5c1.9,0,3.5,1.6,3.5,3.5s-1.6,3.5-3.5,3.5S6.5,11.9,6.5,10S8.1,6.5,10,6.5z M10,9c-0.6,0-1,0.4-1,1
	c0,0.6,0.4,1,1,1c0.6,0,1-0.4,1-1C11,9.4,10.6,9,10,9z"/>
</svg>