<?xml version="1.0" encoding="UTF-8" standalone="yes"?>
<svg viewBox="0 0 18 18" xmlns="http://www.w3.org/2000/svg">
  <path d="M9 11C10.1046 11 11 10.1046 11 9C11 7.89543 10.1046 7 9 7C7.89543 7 7 7.89543 7 9C7 10.1046 7.89543 11 9 11Z"/>
  <path fill-rule="evenodd" clip-rule="evenodd" d="M8 1H10V3.08296C12.5125 3.50448 14.4955 5.48749 14.917 8H17V10H14.917C14.4955 12.5125 12.5125 14.4955 10 14.917V17H8V14.917C5.4875 14.4955 3.50448 12.5125 3.08296 10H1L1 8H3.08296C3.50448 5.48749 5.4875 3.50448 8 3.08296V1ZM13 9C13 11.2091 11.2091 13 9 13C6.79086 13 5 11.2091 5 9C5 6.79086 6.79086 5 9 5C11.2091 5 13 6.79086 13 9Z"/>
</svg>