<?xml version="1.0" encoding="UTF-8" standalone="yes"?>
<svg viewBox="0 0 20 20">
  <path d="M10,4.5c-2.8,0-5,0.9-5,2V7c0,1.1,2.2,2,5,2s5-0.9,5-2V6.5C15,5.4,12.8,4.5,10,4.5z M5.2,9.5C5.1,9.5,5,9.7,5,10v0.5
	c0,1.1,2.2,2,5,2s5-0.9,5-2V10c0-0.6-0.3-0.7-0.8-0.4c-0.1,0-0.1,0.1-0.2,0.1c-0.9,0.5-2.3,0.8-4,0.8s-3.1-0.3-4-0.8
	C6,9.7,5.9,9.7,5.8,9.6C5.6,9.5,5.4,9.4,5.2,9.5z M5.2,13C5.1,13,5,13.2,5,13.5V14c0,1.1,2.2,2,5,2s5-0.9,5-2v-0.5
	c0-0.6-0.3-0.7-0.8-0.4c-0.1,0-0.1,0.1-0.2,0.1c-0.9,0.5-2.3,0.8-4,0.8s-3.1-0.3-4-0.8c-0.1,0-0.1-0.1-0.2-0.1
	C5.6,13,5.4,12.9,5.2,13z"/>
</svg>