<?xml version="1.0" encoding="UTF-8" standalone="yes"?>
<svg viewBox="0 0 18 18">
  <path d="M9,3.5c-2.8,0-5,0.9-5,2V6c0,1.1,2.2,2,5,2s5-0.9,5-2V5.5C14,4.4,11.8,3.5,9,3.5z M4.2,8.5C4.1,8.5,4,8.7,4,9v0.5
	c0,1.1,2.2,2,5,2s5-0.9,5-2V9c0-0.6-0.3-0.7-0.8-0.4c-0.1,0-0.1,0.1-0.2,0.1c-0.9,0.5-2.3,0.8-4,0.8S5.9,9.2,5,8.7
	c0,0-0.1,0-0.2-0.1C4.6,8.5,4.4,8.4,4.2,8.5z M4.2,12C4.1,12,4,12.2,4,12.5V13c0,1.1,2.2,2,5,2s5-0.9,5-2v-0.5
	c0-0.6-0.3-0.7-0.8-0.4c-0.1,0-0.1,0.1-0.2,0.1c-0.9,0.5-2.3,0.8-4,0.8s-3.1-0.3-4-0.8c-0.1,0-0.1-0.1-0.2-0.1
	C4.6,12,4.4,11.9,4.2,12z"/>
</svg>