<?xml version="1.0" encoding="UTF-8" standalone="yes"?>
<svg viewBox="0 0 18 18" xmlns="http://www.w3.org/2000/svg">
  <path fill-rule="evenodd" clip-rule="evenodd" d="M4 12C3.44772 12 3 12.4477 3 13V15C3 15.5523 3.44772 16 4 16H14C14.5523 16 15 15.5523 15 15V13C15 12.4477 14.5523 12 14 12H4ZM5 13C4.44772 13 4 13.4477 4 14C4 14.5523 4.44772 15 5 15C5.55228 15 6 14.5523 6 14C6 13.4477 5.55228 13 5 13Z"/>
  <path fill-rule="evenodd" clip-rule="evenodd" d="M4 7C3.44772 7 3 7.44772 3 8V10C3 10.5523 3.44772 11 4 11H14C14.5523 11 15 10.5523 15 10V8C15 7.44772 14.5523 7 14 7H4ZM5 8C4.44772 8 4 8.44772 4 9C4 9.55228 4.44772 10 5 10C5.55228 10 6 9.55228 6 9C6 8.44772 5.55228 8 5 8Z"/>
  <path fill-rule="evenodd" clip-rule="evenodd" d="M4 2C3.44772 2 3 2.44772 3 3V5C3 5.55228 3.44772 6 4 6H14C14.5523 6 15 5.55228 15 5V3C15 2.44772 14.5523 2 14 2H4ZM5 3C4.44772 3 4 3.44772 4 4C4 4.55228 4.44772 5 5 5C5.55228 5 6 4.55228 6 4C6 3.44772 5.55228 3 5 3Z"/>
</svg>