<?xml version="1.0" encoding="UTF-8" standalone="yes"?>
<svg viewBox="0 0 18 18" xmlns="http://www.w3.org/2000/svg">
  <path fill-rule="evenodd" clip-rule="evenodd" d="M4.5 3C4.22386 3 4 3.22386 4 3.5V14.5C4 14.7761 4.22386 15 4.5 15H13.5C13.7761 15 14 14.7761 14 14.5V6.20711C14 6.0745 13.9473 5.94732 13.8536 5.85355L11.1464 3.14645C11.0527 3.05268 10.9255 3 10.7929 3H4.5ZM10.3536 4.35355L12.6464 6.64645C12.9614 6.96143 12.7383 7.5 12.2929 7.5H10C9.72386 7.5 9.5 7.27614 9.5 7V4.70711C9.5 4.26165 10.0386 4.03857 10.3536 4.35355Z"/>
</svg>