<?xml version="1.0" encoding="UTF-8" standalone="yes"?>
<svg viewBox="0 0 18 18" xmlns="http://www.w3.org/2000/svg">
  <path d="M8 3.5C8 4.32843 7.32843 5 6.5 5C5.67157 5 5 4.32843 5 3.5C5 2.67157 5.67157 2 6.5 2C7.32843 2 8 2.67157 8 3.5Z"/>
  <path d="M8 9C8 9.82843 7.32843 10.5 6.5 10.5C5.67157 10.5 5 9.82843 5 9C5 8.17157 5.67157 7.5 6.5 7.5C7.32843 7.5 8 8.17157 8 9Z"/>
  <path d="M8 14.5C8 15.3284 7.32843 16 6.5 16C5.67157 16 5 15.3284 5 14.5C5 13.6716 5.67157 13 6.5 13C7.32843 13 8 13.6716 8 14.5Z"/>
  <path d="M13 3.5C13 4.32843 12.3284 5 11.5 5C10.6716 5 10 4.32843 10 3.5C10 2.67157 10.6716 2 11.5 2C12.3284 2 13 2.67157 13 3.5Z"/>
  <path d="M13 9C13 9.82843 12.3284 10.5 11.5 10.5C10.6716 10.5 10 9.82843 10 9C10 8.17157 10.6716 7.5 11.5 7.5C12.3284 7.5 13 8.17157 13 9Z"/>
  <path d="M13 14.5C13 15.3284 12.3284 16 11.5 16C10.6716 16 10 15.3284 10 14.5C10 13.6716 10.6716 13 11.5 13C12.3284 13 13 13.6716 13 14.5Z"/>
</svg>