<?xml version="1.0" encoding="UTF-8" standalone="yes"?>
<svg viewBox="0 0 20 20">
  <path d="M17,9v2.1c0,0.5-0.4,0.9-0.9,0.9h-0.2c-0.5,0-0.9-0.4-0.9-0.9V11h-2v1h-0.5v0.7l2.1,1.7c0.4,0.3,0.4,0.8,0.1,1.2
	c-0.2,0.2-0.4,0.3-0.7,0.3c-0.2,0-0.4-0.1-0.6-0.3l-2.6-2.1H9.1l-2.6,2.2C6.4,15.9,6.1,16,5.9,16c-0.3,0-0.5-0.1-0.6-0.4
	C5,15.3,5,14.7,5.4,14.4l2.2-1.8V12H7v-1H5c0,0.5-0.5,1-1,1c-0.6,0-1-0.4-1-1V9c0-0.6,0.4-1,1-1.1c0.6,0,1,0.4,1,1V9h2V8h6v1h2
	c0-0.5,0.4-0.9,0.9-0.9h0.2C16.6,8.1,17,8.5,17,9z M4,7h3V6h1V4H3v2h1V7z M12,4v2h1v1h3V6h1V4H12z"/>
</svg>