<?xml version="1.0" encoding="UTF-8" standalone="yes"?>
<svg viewBox="0 0 18 18">
  <path d="M16,8v2.1c0,0.5-0.4,0.9-0.9,0.9h-0.2c-0.5,0-0.9-0.4-0.9-0.9V10h-2v1h-0.5v0.7l2.1,1.7c0.4,0.3,0.4,0.8,0.1,1.2
	c-0.2,0.2-0.4,0.3-0.7,0.3c-0.2,0-0.4-0.1-0.6-0.3l-2.6-2.1H8.1l-2.6,2.2C5.4,14.9,5.1,15,4.9,15c-0.3,0-0.5-0.1-0.6-0.4
	C4,14.3,4,13.7,4.4,13.4l2.2-1.8V11H6v-1H4c0,0.5-0.5,1-1,1c-0.6,0-1-0.4-1-1V8c0-0.6,0.4-1,1-1.1c0.6,0,1,0.4,1,1V8h2V7h6v1h2
	c0-0.5,0.4-0.9,0.9-0.9h0.2C15.6,7.1,16,7.5,16,8z M3,6h3V5h1V3H2v2h1V6z M11,3v2h1v1h3V5h1V3H11z"/>
</svg>