<?xml version="1.0" encoding="UTF-8" standalone="yes"?>
<svg viewBox="0 0 18 18" xmlns="http://www.w3.org/2000/svg">
  <path d="M6.5 4C6.77614 4 7 4.22386 7 4.5C7 4.77614 6.77614 5 6.5 5H5V5.87689C5 5.95866 4.98997 6.04011 4.97014 6.11943L4.81063 6.75747C4.65285 7.38861 5.13021 8 5.78078 8H12.2192C12.8698 8 13.3472 7.38861 13.1894 6.75747L13.0299 6.11943C13.01 6.04011 13 5.95866 13 5.87689V5H11.5C11.2239 5 11 4.77614 11 4.5C11 4.22386 11.2239 4 11.5 4L16.5 4C16.7761 4 17 4.22386 17 4.5C17 4.77614 16.7761 5 16.5 5H14.5L14.9328 5.86551C14.9773 5.95467 15.0083 6.04999 15.0247 6.14832L15.822 10.932C15.9152 11.4911 15.484 12 14.9172 12C14.4107 12 14 11.5893 14 11.0828V11C14 10.4477 13.5523 10 13 10C12.4477 10 12 10.4477 12 11V13C12 13.5523 11.5523 14 11 14H7C6.44772 14 6 13.5523 6 13V11C6 10.4477 5.55228 10 5 10C4.44772 10 4 10.4477 4 11V11.0828C4 11.5893 3.58934 12 3.08276 12C2.51597 12 2.08482 11.4911 2.178 10.932L2.97528 6.14832C2.99167 6.04999 3.02267 5.95467 3.06725 5.86551L3.5 5H1.5C1.22386 5 1 4.77614 1 4.5C1 4.22386 1.22386 4 1.5 4L6.5 4Z"/>
</svg>