<?xml version="1.0" encoding="UTF-8" standalone="no"?>
<!-- Generator: Adobe Illustrator 18.0.0, SVG Export Plug-In . SVG Version: 6.00 Build 0)  -->

<svg
   xmlns:dc="http://purl.org/dc/elements/1.1/"
   xmlns:cc="http://creativecommons.org/ns#"
   xmlns:rdf="http://www.w3.org/1999/02/22-rdf-syntax-ns#"
   xmlns:svg="http://www.w3.org/2000/svg"
   xmlns="http://www.w3.org/2000/svg"
   xmlns:sodipodi="http://sodipodi.sourceforge.net/DTD/sodipodi-0.dtd"
   xmlns:inkscape="http://www.inkscape.org/namespaces/inkscape"
   version="1.1"
   id="svg5738"
   sodipodi:docname="duplicate.svg"
   inkscape:version="0.48.5 r10040"
   x="0px"
   y="0px"
   viewBox="0 0 20 20"
   enable-background="new 0 0 20 20"
   xml:space="preserve"
   width="100%"
   height="100%"><metadata
     id="metadata6708"><rdf:RDF><cc:Work
         rdf:about=""><dc:format>image/svg+xml</dc:format><dc:type
           rdf:resource="http://purl.org/dc/dcmitype/StillImage" /></cc:Work></rdf:RDF></metadata><defs
     id="defs6706" /><sodipodi:namedview
     pagecolor="#ffffff"
     bordercolor="#666666"
     borderopacity="1"
     objecttolerance="10"
     gridtolerance="10"
     guidetolerance="10"
     inkscape:pageopacity="0"
     inkscape:pageshadow="2"
     inkscape:window-width="926"
     inkscape:window-height="685"
     id="namedview6704"
     showgrid="true"
     inkscape:zoom="8"
     inkscape:cx="17.465613"
     inkscape:cy="11.049684"
     inkscape:window-x="488"
     inkscape:window-y="110"
     inkscape:window-maximized="0"
     inkscape:current-layer="svg5738"><inkscape:grid
       type="xygrid"
       id="grid6710" /></sodipodi:namedview><g
     id="g6696"><path
       d="M 5.3125,4 C 5.3125,4 4,4 4,5 l 0,6 c 0,1 1,1 1,1 l 3,0 0,3 c 0,0 0,1 1,1 l 6,0 c 1,0 1,-1 1,-1 L 16,9 C 16,8 15,8 15,8 L 12,8 12,5 C 12,5 12,4 11,4 z M 6,6 10,6 10,8 9,8 C 8,8 8,9 8,9 l 0,1 -2,0 z"
       id="path6698"
       inkscape:connector-curvature="0"
       sodipodi:nodetypes="ccccccccccccccccccccccc" /></g><g
     id="g6700" /></svg>