<?xml version="1.0" encoding="UTF-8" standalone="yes"?>
<svg viewBox="0 0 18 18" xmlns="http://www.w3.org/2000/svg">
  <path fill-rule="evenodd" clip-rule="evenodd" d="M12.092 5.46245C11.4478 4.67739 10.529 4.1668 9.52211 4.03424C8.51522 3.90168 7.4956 4.15708 6.67009 4.74863C5.84458 5.34018 5.27499 6.22359 5.07686 7.21966C4.87873 8.21572 5.0669 9.24986 5.60319 10.1123C5.71823 10.2973 5.8474 10.4714 5.98902 10.6333C6.35259 11.0491 6.3103 11.6808 5.89456 12.0444C5.47882 12.4079 4.84707 12.3656 4.48351 11.9499C4.27102 11.7069 4.07727 11.4458 3.90479 11.1684C3.10035 9.87478 2.81809 8.32357 3.11529 6.82948C3.41248 5.33538 4.26687 4.01027 5.50513 3.12294C6.7434 2.23561 8.27282 1.85251 9.78316 2.05135C11.2935 2.25019 12.6716 3.01608 13.6381 4.19366C14.6045 5.37124 15.0868 6.87233 14.9872 8.39244C14.8875 9.91255 14.2134 11.3378 13.1016 12.3792C12.2358 13.1901 11.1552 13.7209 10 13.9161L10 15.0001C10 15.5523 9.55229 16.0001 9 16.0001C8.44772 16.0001 8 15.5523 8 15.0001L8 13C8 12.7348 8.10535 12.4804 8.29289 12.2929C8.48043 12.1054 8.73478 12 9 12C10.0156 12 10.9931 11.6137 11.7344 10.9195C12.4756 10.2252 12.925 9.27504 12.9914 8.26163C13.0579 7.24823 12.7363 6.2475 12.092 5.46245Z"/>
</svg>