<?xml version="1.0" encoding="UTF-8" standalone="yes"?>
<svg viewBox="0 0 18 18">
  <path d="M 9.0214844,2 C 8.9067751,1.9974191 8.7924771,2.0145971 8.6835938,2.0507812 L 2.8300781,4.0019531 C 2,4.2786458 2.0003348,4.9524445 2.0003348,4.9524445 2.0001559,4.9629775 2,13 2,13 c -2.252e-4,0.43057 0.2751544,0.812955 0.6835938,0.949219 l 6,2 c 0.2053772,0.06849 0.4274352,0.06849 0.6328124,0 l 5.9999998,-2 C 15.724845,13.812955 16.000225,13.43057 16,13 l -2.91e-4,-8.0489107 c 0,0 2.91e-4,-0.671699 -0.8376,-0.9510893 L 9.3164062,2.0507812 C 9.2212023,2.0191584 9.1217822,2.0020396 9.0214844,2 Z M 4,6.3886719 8,7.7207031 8,13.611328 4,12.279297 Z m 10,0 0,5.8906251 -4,1.332031 0,-5.8906249 z"/>
</svg>