<?xml version="1.0" encoding="UTF-8" standalone="yes"?>
<svg viewBox="0 0 18 18" xmlns="http://www.w3.org/2000/svg">
  <path fill-rule="evenodd" clip-rule="evenodd" d="M9.31623 2.05132C9.11096 1.98289 8.88904 1.98289 8.68377 2.05132L2.68377 4.05132C2.27543 4.18743 2 4.56957 2 5V13C2 13.4304 2.27543 13.8126 2.68377 13.9487L8.68377 15.9487C8.88904 16.0171 9.11096 16.0171 9.31623 15.9487L15.3162 13.9487C15.7246 13.8126 16 13.4304 16 13V5C16 4.56957 15.7246 4.18743 15.3162 4.05132L9.31623 2.05132ZM4 12.2792V6.38744L8 7.72077V13.6126L4 12.2792ZM10 13.6126V7.72076L14 6.38743V12.2792L10 13.6126Z"/>
</svg>