<?xml version="1.0" encoding="UTF-8" standalone="no"?>
<!-- Created with Inkscape (http://www.inkscape.org/) -->

<svg
   xmlns:dc="http://purl.org/dc/elements/1.1/"
   xmlns:cc="http://creativecommons.org/ns#"
   xmlns:rdf="http://www.w3.org/1999/02/22-rdf-syntax-ns#"
   xmlns:svg="http://www.w3.org/2000/svg"
   xmlns="http://www.w3.org/2000/svg"
   xmlns:sodipodi="http://sodipodi.sourceforge.net/DTD/sodipodi-0.dtd"
   xmlns:inkscape="http://www.inkscape.org/namespaces/inkscape"
   width="20"
   height="20"
   id="svg5738"
   version="1.1"
   inkscape:version="0.48.5 r10040"
   sodipodi:docname="eye.svg">
  <defs
     id="defs5740" />
  <sodipodi:namedview
     id="base"
     pagecolor="#ffffff"
     bordercolor="#666666"
     borderopacity="1.0"
     inkscape:pageopacity="0.0"
     inkscape:pageshadow="2"
     inkscape:zoom="1"
     inkscape:cx="11.344732"
     inkscape:cy="7.7298402"
     inkscape:document-units="px"
     inkscape:current-layer="layer1"
     showgrid="false"
     inkscape:window-width="1390"
     inkscape:window-height="884"
     inkscape:window-x="20"
     inkscape:window-y="20"
     inkscape:window-maximized="0">
    <inkscape:grid
       type="xygrid"
       id="grid5746"
       empspacing="5"
       visible="true"
       enabled="true"
       snapvisiblegridlinesonly="true" />
  </sodipodi:namedview>
  <metadata
     id="metadata5743">
    <rdf:RDF>
      <cc:Work
         rdf:about="">
        <dc:format>image/svg+xml</dc:format>
        <dc:type
           rdf:resource="http://purl.org/dc/dcmitype/StillImage" />
        <dc:title />
      </cc:Work>
    </rdf:RDF>
  </metadata>
  <g
     inkscape:label="Layer 1"
     inkscape:groupmode="layer"
     id="layer1"
     transform="translate(0,-1032.3622)">
    <path
       style="color:#000000;fill:#000000;fill-opacity:1;fill-rule:nonzero;stroke:none;stroke-width:1;marker:none;visibility:visible;display:inline;overflow:visible;enable-background:accumulate"
       d="m 9,6 c -4,0 -6,5 -6,5 0,0 2,4 6,4 l 1,0 1,0 c 4,0 6,-4 6,-4 0,0 -2,-5 -6,-5 L 10,6 z M 7.03125,8.59375 C 7.0123546,8.7298359 7,8.8587135 7,9 c 0,1.242641 0.7670049,2.294575 1.84375,2.75 0.029607,0.0138 0.063582,0.01849 0.09375,0.03125 0.15198,0.05849 0.306006,0.122948 0.46875,0.15625 C 9.5946938,11.978305 9.79934,12 10,12 c 0.414517,0 0.803761,-0.08577 1.15625,-0.25 C 12.232995,11.294575 13,10.242641 13,9 13,8.8587135 12.987645,8.7298359 12.96875,8.59375 14.438219,9.4840034 15,11 15,11 c 0,0 -2,2.5 -4,2.5 l -1,0 -1,0 C 7,13.5 5,11 5,11 5,11 5.5617805,9.4840034 7.03125,8.59375 z"
       id="path3983"
       inkscape:connector-curvature="0"
       sodipodi:nodetypes="scscscscscscccscsccscscc"
       transform="translate(0,1032.3622)" />
  </g>
</svg>
