<?xml version="1.0" encoding="UTF-8" standalone="yes"?>
<svg viewBox="0 0 18 18" xmlns="http://www.w3.org/2000/svg">
  <path d="M10.5867 10.2175C10.8547 9.86823 11 9.44027 11 9H9L10 7.26795C9.61872 7.04781 9.17545 6.95964 8.73895 7.01711C8.30245 7.07458 7.8971 7.27447 7.58579 7.58579C7.27447 7.8971 7.07458 8.30245 7.01711 8.73895C6.95964 9.17545 7.04781 9.61872 7.26795 10C7.48808 10.3813 7.82788 10.6793 8.23463 10.8478C8.64139 11.0162 9.09237 11.0458 9.51764 10.9319C9.9429 10.8179 10.3187 10.5668 10.5867 10.2175Z"/>
  <path fill-rule="evenodd" clip-rule="evenodd" d="M16.4762 9.60367C15.2648 10.9338 12.1324 14 9 14C5.86762 14 2.73524 10.9338 1.52375 9.60367C1.20881 9.25788 1.20882 8.74212 1.52375 8.39633C2.73524 7.06619 5.86762 4 9 4C12.1324 4 15.2648 7.06619 16.4762 8.39633C16.7912 8.74212 16.7912 9.25788 16.4762 9.60367ZM12.5 9C12.5 10.933 10.933 12.5 9 12.5C7.067 12.5 5.5 10.933 5.5 9C5.5 7.067 7.067 5.5 9 5.5C10.933 5.5 12.5 7.067 12.5 9Z"/>
</svg>