<?xml version="1.0" encoding="UTF-8" standalone="yes"?>
<svg viewBox="0 0 18 18" xmlns="http://www.w3.org/2000/svg">
  <path d="M2 4C1.44772 4 1 4.44772 1 5C1 5.55228 1.44772 6 2 6H4V14C4 14.5523 4.44772 15 5 15C5.55228 15 6 14.5523 6 14V6H8C8.55228 6 9 5.55228 9 5C9 4.44772 8.55228 4 8 4H2Z"/>
  <path d="M12 4C12.5523 4 13 4.44772 13 5V8H14.5C15.0523 8 15.5 8.44772 15.5 9C15.5 9.55228 15.0523 10 14.5 10H13V12.5C13 12.7761 13.2239 13 13.5 13H14.5C15.0523 13 15.5 13.4477 15.5 14C15.5 14.5523 15.0523 15 14.5 15H13.5C12.1193 15 11 13.8807 11 12.5V10H9.5C8.94772 10 8.5 9.55228 8.5 9C8.5 8.44772 8.94772 8 9.5 8H11V5C11 4.44772 11.4477 4 12 4Z"/>
</svg>