<?xml version="1.0" encoding="UTF-8" standalone="yes"?>
<svg viewBox="0 0 18 18" xmlns="http://www.w3.org/2000/svg">
  <path d="M4.6247 13.7809L10.6008 9.00001L4.6247 4.21914C4.19343 3.87413 3.56414 3.94405 3.21913 4.37531C2.87412 4.80657 2.94404 5.43587 3.37531 5.78088L7.39922 9.00001L3.37531 12.2191C2.94404 12.5641 2.87412 13.1934 3.21913 13.6247C3.56414 14.056 4.19343 14.1259 4.6247 13.7809Z"/>
  <path d="M13 4C12.4477 4 12 4.44772 12 5V13C12 13.5523 12.4477 14 13 14C13.5523 14 14 13.5523 14 13V5C14 4.44772 13.5523 4 13 4Z"/>
</svg>