<?xml version="1.0" encoding="UTF-8" standalone="no"?>
<!-- Generator: Adobe Illustrator 19.0.1, SVG Export Plug-In . SVG Version: 6.00 Build 0)  -->

<svg
   xmlns:dc="http://purl.org/dc/elements/1.1/"
   xmlns:cc="http://creativecommons.org/ns#"
   xmlns:rdf="http://www.w3.org/1999/02/22-rdf-syntax-ns#"
   xmlns:svg="http://www.w3.org/2000/svg"
   xmlns="http://www.w3.org/2000/svg"
   xmlns:sodipodi="http://sodipodi.sourceforge.net/DTD/sodipodi-0.dtd"
   xmlns:inkscape="http://www.inkscape.org/namespaces/inkscape"
   version="1.1"
   id="Layer_1"
   x="0px"
   y="0px"
   viewBox="0 0 20 20"
   style="enable-background:new 0 0 20 20;"
   xml:space="preserve"
   inkscape:version="0.91 r13725"
   sodipodi:docname="fullscreen.svg"><metadata
     id="metadata4185"><rdf:RDF><cc:Work
         rdf:about=""><dc:format>image/svg+xml</dc:format><dc:type
           rdf:resource="http://purl.org/dc/dcmitype/StillImage" /><dc:title></dc:title></cc:Work></rdf:RDF></metadata><defs
     id="defs4183" /><sodipodi:namedview
     pagecolor="#ffffff"
     bordercolor="#666666"
     borderopacity="1"
     objecttolerance="10"
     gridtolerance="10"
     guidetolerance="10"
     inkscape:pageopacity="0"
     inkscape:pageshadow="2"
     inkscape:window-width="1471"
     inkscape:window-height="695"
     id="namedview4181"
     showgrid="false"
     inkscape:zoom="11.313708"
     inkscape:cx="14.69828"
     inkscape:cy="10.526689"
     inkscape:window-x="697"
     inkscape:window-y="298"
     inkscape:window-maximized="0"
     inkscape:current-layer="Layer_1"
     inkscape:snap-bbox="true"
     inkscape:bbox-paths="true"
     inkscape:object-paths="true"
     inkscape:bbox-nodes="true"
     inkscape:object-nodes="true"><inkscape:grid
       type="xygrid"
       id="grid6076" /></sodipodi:namedview><path
     d="M 5 4 C 4.5 4 4 4.5 4 5 L 4 6 L 4 9 L 4.5 9 L 5.7773438 7.296875 C 6.7771319 8.0602131 7.835765 8.9565728 8.890625 10 C 7.8257121 11.0633 6.7761791 11.951675 5.78125 12.707031 L 4.5 11 L 4 11 L 4 15 C 4 15.5 4.5 16 5 16 L 9 16 L 9 15.5 L 7.2734375 14.205078 C 8.0428931 13.187886 8.9395441 12.133481 9.9609375 11.068359 C 11.042371 12.14699 11.942093 13.2112 12.707031 14.21875 L 11 15.5 L 11 16 L 14 16 L 15 16 C 15.5 16 16 15.5 16 15 L 16 14 L 16 11 L 15.5 11 L 14.205078 12.726562 C 13.177985 11.949617 12.112718 11.043577 11.037109 10.009766 C 12.151856 8.981061 13.224345 8.0798624 14.228516 7.3046875 L 15.5 9 L 16 9 L 16 5 C 16 4.5 15.5 4 15 4 L 11 4 L 11 4.5 L 12.703125 5.7773438 C 11.932647 6.7864834 11.026693 7.8554712 9.9707031 8.9199219 C 8.9584739 7.8204943 8.0698767 6.7627188 7.3046875 5.7714844 L 9 4.5 L 9 4 L 6 4 L 5 4 z "
     id="path4169" /></svg>