<?xml version="1.0" encoding="UTF-8" standalone="yes"?>
<svg viewBox="0 0 18 18" xmlns="http://www.w3.org/2000/svg">
  <path d="M2 7C2 7.55229 2.44772 8 3 8C3.55228 8 4 7.55229 4 7L4 4L7 4C7.55228 4 8 3.55228 8 3C8 2.44772 7.55228 2 7 2H2V7Z"/>
  <path d="M16 7C16 7.55229 15.5523 8 15 8C14.4477 8 14 7.55229 14 7L14 4L11 4C10.4477 4 10 3.55228 10 3C10 2.44772 10.4477 2 11 2H16L16 7Z"/>
  <path d="M8 15C8 15.5523 7.55228 16 7 16H2V11C2 10.4477 2.44772 10 3 10C3.55228 10 4 10.4477 4 11V14H7C7.55228 14 8 14.4477 8 15Z"/>
  <path d="M11 16C10.4477 16 10 15.5523 10 15C10 14.4477 10.4477 14 11 14H14V11C14 10.4477 14.4477 10 15 10C15.5523 10 16 10.4477 16 11V16H11Z"/>
</svg>