<svg viewBox="0 0 18 18" xmlns="http://www.w3.org/2000/svg">
  <path fill-rule="evenodd" clip-rule="evenodd" d="M16 9C16 12.866 12.866 16 9 16C5.13401 16 2 12.866 2 9C2 5.13401 5.13401 2 9 2C12.866 2 16 5.13401 16 9ZM7 14.6586V12.9245C6.78439 12.97 6.53427 13 6.25 13C5.09126 13 4.12759 11.4999 4.12759 10.6864C4.10586 10.1776 4.67487 9.99688 4.9878 10.4807C4.99503 10.4919 5.00157 10.5032 5.00823 10.5146L5.01087 10.5192C5.09119 10.6573 5.60732 11.4999 6.25 11.4999C6.50308 11.4999 6.81921 11.4265 7.11289 11.3359C7.2274 11.0105 7.42369 10.7237 7.67709 10.5H7.5C6.11929 10.5 5 9.38071 5 8C5 7.32389 5.26839 6.71047 5.70444 6.26046C5.65869 5.63888 5.77778 5.11998 5.87746 4.81013C5.93927 4.61798 6.12754 4.50928 6.32486 4.55182C6.73897 4.64111 7.47623 4.87898 8.13037 5.5H9.73798C10.3921 4.87898 11.1294 4.64111 11.5435 4.55182C11.7408 4.50928 11.9291 4.61798 11.9909 4.81013C12.0841 5.09979 12.1942 5.57214 12.1708 6.14028C12.6799 6.59793 13 7.26158 13 8C13 9.38071 11.8807 10.5 10.5 10.5H10.3229C10.7381 10.8665 11 11.4027 11 12V14.6586C13.3304 13.8349 15 11.6124 15 9C15 5.68629 12.3137 3 9 3C5.68629 3 3 5.68629 3 9C3 11.6124 4.66962 13.8349 7 14.6586Z"/>
</svg>