<?xml version="1.0" encoding="UTF-8" standalone="yes"?>
<svg viewBox="0 0 18 18" xmlns="http://www.w3.org/2000/svg">
  <path fill-rule="evenodd" clip-rule="evenodd" d="M16 9C16 12.866 12.866 16 9 16C5.13401 16 2 12.866 2 9C2 5.13401 5.13401 2 9 2C12.866 2 16 5.13401 16 9ZM9 14.5L9 12.7462C9 12.3035 9.29097 11.9136 9.71526 11.7875L9.96966 11.712C10.7897 11.4684 10.9452 10.3744 10.2254 9.91202L9.05266 9.15865C8.89142 9.05507 8.70382 9 8.51218 9H7.41421C7.149 9 6.89464 8.89464 6.70711 8.70711L5.29289 7.29289C5.10536 7.10536 5 6.851 5 6.58579V5.22506C4.17285 6.10122 3.6304 7.24905 3.5206 8.5206L5.70711 10.7071C5.89464 10.8946 6 11.149 6 11.4142L6 13.6105C6.86278 14.1731 7.89321 14.5 9 14.5ZM13.4486 5.76522C14.1099 6.67302 14.5 7.79095 14.5 9H12.0198C11.4598 9 11.009 8.54026 11.02 7.98042L11.0237 7.78894C11.0305 7.44411 11.2144 7.1271 11.5105 6.95016L13.2784 5.89348C13.3409 5.85614 13.3978 5.81296 13.4486 5.76522Z"/>
</svg>