<?xml version="1.0" encoding="UTF-8" standalone="yes"?>
<svg viewBox="0 0 20 20">
  <path d="M10.4,4c-0.2,0-0.3,0-0.4,0C6.9,4,4.2,6.4,4,9.6c-0.2,3.3,2.3,6.2,5.6,6.4c0.1,0,0.3,0,0.4,0c3.1,0,5.8-2.4,6-5.6
	C16.2,7.1,13.7,4.2,10.4,4z M6.5,13.1c0-0.4-0.1-0.7-0.2-1.2c-0.2-0.5-0.4-0.6-0.5-1.1c-0.1-0.7,0.2-1,0.1-1.5
	C5.8,9.1,5.7,8.9,5.5,8.6c0.3-1,0.9-1.8,1.7-2.4C7.2,6.7,7.3,7.1,7.4,7.4C7.6,8,7.7,8,8.2,9c0.6,1.2,0.5,1.5,1.1,2.1
	c0.2,0.2,0.5,0.5,1,0.7c0.4,0.2,0.8,0.2,1.3,0.3c0.5,0.1,0.8,0,0.9,0c0.3,0,0.8-0.1,0.9-0.4c0,0,0.1-0.3,0-0.5c-0.3-0.4-1,0-1.6-0.4
	c-0.3-0.2-0.5-0.7-0.4-1c0.1-0.5,0.5-0.7,0.9-0.9c0.6-0.4,0.9-0.2,1.4-0.6C13.8,8,13.9,7.8,14,7.7c0.4,0.7,0.6,1.5,0.6,2.3
	c0,1.1-0.4,2-1,2.8c-0.2-0.2-0.3-0.2-0.3-0.2c-0.3-0.1-0.3,0.1-1.2,0.4c-0.6,0.2-0.9,0.1-1.1,0.4c-0.2,0.3-0.1,0.5-0.3,0.7
	c-0.3,0.4-1.1,0.1-1.5,0.4c-0.1,0-0.1,0.1-0.1,0.1C8.1,14.4,7.2,13.9,6.5,13.1z"/>
</svg>