<?xml version="1.0" encoding="UTF-8" standalone="yes"?>
<svg viewBox="0 0 18 18">
  <path d="M9.4,3C9.2,3,9.1,3,9,3C5.9,3,3.2,5.4,3,8.6c-0.2,3.3,2.3,6.2,5.6,6.4c0.1,0,0.3,0,0.4,0c3.1,0,5.8-2.4,6-5.6
	C15.2,6.1,12.7,3.2,9.4,3z M5.5,12.1c0-0.4-0.1-0.7-0.2-1.2c-0.2-0.5-0.4-0.6-0.5-1.1C4.7,9.1,5,8.8,4.9,8.3
	C4.8,8.1,4.7,7.9,4.5,7.6c0.3-1,0.9-1.8,1.7-2.4c0,0.5,0.1,0.9,0.2,1.2C6.6,7,6.7,7,7.2,8c0.6,1.2,0.5,1.5,1.1,2.1
	c0.2,0.2,0.5,0.5,1,0.7c0.4,0.2,0.8,0.2,1.3,0.3s0.8,0,0.9,0c0.3,0,0.8-0.1,0.9-0.4c0,0,0.1-0.3,0-0.5c-0.3-0.4-1,0-1.6-0.4
	c-0.3-0.2-0.5-0.7-0.4-1c0.1-0.5,0.5-0.7,0.9-0.9c0.6-0.4,0.9-0.2,1.4-0.6C12.8,7,12.9,6.8,13,6.7c0.4,0.7,0.6,1.5,0.6,2.3
	c0,1.1-0.4,2-1,2.8c-0.2-0.2-0.3-0.2-0.3-0.2C12,11.5,12,11.7,11.1,12c-0.6,0.2-0.9,0.1-1.1,0.4c-0.2,0.3-0.1,0.5-0.3,0.7
	c-0.3,0.4-1.1,0.1-1.5,0.4c-0.1,0-0.1,0.1-0.1,0.1C7.1,13.4,6.2,12.9,5.5,12.1z"/>
</svg>