<?xml version="1.0" encoding="utf-8"?>
<!-- Generator: Adobe Illustrator 18.1.0, SVG Export Plug-In . SVG Version: 6.00 Build 0)  -->
<!DOCTYPE svg PUBLIC "-//W3C//DTD SVG 1.1//EN" "http://www.w3.org/Graphics/SVG/1.1/DTD/svg11.dtd">
<svg version="1.1"
	 id="svg5738" xmlns:cc="http://creativecommons.org/ns#" xmlns:inkscape="http://www.inkscape.org/namespaces/inkscape" xmlns:svg="http://www.w3.org/2000/svg" xmlns:dc="http://purl.org/dc/elements/1.1/" xmlns:sodipodi="http://sodipodi.sourceforge.net/DTD/sodipodi-0.dtd" xmlns:rdf="http://www.w3.org/1999/02/22-rdf-syntax-ns#" inkscape:version="0.48.2 r9819" sodipodi:docname="menu.svg"
	 xmlns="http://www.w3.org/2000/svg" xmlns:xlink="http://www.w3.org/1999/xlink" x="0px" y="0px" viewBox="-489 291 20 20"
	 enable-background="new -489 291 20 20" xml:space="preserve">
<sodipodi:namedview  showgrid="true" pagecolor="#ffffff" inkscape:cy="9.9083267" borderopacity="1.0" bordercolor="#666666" inkscape:zoom="22.627417" inkscape:cx="11.811222" id="base" inkscape:pageopacity="0.0" inkscape:pageshadow="2" inkscape:document-units="px" inkscape:current-layer="layer1" inkscape:window-width="1280" inkscape:window-height="756" inkscape:window-x="20" inkscape:window-y="20" inkscape:window-maximized="0">
	<inkscape:grid  type="xygrid" visible="true" empspacing="5" id="grid5746" enabled="true" snapvisiblegridlinesonly="true">
		</inkscape:grid>
</sodipodi:namedview>
<path d="M-481,300h-3c-0.6,0-1-0.4-1-1v-3c0-0.6,0.4-1,1-1h3c0.6,0,1,0.4,1,1v3C-480,299.6-480.4,300-481,300z"/>
<path d="M-474,300h-3c-0.6,0-1-0.4-1-1v-3c0-0.6,0.4-1,1-1h3c0.6,0,1,0.4,1,1v3C-473,299.6-473.5,300-474,300z"/>
<path d="M-481,307h-3c-0.6,0-1-0.4-1-1v-3c0-0.6,0.4-1,1-1h3c0.6,0,1,0.4,1,1v3C-480,306.6-480.4,307-481,307z"/>
<path d="M-474,307h-3c-0.6,0-1-0.4-1-1v-3c0-0.6,0.4-1,1-1h3c0.6,0,1,0.4,1,1v3C-473,306.6-473.5,307-474,307z"/>
</svg>
