<?xml version="1.0" encoding="UTF-8" standalone="yes"?>
<svg viewBox="0 0 18 18" xmlns="http://www.w3.org/2000/svg">
  <path d="M4 3H7C7.6 3 8 3.4 8 4V7C8 7.6 7.6 8 7 8H4C3.4 8 3 7.6 3 7V4C3 3.4 3.4 3 4 3Z"/>
  <path d="M11 3H14C14.6 3 15 3.4 15 4V7C15 7.6 14.5 8 14 8H11C10.4 8 10 7.6 10 7V4C10 3.4 10.4 3 11 3Z"/>
  <path d="M7 10H4C3.4 10 3 10.4 3 11V14C3 14.6 3.4 15 4 15H7C7.6 15 8 14.6 8 14V11C8 10.4 7.6 10 7 10Z"/>
  <path d="M11 10H14C14.6 10 15 10.4 15 11V14C15 14.6 14.5 15 14 15H11C10.4 15 10 14.6 10 14V11C10 10.4 10.4 10 11 10Z"/>
</svg>