<?xml version="1.0" encoding="UTF-8" standalone="yes"?>
<svg viewBox="0 0 18 18">
  <g>
    <path d="M7.7,3c0,1,0,4,0,4s0,0.5-0.5,0.5S6.7,7.2,6.7,7c-0.3-1-0.9-2.4-1-3C5.5,3,5,3,4.7,3c-1,0-1,1-1,1l1,4v3
		c0,0-0.5-0.5-1.5-1.5C2.6,8.9,1.9,8.8,1.5,9c-0.4,0.3-0.7,0.9-0.3,1.5C1.5,11.1,4.7,15,4.7,15c1,1,2,1,4,1c2.7,0,1,0,3,0
		s2.3-2.9,3-5c1-3,1.5-5,1.5-5c0.1-0.4,0-0.8-0.5-1c-0.9-0.3-1.4,0.4-1.5,1c-0.2,1.2-0.5,2-0.5,2c-0.1,0.3,0,0.5-0.5,0.5
		S12.7,8,12.7,8s0-2.7,0-4c0-1-1-1-1-1s-1,0-1,1s0,1.7,0,3c0,0,0,0.5-0.5,0.5S9.7,7,9.7,7s0-3,0-4s-1-1-1-1S7.7,2,7.7,3z"/>
  </g>
</svg>