<?xml version="1.0" encoding="UTF-8" standalone="yes"?>
<svg viewBox="0 0 18 18" xmlns="http://www.w3.org/2000/svg">
  <path d="M10.24 3C10.24 2.44772 9.79228 2 9.24 2C8.68772 2 8.24 2.44772 8.24 3V7H7.6284L6.85239 3.76663C6.7235 3.22959 6.18366 2.89872 5.64663 3.02761C5.10959 3.1565 4.77872 3.69634 4.90761 4.23337L5.84 8.11832V10.2355L3.67363 8.26093C3.29074 7.91194 2.7047 7.91317 2.32328 8.26376C1.94185 8.61436 1.89135 9.19821 2.2069 9.6091L6.0469 14.6091C6.23618 14.8555 6.52926 15 6.84 15H11.64C12.0246 15 12.3751 14.7794 12.5415 14.4327L15.9015 7.43273C16.1405 6.93483 15.9306 6.33747 15.4327 6.09848C14.9348 5.85949 14.3375 6.06937 14.0985 6.56727L13.2826 8.26705L12.74 7.70182L13.5724 4.23337C13.7013 3.69634 13.3704 3.1565 12.8334 3.02761C12.2963 2.89872 11.7565 3.22959 11.6276 3.76663L10.8516 7H10.24V3Z"/>
</svg>