<?xml version="1.0" encoding="UTF-8" standalone="yes"?>
<svg viewBox="0 0 20 20">
  <g>
    <path d="M8.7,4c0,1,0,4,0,4s0,0.5-0.5,0.5S7.7,8.2,7.7,8c-0.3-1-0.9-2.4-1-3C6.5,4,6,4,5.7,4c-1,0-1,1-1,1l1,4v3
		c0,0-0.5-0.5-1.5-1.5C3.6,9.9,2.9,9.8,2.5,10c-0.4,0.3-0.7,0.9-0.3,1.5C2.5,12.1,5.7,16,5.7,16c1,1,2,1,4,1c2.7,0,1,0,3,0
		s2.3-2.9,3-5c1-3,1.5-5,1.5-5c0.1-0.4,0-0.8-0.5-1c-0.9-0.3-1.4,0.4-1.5,1c-0.2,1.2-0.5,2-0.5,2c-0.1,0.3,0,0.5-0.5,0.5
		c-0.5,0-0.5-0.5-0.5-0.5s0-2.7,0-4c0-1-1-1-1-1s-1,0-1,1s0,1.7,0,3c0,0,0,0.5-0.5,0.5c-0.5,0-0.5-0.5-0.5-0.5s0-3,0-4s-1-1-1-1
		S8.7,3,8.7,4z"/>
  </g>
</svg>