<?xml version="1.0" encoding="UTF-8" standalone="yes"?>
<svg viewBox="0 0 18 18" xmlns="http://www.w3.org/2000/svg">
  <path d="M14.75 10H3.25L4.81063 3.75746C4.92193 3.3123 5.32191 3 5.78078 3H12.2192C12.6781 3 13.0781 3.3123 13.1894 3.75746L14.75 10Z"/>
  <path fill-rule="evenodd" clip-rule="evenodd" d="M3 14C3 13.0214 3.00761 11 3.00761 11H14.9924C15.0739 11.6568 15.0486 12.3499 15.0237 13.0325C15.0118 13.3591 15 13.6833 15 14C15 14.5523 14.5523 15 14 15H4C3.44771 15 3 14.5523 3 14ZM6 14C6.55228 14 7 13.5523 7 13C7 12.4477 6.55228 12 6 12C5.44772 12 5 12.4477 5 13C5 13.5523 5.44772 14 6 14Z"/>
</svg>