<?xml version="1.0" encoding="UTF-8" standalone="yes"?>
<svg viewBox="0 0 18 18" xmlns="http://www.w3.org/2000/svg">
  <path d="M8 3C7.5 3 7.1 3.4 7 3.8L6.6 6H5C4.4 6 4 6.4 4 7C4 7.6 4.4 8 5 8H6.2L5.8 10H4C3.4 10 3 10.4 3 11C3 11.6 3.4 12 4 12H5.4L5 13.8C4.7 15.1 6.7 15.5 7 14.2L7.4 12H9.4L9 13.8C8.7 15.1 10.7 15.5 11 14.2L11.4 12H13C13.6 12 14 11.6 14 11C14 10.4 13.6 10 13 10H11.8L12.2 8H14C14.6 8 15 7.6 15 7C15 6.4 14.6 6 14 6H12.6L13 4.2C13.1 3.6 12.6 3 12 3C11.5 3 11.1 3.3 11 3.8L10.6 6H8.6L9 4.2C9.1 3.6 8.6 3 8 3ZM8.2 8H10.2L9.8 10H7.8L8.2 8Z"/>
</svg>