<?xml version="1.0" encoding="UTF-8" standalone="yes"?>
<svg viewBox="0 0 20 20">
  <path d="M10,3c-3.9,0-7,3.1-7,7s3.1,7,7,7s7-3.1,7-7S13.9,3,10,3z M10.1,6c0.8,0,1.5,0.2,1.9,0.6c0.5,0.4,0.7,0.9,0.7,1.6
	c0,0.4-0.1,0.8-0.3,1.1c-0.2,0.3-0.6,0.7-1.1,1.1c-0.4,0.3-0.6,0.5-0.7,0.7c0,0-1.1,0-1.6,0c0,0,0-0.3,0.1-0.6
	c0.2-0.3,0.4-0.6,0.9-0.9c0.4-0.3,0.7-0.5,0.8-0.7C10.9,8.7,11,8.5,11,8.2c0-0.3-0.1-0.5-0.3-0.6c-0.2-0.1-0.4-0.2-0.8-0.2
	c-0.6,0-1.2,0.2-2,0.6L7.3,6.8C8.2,6.3,9.1,6,10.1,6z M10,12c0.3,0,0.6,0.1,0.8,0.2c0.2,0.2,0.3,0.4,0.3,0.8c0,0.3-0.1,0.5-0.3,0.7
	C10.6,13.9,10.3,14,10,14c-0.3,0-0.6-0.1-0.8-0.2C9.1,13.6,9,13.3,9,13c0-0.3,0.1-0.6,0.3-0.8C9.4,12.1,9.7,12,10,12z"/>
</svg>