<?xml version="1.0" encoding="UTF-8" standalone="yes"?>
<svg viewBox="0 0 18 18">
  <g>
    <path d="M8,8H3C2,8,2,9.1,2,9.1v0.8C2,11,3,11,3,11h5c0,0,1,0,1-1.1V9C9,8,8,8,8,8z"/>
    <path d="M8,8H3C2,8,2,9.1,2,9.1v0.8C2,11,3,11,3,11h5c0,0,1,0,1-1.1V9C9,8,8,8,8,8z"/>
  </g>
  <g>
    <path d="M14.2,5.5l0.7-0.7C15.2,4.6,15,4,14.5,4h-3C11.2,4,11,4.2,11,4.5v3c0,0.2,0.1,0.4,0.3,0.5s0.4,0,0.5-0.1L12.7,7
		c0.1,0,0.1,0.1,0.2,0.1C13.5,7.6,14,8.2,14,9.2c0,1.1-0.5,1.7-1.1,2.2S11.7,12,11.7,12c-1.1,0.3-0.9,1.9,0.2,2l0,0H12
		c0.1,0,0.2,0,0.3-0.1c0,0,0.9-0.3,1.8-1c0.9-0.7,1.9-2,1.9-3.7S15,6.3,14.2,5.5z"/>
    <path d="M14.2,5.5l0.7-0.7C15.2,4.6,15,4,14.5,4h-3C11.2,4,11,4.2,11,4.5v3c0,0.2,0.1,0.4,0.3,0.5s0.4,0,0.5-0.1L12.7,7
		c0.1,0,0.1,0.1,0.2,0.1C13.5,7.6,14,8.2,14,9.2c0,1.1-0.5,1.7-1.1,2.2S11.7,12,11.7,12c-1.1,0.3-0.9,1.9,0.2,2l0,0H12
		c0.1,0,0.2,0,0.3-0.1c0,0,0.9-0.3,1.8-1c0.9-0.7,1.9-2,1.9-3.7S15,6.3,14.2,5.5z"/>
  </g>
  <g>
    <path d="M8,12H3c-1,0-1,1.1-1,1.1v0.8C2,15,3,15,3,15h5c0,0,1,0,1-1.1V13C9,12,8,12,8,12z"/>
    <path d="M8,12H3c-1,0-1,1.1-1,1.1v0.8C2,15,3,15,3,15h5c0,0,1,0,1-1.1V13C9,12,8,12,8,12z"/>
  </g>
  <g>
    <path d="M8,4H3C2,4,2,5.1,2,5.1v0.8C2,7,3,7,3,7h5c0,0,1,0,1-1.1V5C9,4,8,4,8,4z"/>
    <path d="M8,4H3C2,4,2,5.1,2,5.1v0.8C2,7,3,7,3,7h5c0,0,1,0,1-1.1V5C9,4,8,4,8,4z"/>
  </g>
</svg>