<?xml version="1.0" encoding="UTF-8" standalone="yes"?>
<svg viewBox="0 0 20 20">
  <g>
    <path d="M9,9H4c-1,0-1,1.1-1,1.1v0.8C3,12,4,12,4,12h5c0,0,1,0,1-1.1V10C10,9,9,9,9,9z"/>
    <path d="M9,9H4c-1,0-1,1.1-1,1.1v0.8C3,12,4,12,4,12h5c0,0,1,0,1-1.1V10C10,9,9,9,9,9z"/>
  </g>
  <g>
    <path d="M15.2,6.5l0.7-0.7C16.2,5.6,16,5,15.5,5h-3C12.2,5,12,5.2,12,5.5v3c0,0.2,0.1,0.4,0.3,0.5c0.2,0.1,0.4,0,0.5-0.1L13.7,8
		c0.1,0,0.1,0.1,0.2,0.1c0.6,0.5,1.1,1.1,1.1,2.1c0,1.1-0.5,1.7-1.1,2.2S12.7,13,12.7,13c-1.1,0.3-0.9,1.9,0.2,2l0,0H13
		c0.1,0,0.2,0,0.3-0.1c0,0,0.9-0.3,1.8-1c0.9-0.7,1.9-2,1.9-3.7C17,8.5,16,7.3,15.2,6.5z"/>
    <path d="M15.2,6.5l0.7-0.7C16.2,5.6,16,5,15.5,5h-3C12.2,5,12,5.2,12,5.5v3c0,0.2,0.1,0.4,0.3,0.5c0.2,0.1,0.4,0,0.5-0.1L13.7,8
		c0.1,0,0.1,0.1,0.2,0.1c0.6,0.5,1.1,1.1,1.1,2.1c0,1.1-0.5,1.7-1.1,2.2S12.7,13,12.7,13c-1.1,0.3-0.9,1.9,0.2,2l0,0H13
		c0.1,0,0.2,0,0.3-0.1c0,0,0.9-0.3,1.8-1c0.9-0.7,1.9-2,1.9-3.7C17,8.5,16,7.3,15.2,6.5z"/>
  </g>
  <g>
    <path d="M9,13H4c-1,0-1,1.1-1,1.1v0.8C3,16,4,16,4,16h5c0,0,1,0,1-1.1V14C10,13,9,13,9,13z"/>
    <path d="M9,13H4c-1,0-1,1.1-1,1.1v0.8C3,16,4,16,4,16h5c0,0,1,0,1-1.1V14C10,13,9,13,9,13z"/>
  </g>
  <g>
    <path d="M9,5H4C3,5,3,6.1,3,6.1v0.8C3,8,4,8,4,8h5c0,0,1,0,1-1.1V6C10,5,9,5,9,5z"/>
    <path d="M9,5H4C3,5,3,6.1,3,6.1v0.8C3,8,4,8,4,8h5c0,0,1,0,1-1.1V6C10,5,9,5,9,5z"/>
  </g>
</svg>