<?xml version="1.0" encoding="UTF-8" standalone="yes"?>
<svg viewBox="0 0 18 18" xmlns="http://www.w3.org/2000/svg">
  <path d="M12 8V6C13.1046 6 14 6.89543 14 8V10C14 11.1046 13.1046 12 12 12H11.3429C10.7906 12 10.3429 12.4477 10.3429 13C10.3429 13.5523 10.7906 14 11.3429 14H12C14.2091 14 16 12.2091 16 10V8C16 5.79086 14.2091 4 12 4V2L7.5 5L12 8Z"/>
  <path d="M3 4C2.44772 4 2 4.44772 2 5C2 5.55228 2.44772 6 3 6H6C6.55228 6 7 5.55228 7 5C7 4.44772 6.55228 4 6 4H3Z"/>
  <path d="M2 9C2 8.44772 2.44772 8 3 8H8C8.55228 8 9 8.44772 9 9C9 9.55228 8.55228 10 8 10H3C2.44772 10 2 9.55228 2 9Z"/>
  <path d="M3 12C2.44772 12 2 12.4477 2 13C2 13.5523 2.44772 14 3 14H8C8.55228 14 9 13.5523 9 13C9 12.4477 8.55228 12 8 12H3Z"/>
</svg>