<?xml version="1.0" encoding="UTF-8" standalone="yes"?>
<svg viewBox="0 0 18 18" xmlns="http://www.w3.org/2000/svg">
  <path d="M8 5C8 4.44772 8.44772 4 9 4C9.55228 4 10 4.44772 10 5V7.10101C10.312 7.1647 10.6179 7.25818 10.9134 7.38062C11.209 7.50302 11.4914 7.65323 11.757 7.8288L13.2426 6.34314C13.6331 5.95264 14.2663 5.95264 14.6569 6.34314C15.0474 6.73367 15.0474 7.36685 14.6569 7.75735L13.1712 9.24301C13.3468 9.50861 13.497 9.79102 13.6194 10.0866C13.7418 10.3821 13.8353 10.688 13.899 11H16C16.5523 11 17 11.4477 17 12C17 12.5523 16.5523 13 16 13H2C1.44772 13 1 12.5523 1 12C1 11.4477 1.44772 11 2 11H4.10101C4.1647 10.688 4.25818 10.3821 4.38062 10.0866C4.50302 9.79102 4.65323 9.50864 4.82877 9.24301L3.34314 7.75735C2.95261 7.36685 2.95261 6.73367 3.34314 6.34317C3.73364 5.95264 4.36682 5.95264 4.75732 6.34317L6.24298 7.8288C6.50861 7.65323 6.79102 7.50302 7.08658 7.38062C7.38214 7.25818 7.68805 7.1647 8 7.10101V5Z"/>
</svg>