<?xml version="1.0" encoding="UTF-8" standalone="yes"?>
<svg viewBox="0 0 18 18">
  <path d="M9 4C8.44772 4 8 4.44772 8 5V7.10101C7.68805 7.1647 7.38214 7.25818 7.08658 7.38062C6.79102 7.50302 6.50861 7.65323 6.24298 7.8288L4.75732 6.34317C4.36682 5.95264 3.73364 5.95264 3.34314 6.34317C2.95261 6.73367 2.95261 7.36685 3.34314 7.75735L4.82877 9.24301C4.65323 9.50864 4.50302 9.79102 4.38062 10.0866C4.25818 10.3821 4.1647 10.688 4.10101 11H2.5C2.22385 11 2 11.2238 2 11.5C2 11.7762 2.22385 12 2.5 12H15.5C15.7762 12 16 11.7762 16 11.5C16 11.2238 15.7762 11 15.5 11H13.899C13.8353 10.688 13.7418 10.3821 13.6194 10.0866C13.497 9.79102 13.3468 9.50861 13.1712 9.24301L14.6569 7.75735C15.0474 7.36685 15.0474 6.73367 14.6569 6.34314C14.2663 5.95264 13.6331 5.95264 13.2426 6.34314L11.757 7.8288C11.4914 7.65323 11.209 7.50302 10.9134 7.38062C10.6179 7.25818 10.312 7.1647 10 7.10101V5C10 4.44772 9.55228 4 9 4Z" />
</svg>
