<?xml version="1.0" encoding="utf-8"?>
<!-- Generator: Adobe Illustrator 19.0.1, SVG Export Plug-In . SVG Version: 6.00 Build 0)  -->
<svg version="1.1" id="Layer_1" xmlns="http://www.w3.org/2000/svg" xmlns:xlink="http://www.w3.org/1999/xlink" x="0px" y="0px"
	 viewBox="310 -310 640 640" style="enable-background:new 310 -310 640 640;" xml:space="preserve">
<path d="M633.2,243.6L633.2,243.6c-22.4,0-41.6-9.6-54.4-25.6c-54.4-70.4-128-169.6-128-240c0-92.8,86.4-176,179.2-176
	s179.2,83.2,179.2,176c0,70.4-73.6,169.6-128,240C671.6,234,652.4,243.6,633.2,243.6z M633.2-166C556.4-166,486-95.6,486-22
	c0,67.2,89.6,182.4,118.4,220.8c6.4,9.6,16,12.8,28.8,12.8l0,0c9.6,0,22.4-6.4,28.8-12.8C690.8,160.4,780.4,45.2,780.4-22
	C780.4-95.6,710-166,633.2-166z"/>
<path d="M730.8-22c0,38.4-44.8,99.2-76.8,140.8c-12.8,16-38.4,16-48,0C574,77.2,529.2,16.4,529.2-22c0-51.2,51.2-96,99.2-96
	S730.8-73.2,730.8-22L730.8-22z"/>
</svg>
