<?xml version="1.0" encoding="UTF-8" standalone="yes"?>
<svg viewBox="0 0 18 18" xmlns="http://www.w3.org/2000/svg">
  <path d="M2.10769 5.03847L6.80769 3.08013C6.93077 3.02885 7.06923 3.02885 7.19231 3.08013L11.8923 5.03847C12.3026 5.20941 12.3026 5.7906 11.8923 5.96154L7.19231 7.91988C7.06923 7.97116 6.93077 7.97116 6.80769 7.91988L2.10769 5.96154C1.69744 5.7906 1.69744 5.20941 2.10769 5.03847Z"/>
  <path d="M7.19231 9.41988C7.63392 9.23587 8.15134 9.80557 8.06532 10.2762C8.03305 10.4527 7.91937 10.6169 7.7537 10.686L7.19231 10.9199C7.06923 10.9712 6.93077 10.9712 6.80769 10.9199L2.10769 8.96154C1.69744 8.7906 1.69744 8.20941 2.10769 8.03847L2.41538 7.91026C2.66154 7.8077 2.93846 7.8077 3.18461 7.91026L6.80769 9.41988C6.93077 9.47116 7.06923 9.47116 7.19231 9.41988Z"/>
  <path d="M7.51603 12.285C7.84252 12.149 8.21304 12.3393 8.36007 12.6609C8.51482 12.9995 8.39159 13.4202 8.04797 13.5634L7.19231 13.9199C7.06923 13.9712 6.93077 13.9712 6.80769 13.9199L2.10769 11.9615C1.69744 11.7906 1.69744 11.2094 2.10769 11.0385L2.41538 10.9103C2.66154 10.8077 2.93846 10.8077 3.18461 10.9103L6.80769 12.4199C6.93077 12.4712 7.06923 12.4712 7.19231 12.4199L7.51603 12.285Z"/>
  <path d="M12 8.00001C10.4 8.00001 9 9.40001 9 11C9 12.6 10.4 14 12 14C12.5 14 12.9 13.9 13.2 13.7L15.2 15.7C15.4 15.9 15.6 16 15.9 16C16.5 16 16.9 15.6 16.9 15C16.9 14.7 16.8 14.5 16.6 14.3L14.6 12.3C14.8 11.9 14.9 11.5 14.9 11.1C15 9.40001 13.6 8.00001 12 8.00001ZM12 9.50001C12.8 9.50001 13.5 10.2 13.5 11C13.5 11.8 12.8 12.5 12 12.5C11.2 12.5 10.5 11.8 10.5 11C10.5 10.2 11.2 9.50001 12 9.50001Z"/>
</svg>