<?xml version="1.0" encoding="UTF-8" standalone="yes"?>
<svg viewBox="0 0 18 18">
  <g>
    <path d="M 9 2 C 7.0988005 2 6.8600344 2.0001207 6.1152344 2.0449219 A 5.1379989 5.1380001 0 0 0 4.4160156 2.3691406 A 3.4299994 3.43 0 0 0 3.1757812 3.1757812 A 3.4327993 3.4328 0 0 0 2.3671875 4.4140625 A 5.1379989 5.1380001 0 0 0 2.0429688 6.1132812 C 2.0009687 6.8608811 2 7.0988 2 9 C 2 10.901201 2.0009685 11.139119 2.0429688 11.886719 A 5.1379989 5.1380001 0 0 0 2.3671875 13.585938 A 3.4299994 3.43 0 0 0 3.1757812 14.824219 A 3.4299994 3.43 0 0 0 4.4140625 15.632812 A 5.1379989 5.1380001 0 0 0 6.1132812 15.957031 C 6.860881 15.999021 7.0988005 16 9 16 C 10.9012 16 11.139119 15.999012 11.886719 15.957031 C 12.467542 15.945601 13.04184 15.836385 13.585938 15.632812 C 14.526018 15.269258 15.269257 14.526019 15.632812 13.585938 C 15.836385 13.04184 15.945627 12.46754 15.957031 11.886719 C 15.99902 11.139119 16 10.901201 16 9 C 16 7.0988 15.999035 6.8608811 15.957031 6.1132812 A 5.1379989 5.1380001 0 0 0 15.632812 4.4140625 A 3.5783993 3.5784001 0 0 0 13.585938 2.3671875 A 5.1379989 5.1380001 0 0 0 11.886719 2.0429688 C 11.139119 2.0009687 10.9012 2 9 2 z M 13 4 A 0.9999997 0.9999997 0 0 1 14 5 A 0.9999997 0.9999997 0 0 1 13 6 A 0.9999997 0.9999997 0 0 1 12 5 A 0.9999997 0.9999997 0 0 1 13 4 z M 9 5.5 C 10.924113 5.5 12.5 7.0758871 12.5 9 C 12.5 10.924113 10.924113 12.5 9 12.5 C 7.0758869 12.5 5.5 10.924113 5.5 9 C 5.5 7.0758871 7.0758869 5.5 9 5.5 z M 9 7 C 7.886547 7 7 7.8865473 7 9 C 7 10.113453 7.886547 11 9 11 C 10.113453 11 11 10.113453 11 9 C 11 7.8865473 10.113453 7 9 7 z "/>
  </g>
</svg>