<?xml version="1.0" encoding="UTF-8" standalone="yes"?>
<svg viewBox="0 0 18 18" xmlns="http://www.w3.org/2000/svg">
  <path d="M3.4,9.2C3.5,8.1,3.8,6.9,4.9,6c0.9-0.7,1.8-0.8,2.9-0.5c1.4,0.5,1,0.5,2.4,0c1.5-0.6,3,0,3.7,0.8&#xA;  c0.1,0.2,0.2,0.3,0,0.4c-1.8,1.3-1.6,3.9,0.3,5c0.2,0.1,0.3,0.2,0.2,0.4c-0.4,1-1,1.9-1.7,2.7c-0.5,0.5-1.1,0.7-1.8,0.4&#xA;  c-0.1,0-0.3-0.1-0.4-0.1C9.6,15,8.8,15,8,15.3c-0.3,0.1-0.5,0.2-0.8,0.3c-0.4,0.1-0.8-0.1-1.1-0.4c-0.7-0.5-1.1-1.2-1.5-1.9&#xA;  C3.9,12.2,3.4,10.6,3.4,9.2"/>
  <path d="M11.6,2.5c0,1.2-1,2.4-2,2.7C9,5.3,8.8,5.2,8.9,4.6c0.2-1.2,1.2-2.2,2.5-2.5c0.2,0,0.2,0,0.2,0.2&#xA;  C11.6,2.3,11.6,2.4,11.6,2.5"/>
</svg>