<?xml version="1.0" encoding="UTF-8" standalone="yes"?>
<svg viewBox="0 0 18 18">
  <path d="M12.1,4.1c-0.8,0.1-1.5,0.4-2,0.9c-0.5,0.5-0.8,1.2-0.8,2c0,1.2,0.5,2,1.6,2.7c0.3,0.2,0.7,0.4,1.3,0.6
	c0.9,0.4,1.2,0.6,1.5,0.8c0.3,0.3,0.3,0.7,0.2,1.1c0,0.1-0.1,0.2-0.2,0.3c-0.3,0.3-0.7,0.4-1.2,0.4c-0.8,0-1.5-0.3-2-1.1
	c-0.1-0.1-0.1-0.2-0.1-0.2c0,0-1.7,0.9-1.7,1c0,0,0,0.1,0.1,0.2c0.7,1.1,1.7,1.7,3.1,1.9c0.4,0,1,0,1.4,0c0.9-0.1,1.5-0.4,2-0.9
	c0.5-0.5,0.8-1.2,0.8-2c0-0.5-0.1-1-0.3-1.4c-0.1-0.3-0.3-0.5-0.5-0.7c-0.5-0.5-1-0.8-2.2-1.3c-0.9-0.4-1.2-0.5-1.4-0.8
	c-0.2-0.2-0.3-0.4-0.3-0.7c0-0.2,0.1-0.4,0.2-0.5c0.2-0.2,0.4-0.3,0.8-0.3c0.4,0,0.7,0.1,1,0.4c0.1,0.1,0.2,0.2,0.3,0.3
	c0.1,0.1,0.1,0.2,0.1,0.2c0.1,0,1.6-1,1.6-1.1c0,0-0.1-0.1-0.2-0.3c-0.2-0.3-0.6-0.7-0.8-0.9c-0.5-0.3-1-0.5-1.7-0.5
	C12.5,4.1,12.4,4.1,12.1,4.1"/>
  <path d="M5.4,8l0,3.8l0,0.2c-0.1,0.2-0.1,0.4-0.3,0.5c-0.2,0.2-0.4,0.3-0.8,0.3c-0.6,0-0.9-0.2-1.3-0.9
	c-0.1-0.1-0.1-0.2-0.1-0.2c0,0-0.4,0.2-0.9,0.5l-0.9,0.5l0.1,0.1c0.4,0.8,1.1,1.3,1.9,1.6c0.9,0.3,2,0.3,2.8-0.1
	c1-0.4,1.5-1.2,1.7-2.4c0-0.1,0-1.5,0-4V4.2H6.4H5.4L5.4,8z"/>
</svg>