<?xml version="1.0" encoding="UTF-8" standalone="yes"?>
<svg viewBox="0 0 18 18" xmlns="http://www.w3.org/2000/svg">
  <path d="M9.22361 2.1118C9.08284 2.04142 8.91716 2.04142 8.77639 2.1118L2.89443 5.05278C2.5259 5.23705 2.5259 5.76295 2.89443 5.94721L8.77639 8.88819C8.91716 8.95857 9.08284 8.95857 9.22361 8.88819L15.1056 5.94721C15.4741 5.76295 15.4741 5.23704 15.1056 5.05278L9.22361 2.1118Z"/>
  <path d="M4.19721 8.3486C3.91569 8.20784 3.58431 8.20784 3.30279 8.3486L2.89443 8.55278C2.5259 8.73705 2.5259 9.26295 2.89443 9.44721L8.77639 12.3882C8.91716 12.4586 9.08284 12.4586 9.22361 12.3882L15.1056 9.44721C15.4741 9.26295 15.4741 8.73704 15.1056 8.55278L14.6972 8.3486C14.4157 8.20784 14.0843 8.20784 13.8028 8.3486L9.44721 10.5264C9.16569 10.6672 8.83431 10.6672 8.55279 10.5264L4.19721 8.3486Z"/>
  <path d="M4.19721 11.8486C3.91569 11.7078 3.58431 11.7078 3.30279 11.8486L2.89443 12.0528C2.5259 12.237 2.5259 12.7629 2.89443 12.9472L8.77639 15.8882C8.91716 15.9586 9.08284 15.9586 9.22361 15.8882L15.1056 12.9472C15.4741 12.7629 15.4741 12.237 15.1056 12.0528L14.6972 11.8486C14.4157 11.7078 14.0843 11.7078 13.8028 11.8486L9.44721 14.0264C9.16569 14.1672 8.83431 14.1672 8.55279 14.0264L4.19721 11.8486Z"/>
</svg>