<?xml version="1.0" encoding="UTF-8" standalone="yes"?>
<svg viewBox="0 0 18 18" xmlns="http://www.w3.org/2000/svg">
  <path fill-rule="evenodd" clip-rule="evenodd" d="M1.5 3.25C1.5 2.2835 2.2835 1.5 3.25 1.5C3.9481 1.5 4.55073 1.90876 4.83159 2.5H7.66841C7.94927 1.90876 8.5519 1.5 9.25 1.5C10.2165 1.5 11 2.2835 11 3.25C11 3.9481 10.5912 4.55073 10 4.83159V7.66841C10.5912 7.94927 11 8.5519 11 9.25C11 10.2165 10.2165 11 9.25 11C8.5519 11 7.94927 10.5912 7.66841 10H4.83159C4.55073 10.5912 3.9481 11 3.25 11C2.2835 11 1.5 10.2165 1.5 9.25C1.5 8.5519 1.90876 7.94927 2.5 7.66841V4.83159C1.90876 4.55073 1.5 3.9481 1.5 3.25ZM7.75 4H4.75L4 4.75V7.75L4.75 8.5H7.75L8.5 7.75V4.75L7.75 4Z"/>
  <path d="M8.75 12.75C7.64543 12.75 6.75 13.6454 6.75 14.75C6.75 15.8546 7.64543 16.75 8.75 16.75C9.8546 16.75 10.75 15.8546 10.75 14.75C10.75 14.504 10.7056 14.2683 10.6243 14.0506L13.7997 11.5102C14.0824 11.6632 14.406 11.75 14.75 11.75C15.8546 11.75 16.75 10.8546 16.75 9.75C16.75 8.64543 15.8546 7.75 14.75 7.75C13.6454 7.75 12.75 8.64543 12.75 9.75C12.75 9.996 12.7944 10.2317 12.8757 10.4494L9.7003 12.9898C9.41763 12.8368 9.09396 12.75 8.75 12.75Z"/>
</svg>