<?xml version="1.0" encoding="UTF-8" standalone="yes"?>
<svg viewBox="0 0 18 18" xmlns="http://www.w3.org/2000/svg">
  <path d="M14.5607 5.56066C15.1464 4.97487 15.1464 4.02513 14.5607 3.43934C13.9749 2.85355 13.0251 2.85355 12.4393 3.43934L10.1762 5.70253C9.80857 5.5714 9.41262 5.5 9 5.5C7.067 5.5 5.5 7.067 5.5 9C5.5 9.41262 5.5714 9.80857 5.70253 10.1762L3.43934 12.4393C2.85355 13.0251 2.85355 13.9749 3.43934 14.5607C4.02513 15.1464 4.97487 15.1464 5.56066 14.5607L7.82385 12.2975C8.19143 12.4286 8.58738 12.5 9 12.5C10.933 12.5 12.5 10.933 12.5 9C12.5 8.58738 12.4286 8.19143 12.2975 7.82385L14.5607 5.56066Z"/>
</svg>