<?xml version="1.0" encoding="UTF-8" standalone="yes"?>
<svg viewBox="0 0 18 18">
  <g>
    <path d="M3.75 2C2.7835 2 2 2.7835 2 3.75C2 4.4481 2.40876 5.05073 3 5.33159V8.16841C2.40876 8.44927 2 9.0519 2 9.75C2 10.7165 2.7835 11.5 3.75 11.5C4.4481 11.5 5.05073 11.0912 5.33159 10.5H8.16841C8.44927 11.0912 9.0519 11.5 9.75 11.5C10.7165 11.5 11.5 10.7165 11.5 9.75C11.5 9.0519 11.0912 8.44927 10.5 8.16841V5.33159C11.0912 5.05073 11.5 4.4481 11.5 3.75C11.5 2.7835 10.7165 2 9.75 2C9.0519 2 8.44927 2.40876 8.16841 3H5.33159C5.05073 2.40876 4.4481 2 3.75 2ZM5.25 4.5H8.25L9 5.25V8.25L8.25 9H5.25L4.5 8.25V5.25L5.25 4.5Z"/>
    <path d="M7.25 15.25C7.25 14.1454 8.14543 13.25 9.25 13.25C9.59396 13.25 9.91763 13.3368 10.2003 13.4898L13.3757 10.9494C13.2944 10.7317 13.25 10.496 13.25 10.25C13.25 9.14543 14.1454 8.25 15.25 8.25C16.3546 8.25 17.25 9.14543 17.25 10.25C17.25 11.3546 16.3546 12.25 15.25 12.25C14.906 12.25 14.5824 12.1632 14.2997 12.0102L11.1243 14.5506C11.2056 14.7683 11.25 15.004 11.25 15.25C11.25 16.3546 10.3546 17.25 9.25 17.25C8.14543 17.25 7.25 16.3546 7.25 15.25Z"/>
  </g>
</svg>
