<?xml version="1.0" encoding="UTF-8" standalone="yes"?>
<svg viewBox="0 0 18 18" xmlns="http://www.w3.org/2000/svg">
  <path d="M6 13C6.55228 13 7 12.5523 7 12C7 11.4477 6.55228 11 6 11H5C4.44772 11 4 10.5523 4 10L4 8C4 7.44772 4.44771 7 5 7L8 7C8.55228 7 9 6.55228 9 6C9 5.44772 8.55228 5 8 5H5C3.34315 5 2 6.34315 2 8V10C2 11.6569 3.34315 13 5 13H6Z"/>
  <path d="M11 6C11 5.44772 11.4477 5 12 5H13C14.6569 5 16 6.34315 16 8V10C16 11.6569 14.6569 13 13 13H10C9.44772 13 9 12.5523 9 12C9 11.4477 9.44772 11 10 11H13C13.5523 11 14 10.5523 14 10V8C14 7.44772 13.5523 7 13 7H12C11.4477 7 11 6.55228 11 6Z"/>
  <path d="M10.5 8C11.0523 8 11.5 8.44772 11.5 9C11.5 9.55228 11.0523 10 10.5 10H7.5C6.94772 10 6.5 9.55228 6.5 9C6.5 8.44772 6.94772 8 7.5 8L10.5 8Z"/>
</svg>