<?xml version="1.0" encoding="UTF-8" standalone="yes"?>
<svg viewBox="0 0 20 20">
  <path d="M5.5,12c0,0-0.5,0-0.5-0.5V9c0,0,0-1,1-1h4c1,0,1,1,1,1v1c0,0,0,1,1,1s1-1,1-1V9c0,0,0-0.7-0.3-1.4c0-0.1-0.1-0.2-0.2-0.2
	C12.1,6.7,11.4,6,10,6H6C3,6,3,9,3,9v2v1c0,0,0,2,2.5,2c0.6,0,1-0.4,1-1S6.1,12,5.5,12z"/>
  <path d="M14.5,6c-0.6,0-1,0.4-1,1s0.4,1,1,1c0,0,0.5,0,0.5,0.5V11c0,0,0,1-1,1h-4c-1,0-1-1-1-1v-1c0,0,0-1-1-1s-1,1-1,1v1
	c0,0,0,0.7,0.3,1.4c0,0.1,0.1,0.2,0.2,0.2C7.9,13.3,8.6,14,10,14h4c3,0,3-3,3-3V9V8C17,8,17,6,14.5,6z"/>
</svg>