<?xml version="1.0" encoding="UTF-8" standalone="yes"?>
<svg viewBox="0 0 18 18">
  <path d="M4.5,11c0,0-0.5,0-0.5-0.5V8c0,0,0-1,1-1h4c1,0,1,1,1,1v1c0,0,0,1,1,1s1-1,1-1V8c0,0,0-0.7-0.3-1.4c0-0.1-0.1-0.2-0.2-0.2
	C11.1,5.7,10.4,5,9,5H5C2,5,2,8,2,8v2v1c0,0,0,2,2.5,2c0.6,0,1-0.4,1-1S5.1,11,4.5,11z"/>
  <path d="M13.5,5c-0.6,0-1,0.4-1,1s0.4,1,1,1c0,0,0.5,0,0.5,0.5V10c0,0,0,1-1,1H9c-1,0-1-1-1-1V9c0,0,0-1-1-1S6,9,6,9v1
	c0,0,0,0.7,0.3,1.4c0,0.1,0.1,0.2,0.2,0.2C6.9,12.3,7.6,13,9,13h4c3,0,3-3,3-3V8V7C16,7,16,5,13.5,5z"/>
</svg>