<?xml version="1.0" encoding="UTF-8" standalone="yes"?>
<svg viewBox="0 0 18 18" xmlns="http://www.w3.org/2000/svg">
  <path fill-rule="evenodd" clip-rule="evenodd" d="M3 4C2.44772 4 2 4.44772 2 5V13C2 13.5523 2.44772 14 3 14H15C15.5523 14 16 13.5523 16 13V5C16 4.44772 15.5523 4 15 4H3ZM4.96046 5.90799C4.63349 5.65368 4.16229 5.71258 3.90799 6.03954C3.65368 6.36651 3.71258 6.83771 4.03954 7.09201L8.53955 10.592C8.81038 10.8027 9.18962 10.8027 9.46045 10.592L13.9605 7.09201C14.2874 6.83771 14.3463 6.36651 14.092 6.03954C13.8377 5.71258 13.3665 5.65368 13.0395 5.90799L9 9.04985L4.96046 5.90799Z"/>
</svg>