<?xml version="1.0" encoding="UTF-8" standalone="yes"?>
<svg viewBox="0 0 18 18" xmlns="http://www.w3.org/2000/svg">
  <path fill-rule="evenodd" clip-rule="evenodd" d="M2 6.54595V13.1683C2 13.9595 2.87525 14.4373 3.54076 14.0095L6.12591 12.3476C6.45532 12.1359 6.87802 12.1359 7.20742 12.3476L10.7926 14.6524C11.122 14.8641 11.5447 14.8641 11.8741 14.6524L15.5408 12.2952C15.827 12.1112 16 11.7943 16 11.454V4.83166C16 4.0405 15.1248 3.56265 14.4592 3.99048L11.8741 5.65237C11.5447 5.86413 11.122 5.86413 10.7926 5.65237L7.20742 3.34763C6.87802 3.13586 6.45532 3.13586 6.12591 3.34763L2.45924 5.70477C2.17302 5.88877 2 6.20568 2 6.54595ZM7.5 10.7324V5.93425C7.5 5.53491 7.94507 5.29671 8.27735 5.51823L10.2774 6.85156C10.4164 6.9443 10.5 7.10041 10.5 7.26759V12.0657C10.5 12.4651 10.0549 12.7033 9.72265 12.4818L7.72265 11.1484C7.58355 11.0557 7.5 10.8996 7.5 10.7324Z"/>
</svg>