<?xml version="1.0" encoding="UTF-8" standalone="yes"?>
<svg viewBox="0 0 18 18" xmlns="http://www.w3.org/2000/svg">
  <path d="M9 2C5.13466 2 2 5.1347 2 9C2 12.8653 5.13466 16 9 16C12.8653 16 16 12.8653 16 9C16 5.1347 12.8653 2 9 2ZM9.72671 4.7203C10.6184 4.7413 11.518 5.0992 12.2133 5.7946C13.6039 7.185 13.651 9.3849 12.3233 10.7206C9.92711 13.1167 5.66104 12.3467 5.66104 12.3467C5.66104 12.3467 4.89121 8.0808 7.2874 5.6845C7.95127 5.0206 8.83501 4.7006 9.72671 4.7203ZM9.80144 6.101L9.11784 7.5152L7.71152 8.1985L9.11784 8.8821L9.80144 10.2963L10.4927 8.8821L11.899 8.1985L10.4927 7.5152L9.80144 6.101Z"/>
</svg>