<?xml version="1.0" encoding="UTF-8" standalone="yes"?>
<svg viewBox="0 0 18 18">
  <path d="M 9,1 C 4.5824709,1 1,4.5825143 1,9 c 0,4.417486 3.5824709,8 8,8 4.417528,0 8,-3.582514 8,-8 C 17,4.5825143 13.417528,1 9,1 Z m 0.83053,3.1089143 c 1.019085,0.024 2.047183,0.4330286 2.841798,1.2277714 1.589232,1.5890286 1.643141,4.1032003 0.125737,5.6297143 -2.73851,2.7384 -7.6140204,1.8584 -7.6140204,1.8584 0,0 -0.8798069,-4.8753143 1.8587028,-7.6139429 C 7.8014457,4.4521143 8.8114434,4.0864 9.83053,4.1089143 Z M 9.91593,5.6868571 9.134679,7.3030857 7.527453,8.084 9.134679,8.8652571 9.91593,10.481486 10.705951,8.8652571 12.313178,8.084 10.705951,7.3030857 Z"/>
</svg>