<?xml version="1.0" encoding="UTF-8" standalone="yes"?>
<svg viewBox="0 0 18 18" xmlns="http://www.w3.org/2000/svg">
  <path d="M4 3C3.44772 3 3 3.44772 3 4C3 4.55228 3.44772 5 4 5H14C14.5523 5 15 4.55228 15 4C15 3.44772 14.5523 3 14 3H4Z"/>
  <path d="M3 9C3 8.44772 3.44772 8 4 8H14C14.5523 8 15 8.44772 15 9C15 9.55228 14.5523 10 14 10H4C3.44772 10 3 9.55228 3 9Z"/>
  <path d="M3 14C3 13.4477 3.44772 13 4 13H14C14.5523 13 15 13.4477 15 14C15 14.5523 14.5523 15 14 15H4C3.44772 15 3 14.5523 3 14Z"/>
</svg>