<?xml version="1.0" encoding="UTF-8" standalone="yes"?>
<svg viewBox="0 0 18 18" xmlns="http://www.w3.org/2000/svg">
  <mask id="path-1-inside-1_6798_9051" fill="white">
    <path d="M8.16406 3.05859C7.89749 3.73756 7.75 4.47647 7.75 5.25C7.75 8.56371 10.4363 11.25 13.75 11.25C14.0334 11.25 14.312 11.2284 14.585 11.1904C13.7097 13.4203 11.5404 15 9 15C5.68629 15 3 12.3137 3 9C3 5.97001 5.24611 3.4654 8.16406 3.05859Z"/>
  </mask>
  <path d="M8.16406 3.05859L10.0257 3.78951L11.2758 0.605424L7.8879 1.07775L8.16406 3.05859ZM14.585 11.1904L16.4467 11.9212L17.6962 8.73782L14.3091 9.20955L14.585 11.1904ZM8.16406 3.05859L6.30241 2.32768C5.94669 3.2337 5.75 4.22017 5.75 5.25H7.75H9.75C9.75 4.73276 9.84829 4.24142 10.0257 3.78951L8.16406 3.05859ZM7.75 5.25H5.75C5.75 9.66828 9.33172 13.25 13.75 13.25V11.25V9.25C11.5409 9.25 9.75 7.45914 9.75 5.25H7.75ZM13.75 11.25V13.25C14.1349 13.25 14.5061 13.2207 14.8608 13.1713L14.585 11.1904L14.3091 9.20955C14.1179 9.23617 13.9319 9.25 13.75 9.25V11.25ZM14.585 11.1904L12.7232 10.4597C12.1379 11.9511 10.689 13 9 13V15V17C12.3917 17 15.2816 14.8896 16.4467 11.9212L14.585 11.1904ZM9 15V13C6.79086 13 5 11.2091 5 9H3H1C1 13.4183 4.58172 17 9 17V15ZM3 9H5C5 6.98207 6.49644 5.31043 8.44022 5.03944L8.16406 3.05859L7.8879 1.07775C3.99577 1.62037 1 4.95794 1 9H3Z" mask="url(#path-1-inside-1_6798_9051)"/>
</svg>
