<?xml version="1.0" encoding="UTF-8" standalone="yes"?>
<svg viewBox="0 0 18 18" xmlns="http://www.w3.org/2000/svg">
  <path fill-rule="evenodd" clip-rule="evenodd" d="M9 16C12.866 16 16 12.866 16 9C16 5.13401 12.866 2 9 2C5.13401 2 2 5.13401 2 9C2 12.866 5.13401 16 9 16ZM8.99998 4C11.7614 4 14 6.23858 14 9C14 11.7614 11.7614 14 8.99998 14C8.69891 14 8.40405 13.9734 8.11763 13.9224C9.75605 13.5056 11 11.4604 11 9C11 6.53965 9.75605 4.49435 8.11763 4.07761C8.40405 4.02661 8.69891 4 8.99998 4Z"/>
</svg>