<?xml version="1.0" encoding="UTF-8" standalone="no"?>
<!-- Created with Inkscape (http://www.inkscape.org/) -->

<svg
   xmlns:dc="http://purl.org/dc/elements/1.1/"
   xmlns:cc="http://creativecommons.org/ns#"
   xmlns:rdf="http://www.w3.org/1999/02/22-rdf-syntax-ns#"
   xmlns:svg="http://www.w3.org/2000/svg"
   xmlns="http://www.w3.org/2000/svg"
   xmlns:sodipodi="http://sodipodi.sourceforge.net/DTD/sodipodi-0.dtd"
   xmlns:inkscape="http://www.inkscape.org/namespaces/inkscape"
   width="20"
   height="20"
   id="svg5738"
   version="1.1"
   inkscape:version="0.48.5 r10040"
   sodipodi:docname="noeye.svg">
  <defs
     id="defs5740" />
  <sodipodi:namedview
     id="base"
     pagecolor="#ffffff"
     bordercolor="#666666"
     borderopacity="1.0"
     inkscape:pageopacity="0.0"
     inkscape:pageshadow="2"
     inkscape:zoom="16"
     inkscape:cx="5.4629217"
     inkscape:cy="13.987232"
     inkscape:document-units="px"
     inkscape:current-layer="layer1"
     showgrid="false"
     inkscape:window-width="1390"
     inkscape:window-height="884"
     inkscape:window-x="593"
     inkscape:window-y="4"
     inkscape:window-maximized="0"
     showguides="false">
    <inkscape:grid
       type="xygrid"
       id="grid5746"
       empspacing="5"
       visible="true"
       enabled="true"
       snapvisiblegridlinesonly="true" />
  </sodipodi:namedview>
  <metadata
     id="metadata5743">
    <rdf:RDF>
      <cc:Work
         rdf:about="">
        <dc:format>image/svg+xml</dc:format>
        <dc:type
           rdf:resource="http://purl.org/dc/dcmitype/StillImage" />
        <dc:title />
      </cc:Work>
    </rdf:RDF>
  </metadata>
  <g
     inkscape:label="Layer 1"
     inkscape:groupmode="layer"
     id="layer1"
     transform="translate(0,-1032.3622)">
    <path
       style="color:#000000;fill:#000000;fill-opacity:1;fill-rule:nonzero;stroke:none;stroke-width:1;marker:none;visibility:visible;display:inline;overflow:visible;enable-background:accumulate"
       d="M 12.9375,5.96875 C 12.89522,5.9764663 12.853437,5.9869119 12.8125,6 12.59362,6.0472694 12.391913,6.1705348 12.25,6.34375 l -6,7 C 5.8531998,13.726974 5.8710398,14.452518 6.2861943,14.815778 6.7013489,15.179038 7.4228396,15.100409 7.75,14.65625 l 6,-7 C 14.308751,7.0723608 13.74239,5.8960714 12.9375,5.96875 z M 9,6 c -4,0 -6,5 -6,5 0,0 0.5657859,1.082792 1.65625,2.125 0.100806,-0.27287 0.2495955,-0.527938 0.4375,-0.75 L 5.6875,11.6875 C 5.2993344,11.302432 5,11 5,11 5,11 5.561781,9.48395 7.03125,8.59375 c 0,0 1.0596349,-0.562725 2.03125,-0.84375 L 10.5625,6 10,6 z m 6.21875,2.1875 c -0.08805,0.1564903 -0.193026,0.3034528 -0.3125,0.4375 l -0.8125,0.9375 C 14.726733,10.293721 15,11 15,11 c 0,0 -2,2.5 -4,2.5 l -0.28125,0 L 9.4375,15 10,15 l 1,0 c 4,0 6,-4 6,-4 0,0 -0.604301,-1.4661776 -1.78125,-2.8125 z"
       transform="translate(0,1032.3622)"
       id="path3983-7"
       inkscape:connector-curvature="0"
       sodipodi:nodetypes="cccccccccccccccccccccccccccccc" />
  </g>
</svg>
