<?xml version="1.0" encoding="UTF-8" standalone="yes"?>
<svg viewBox="0 0 18 18">
  <g>
    <path d="M4,10c0,0,0.6-1.5,2-2.4c0,0,1.1-0.6,2-0.8L9.6,5H9H8c-4,0-6,5-6,5s0.6,1.1,1.7,2.1c0.1-0.3,0.2-0.5,0.4-0.8l0.6-0.7
		C4.3,10.3,4,10,4,10z"/>
    <path d="M11.9,5h-0.1c-0.2,0-0.4,0.2-0.6,0.3l-6,7c-0.4,0.4-0.4,1.1,0,1.5s1.1,0.3,1.5-0.2l6-7C13.3,6.1,12.7,4.9,11.9,5z"/>
    <path d="M14.2,7.2c-0.1,0.2-0.2,0.3-0.3,0.4l-0.8,0.9C13.7,9.3,14,10,14,10s-2,2.5-4,2.5H9.7L8.4,14H9h1c4,0,6-4,6-4
		S15.4,8.5,14.2,7.2z"/>
  </g>
</svg>