<?xml version="1.0" encoding="UTF-8" standalone="yes"?>
<svg viewBox="0 0 18 18" xmlns="http://www.w3.org/2000/svg">
  <path fill-rule="evenodd" clip-rule="evenodd" d="M11.7495 13.3102L13.9697 15.5303L15.0303 14.4697L3.03033 2.46967L1.96967 3.53033L4.3071 5.86776C3.08775 6.76162 2.0934 7.77089 1.52375 8.39633C1.20882 8.74212 1.20881 9.25788 1.52375 9.60366C2.73524 10.9338 5.86762 14 9 14C9.93346 14 10.8669 13.7277 11.7495 13.3102ZM10.5689 12.1295L9.39945 10.9601C9.27038 10.9863 9.13679 11 9 11C7.89543 11 7 10.1046 7 9C7 8.86321 7.01373 8.72962 7.0399 8.60055L5.87047 7.43112C5.63344 7.90302 5.5 8.43593 5.5 9C5.5 10.933 7.067 12.5 9 12.5C9.56407 12.5 10.097 12.3666 10.5689 12.1295Z"/>
  <path d="M14.2584 11.6977C15.2187 10.9262 15.9975 10.1293 16.4762 9.60367C16.7912 9.25788 16.7912 8.74212 16.4762 8.39634C15.2648 7.06619 12.1324 4 9 4C8.31129 4 7.62259 4.14822 6.9543 4.39363L8.1617 5.60103C8.43028 5.53501 8.71105 5.5 9 5.5C10.933 5.5 12.5 7.067 12.5 9C12.5 9.28895 12.465 9.56972 12.399 9.8383L14.2584 11.6977Z"/>
</svg>