<?xml version="1.0" encoding="UTF-8" standalone="yes"?>
<svg viewBox="0 0 20 20">
  <g>
    <path d="M5,11c0,0,0.6-1.5,2-2.4c0,0,1.1-0.6,2-0.8L10.6,6H10H9c-4,0-6,5-6,5s0.6,1.1,1.7,2.1c0.1-0.3,0.2-0.5,0.4-0.8l0.6-0.7
		C5.3,11.3,5,11,5,11z"/>
    <path d="M12.9,6c0,0-0.1,0-0.1,0c-0.2,0-0.4,0.2-0.6,0.3l-6,7c-0.4,0.4-0.4,1.1,0,1.5c0.4,0.4,1.1,0.3,1.5-0.2l6-7
		C14.3,7.1,13.7,5.9,12.9,6z"/>
    <path d="M15.2,8.2c-0.1,0.2-0.2,0.3-0.3,0.4l-0.8,0.9C14.7,10.3,15,11,15,11s-2,2.5-4,2.5h-0.3L9.4,15H10h1c4,0,6-4,6-4
		S16.4,9.5,15.2,8.2z"/>
  </g>
</svg>