<?xml version="1.0" encoding="utf-8"?>
<!-- Generator: Adobe Illustrator 19.0.1, SVG Export Plug-In . SVG Version: 6.00 Build 0)  -->
<svg version="1.1"
	 id="svg5738" sodipodi:docname="folder.svg" inkscape:version="0.48.5 r10040" xmlns:dc="http://purl.org/dc/elements/1.1/" xmlns:cc="http://creativecommons.org/ns#" xmlns:rdf="http://www.w3.org/1999/02/22-rdf-syntax-ns#" xmlns:svg="http://www.w3.org/2000/svg" xmlns:sodipodi="http://sodipodi.sourceforge.net/DTD/sodipodi-0.dtd" xmlns:inkscape="http://www.inkscape.org/namespaces/inkscape"
	 xmlns="http://www.w3.org/2000/svg" xmlns:xlink="http://www.w3.org/1999/xlink" x="0px" y="0px" viewBox="0 0 20 20"
	 style="enable-background:new 0 0 20 20;" xml:space="preserve">
<sodipodi:namedview  inkscape:window-maximized="0" inkscape:window-y="20" inkscape:current-layer="layer1" inkscape:pageshadow="2" inkscape:document-units="px" inkscape:pageopacity="0.0" inkscape:window-height="884" inkscape:window-x="20" inkscape:window-width="1390" showgrid="true" inkscape:cy="9.0620556" inkscape:cx="9.9156895" inkscape:zoom="22.627417" borderopacity="1.0" bordercolor="#666666" pagecolor="#ffffff" id="base">
	<inkscape:grid  type="xygrid" snapvisiblegridlinesonly="true" enabled="true" visible="true" empspacing="5" id="grid5746">
		</inkscape:grid>
</sodipodi:namedview>
<g>
	<g>
		<path d="M10.5,9.5l-0.7,0.7l0.7,0.7c0.7,0.7,0.7,1.9-0.1,2.6c-0.4,0.3-0.8,0.5-1.3,0.5c-0.5,0-1-0.2-1.3-0.6l-0.6-0.6l-0.6,0.6
			c-0.4,0.4-0.8,0.6-1.3,0.6c-0.1,0-0.2,0-0.2,0c0,0.2,0.1,1,1,1h8c1,0,1-1,1-1V9h-4.2C10.7,9.2,10.6,9.4,10.5,9.5z"/>
		<path d="M14,6c0,0-2,0-3,0s-1-1-2-1S7,5,6,5S5,6,5,6v0.3c0.1,0,0.2,0,0.3,0c0,0,0,0,0,0c0.5,0,1,0.2,1.3,0.6l0.6,0.6l0.6-0.6
			c0.4-0.4,0.8-0.6,1.3-0.6c0.5,0,1,0.2,1.3,0.5C10.8,7.2,10.9,7.6,11,8h4V7C15,7,15,6,14,6z"/>
	</g>
	<g>
		<path d="M8.5,10.2l1.4-1.4c0.3-0.3,0.3-0.9,0-1.2c-0.3-0.3-0.9-0.3-1.2,0L7.3,8.9L6,7.6c-0.3-0.3-0.9-0.4-1.2,0
			c-0.3,0.3-0.4,0.9,0,1.2l1.3,1.4l-1.4,1.4c-0.3,0.3-0.3,0.9,0,1.2c0.2,0.2,0.4,0.2,0.6,0.2c0.2,0,0.5-0.1,0.6-0.3l1.3-1.3l1.3,1.4
			C8.7,13,9,13.1,9.2,13.1c0.2,0,0.4-0.1,0.6-0.2c0.3-0.3,0.4-0.9,0-1.2L8.5,10.2z"/>
	</g>
</g>
</svg>
