<?xml version="1.0" encoding="UTF-8" standalone="yes"?>
<svg viewBox="0 0 20 20">
  <path d="M10.9,9c-0.2,0.2-0.3,0.4-0.4,0.5l-0.7,0.7l0.7,0.7c0.7,0.7,0.7,1.9-0.1,2.6C10,13.8,9.6,14,9.1,14s-1-0.2-1.3-0.6l-0.6-0.6
	l-0.6,0.6C6.2,13.8,5.8,14,5.3,14c-0.1,0-0.2,0-0.2,0c0,0.2,0.1,1,1,1h8c1,0,1-1,1-1V9H10.9z"/>
  <path d="M6.6,6.9l0.6,0.6l0.6-0.6c0.4-0.4,0.8-0.6,1.3-0.6s1,0.2,1.3,0.5C10.8,7.2,10.9,7.6,11,8h4V7c0,0,0-1-1-1c0,0-2,0-3,0
	s-1-1-2-1S7,5,6,5S5,6,5,6v0.3c0.1,0,0.2,0,0.3,0C5.8,6.3,6.3,6.5,6.6,6.9z"/>
  <path d="M5.9,12.7l1.3-1.3l1.3,1.4C8.7,13,9,13.1,9.2,13.1s0.4-0.1,0.6-0.2c0.3-0.3,0.4-0.9,0-1.2l-1.3-1.5l1.4-1.4
	c0.3-0.3,0.3-0.9,0-1.2C9.6,7.3,9,7.3,8.7,7.6L7.3,8.9L6,7.6c-0.3-0.3-0.9-0.4-1.2,0c-0.3,0.3-0.4,0.9,0,1.2l1.3,1.4l-1.4,1.4
	c-0.3,0.3-0.3,0.9,0,1.2C4.9,13,5.1,13,5.3,13S5.8,12.9,5.9,12.7z"/>
</svg>