<?xml version="1.0" encoding="UTF-8" standalone="yes"?>
<svg viewBox="0 0 18 18">
  <path d="M9.9,8C9.7,8.2,9.6,8.4,9.5,8.5L8.8,9.2l0.7,0.7c0.7,0.7,0.7,1.9-0.1,2.6C9,12.8,8.6,13,8.1,13s-1-0.2-1.3-0.6l-0.6-0.6
	l-0.6,0.6C5.2,12.8,4.8,13,4.3,13c-0.1,0-0.2,0-0.2,0c0,0.2,0.1,1,1,1h8c1,0,1-1,1-1V8H9.9z"/>
  <path d="M5.6,5.9l0.6,0.6l0.6-0.6c0.4-0.4,0.8-0.6,1.3-0.6s1,0.2,1.3,0.5C9.8,6.2,9.9,6.6,10,7h4V6c0,0,0-1-1-1c0,0-2,0-3,0S9,4,8,4
	S6,4,5,4S4,5,4,5v0.3c0.1,0,0.2,0,0.3,0C4.8,5.3,5.3,5.5,5.6,5.9z"/>
  <path d="M4.9,11.7l1.3-1.3l1.3,1.4C7.7,12,8,12.1,8.2,12.1s0.4-0.1,0.6-0.2c0.3-0.3,0.4-0.9,0-1.2L7.5,9.2l1.4-1.4
	c0.3-0.3,0.3-0.9,0-1.2C8.6,6.3,8,6.3,7.7,6.6L6.3,7.9L5,6.6c-0.3-0.3-0.9-0.4-1.2,0c-0.3,0.3-0.4,0.9,0,1.2l1.3,1.4l-1.4,1.4
	c-0.3,0.3-0.3,0.9,0,1.2C3.9,12,4.1,12,4.3,12S4.8,11.9,4.9,11.7z"/>
</svg>