<?xml version="1.0" encoding="UTF-8" standalone="yes"?>
<svg viewBox="0 0 18 18" xmlns="http://www.w3.org/2000/svg">
  <path fill-rule="evenodd" clip-rule="evenodd" d="M9 1.58578L5.29114 5.29465C5.16455 5.42199 5.04504 5.55669 4.92824 5.69296C4.72138 5.9343 4.44539 6.27913 4.16795 6.6953C3.63475 7.4951 3 8.69942 3 10C3 13.3137 5.68629 16 9 16C12.3137 16 15 13.3137 15 10C15 8.69942 14.3653 7.4951 13.8321 6.6953C13.5546 6.27913 13.2786 5.9343 13.0718 5.69296C12.9547 5.55635 12.8348 5.42129 12.7079 5.29368C12.7061 5.29192 12.7071 5.29289 12.7071 5.29289L9 1.58578ZM11.2926 6.70678L11.3039 6.71837C11.3145 6.72939 11.3319 6.74749 11.3549 6.77216C11.401 6.82158 11.4696 6.89698 11.5532 6.99454C11.7214 7.1907 11.9454 7.47087 12.1679 7.8047C12.6347 8.50489 13 9.30058 13 10H5C5 9.30058 5.36525 8.50489 5.83205 7.8047C6.05461 7.47087 6.27862 7.1907 6.44676 6.99454C6.53038 6.89698 6.599 6.82158 6.64512 6.77216C6.66815 6.74749 6.68547 6.72939 6.69614 6.71837L6.707 6.70722L6.70813 6.70608L9 4.41421L11.2916 6.70576L11.2926 6.70678Z"/>
</svg>