<?xml version="1.0" encoding="UTF-8" standalone="yes"?>
<svg viewBox="0 0 18 18" xmlns="http://www.w3.org/2000/svg">
  <path d="M5.56066 3.43934C5.84196 3.15804 6.2235 3 6.62132 3L11.3787 3C11.7765 3 12.158 3.15804 12.4393 3.43934L14.5732 5.57322C14.7307 5.73072 14.6192 6 14.3964 6L3.60355 6C3.38083 6 3.26929 5.73071 3.42678 5.57322L5.56066 3.43934Z"/>
  <path fill-rule="evenodd" clip-rule="evenodd" d="M13.5 15C14.3284 15 15 14.3284 15 13.5V7.5C15 7.22386 14.7761 7 14.5 7H3.5C3.22386 7 3 7.22386 3 7.5V13.5C3 14.3284 3.67157 15 4.5 15H13.5ZM7 9.5C7 9.22386 7.22386 9 7.5 9H10.5C10.7761 9 11 9.22386 11 9.5C11 9.77614 10.7761 10 10.5 10H7.5C7.22386 10 7 9.77614 7 9.5Z"/>
</svg>