<?xml version="1.0" encoding="UTF-8" standalone="yes"?>
<svg viewBox="0 0 18 18" xmlns="http://www.w3.org/2000/svg">
  <path fill-rule="evenodd" clip-rule="evenodd" d="M4.95948 3.98955C4.44003 3.47009 4.44003 2.62789 4.95949 2.10843C5.47894 1.58898 6.32115 1.58898 6.8406 2.10843L7.63188 2.89971C7.65341 2.92125 7.67406 2.94334 7.69381 2.96594L13.7279 9.00005L8.76898 13.959C7.98793 14.74 6.7216 14.74 5.94056 13.959L2.40502 10.4235C1.62397 9.64241 1.62397 8.37608 2.40502 7.59503L5.48499 4.51506L4.95948 3.98955ZM4 9.00001L7.5 5.50001L11 9.00001H4Z"/>
  <path d="M14 16C15.1046 16 16 15.139 16 14.0769C16 13.2672 15.1937 12.3626 14.536 11.6248C14.3341 11.3983 14.1462 11.1875 14 11C13.8538 11.1875 13.6659 11.3983 13.464 11.6248C12.8063 12.3626 12 13.2672 12 14.0769C12 15.139 12.8954 16 14 16Z"/>
</svg>