<?xml version="1.0" encoding="UTF-8" standalone="yes"?>
<svg viewBox="0 0 18 18" xmlns="http://www.w3.org/2000/svg">
  <path fill-rule="evenodd" clip-rule="evenodd" d="M2 9C2 4.90769 5.33846 2 9 2C13.6308 2 16 6.09231 16 8.89231C16 10.5 14.6154 11 13 11H10C9.35385 11 9 11.5846 9 12.4462C9 12.4462 9 13.0923 9.64615 13.6308C9.96923 13.9538 10.1846 14.3846 10.1846 14.8154C10.1846 15.4615 9.53846 16 8.78462 16C5.23077 16 2 12.6615 2 9ZM9 6.25C9.62132 6.25 10.125 5.74632 10.125 5.125C10.125 4.50368 9.62132 4 9 4C8.37868 4 7.875 4.50368 7.875 5.125C7.875 5.74632 8.37868 6.25 9 6.25ZM6.875 7.125C6.875 7.74632 6.37132 8.25 5.75 8.25C5.12868 8.25 4.625 7.74632 4.625 7.125C4.625 6.50368 5.12868 6 5.75 6C6.37132 6 6.875 6.50368 6.875 7.125ZM12.25 8.25C12.8713 8.25 13.375 7.74632 13.375 7.125C13.375 6.50368 12.8713 6 12.25 6C11.6287 6 11.125 6.50368 11.125 7.125C11.125 7.74632 11.6287 8.25 12.25 8.25Z"/>
</svg>