<?xml version="1.0" encoding="UTF-8" standalone="yes"?>
<svg viewBox="0 0 18 18" xmlns="http://www.w3.org/2000/svg">
  <path fill-rule="evenodd" clip-rule="evenodd" d="M6.14645 15.3536C6.05268 15.4473 5.9255 15.5 5.79289 15.5H3C2.72386 15.5 2.5 15.2761 2.5 15V12.2071C2.5 12.0745 2.55268 11.9473 2.64645 11.8536L10.6464 3.85355L10.6476 3.85238L12.0858 2.41422C12.8668 1.63317 14.1332 1.63317 14.9142 2.41422L15.5858 3.08579C16.3668 3.86684 16.3668 5.13317 15.5858 5.91422L6.14645 15.3536ZM14.2071 3.12132L14.8787 3.7929C15.2692 4.18342 15.2692 4.81659 14.8787 5.20711L14 6.08579L11.9142 4L12.7929 3.12132C13.1834 2.7308 13.8166 2.7308 14.2071 3.12132Z"/>
</svg>