<?xml version="1.0" encoding="UTF-8" standalone="yes"?>
<svg viewBox="0 0 18 18">
  <g>
    <path d="M10 4C10 2.37143 11.5429 1 13 1C14.4571 1 16 2.37143 16 4C16 5.62857 14 8 13 9C12 8 10 5.62857 10 4Z"/>
    <path d="M12.1976 9.76256C12.881 10.446 12.881 11.554 12.1976 12.2374C11.704 12.7311 10.9888 12.8682 10.3721 12.6487L8.3662 14.6546C8.58567 15.2713 8.44858 15.9864 7.95495 16.4801C7.27153 17.1635 6.1635 17.1635 5.48008 16.4801C4.98645 15.9864 4.84936 15.2713 5.06883 14.6546L3.0629 12.6487C2.44623 12.8682 1.73107 12.7311 1.23744 12.2374C0.55402 11.554 0.55402 10.446 1.23744 9.76256C1.73107 9.26893 2.44623 9.13185 3.0629 9.35132L5.06883 7.34538C4.84936 6.72871 4.98645 6.01355 5.48008 5.51992C6.1635 4.8365 7.27153 4.8365 7.95495 5.51992C8.44858 6.01355 8.58567 6.72871 8.3662 7.34538L10.3721 9.35132C10.9888 9.13185 11.704 9.26893 12.1976 9.76256ZM9.36917 10.4697L7.24785 8.34835H6.18719L4.06586 10.4697V11.5303L6.18719 13.6517H7.24785L9.36917 11.5303V10.4697Z"/>
  </g>
</svg>
