<?xml version="1.0" encoding="UTF-8" standalone="yes"?>
<svg viewBox="0 0 18 18" xmlns="http://www.w3.org/2000/svg">
  <path d="M13 1C11.5429 1 10 2.37143 10 4C10 5.62857 12 8 13 9C14 8 16 5.62857 16 4C16 2.37143 14.4571 1 13 1Z"/>
  <path fill-rule="evenodd" clip-rule="evenodd" d="M12.1976 12.2374C12.881 11.554 12.881 10.446 12.1976 9.76253C11.704 9.2689 10.9888 9.13182 10.3721 9.35129L8.3662 7.34535C8.58567 6.72868 8.44858 6.01352 7.95495 5.51989C7.27153 4.83647 6.1635 4.83647 5.48008 5.51989C4.98645 6.01352 4.84936 6.72868 5.06883 7.34535L3.0629 9.35129C2.44623 9.13182 1.73107 9.2689 1.23744 9.76253C0.55402 10.446 0.55402 11.554 1.23744 12.2374C1.73107 12.7311 2.44623 12.8682 3.0629 12.6487L5.06883 14.6546C4.84936 15.2713 4.98645 15.9864 5.48008 16.4801C6.1635 17.1635 7.27153 17.1635 7.95495 16.4801C8.44858 15.9864 8.58567 15.2713 8.3662 14.6546L10.3721 12.6487C10.9888 12.8682 11.704 12.7311 12.1976 12.2374ZM7.24785 8.34832L9.36917 10.4697V11.5303L7.24785 13.6517H6.18719L4.06586 11.5303V10.4697L6.18719 8.34832H7.24785Z"/>
</svg>