<?xml version="1.0" encoding="UTF-8" standalone="yes"?>
<svg viewBox="0 0 18 18" xmlns="http://www.w3.org/2000/svg">
  <path d="M11.5 0.299988C10.1 0.299988 9 1.39999 9 2.79999C9 3.19999 9.1 3.59999 9.3 3.99999L5.7 7.59999C5.3 7.39999 4.9 7.29999 4.5 7.29999C3.1 7.29999 2 8.39999 2 9.79999C2 11.2 3.1 12.3 4.5 12.3C5.9 12.3 7 11.2 7 9.79999C7 9.39999 6.9 8.99999 6.7 8.59999L10.3 4.99999C10.6 5.19999 11 5.29999 11.5 5.29999C12.9 5.29999 14 4.19999 14 2.79999C14 1.39999 12.9 0.299988 11.5 0.299988ZM12.5 7.29999C10.8 7.29999 9 8.89999 9 10.8C9 12.7 11.7 15.9 12.5 17C13.3 15.9 16 12.7 16 10.8C16 8.89999 14.2 7.29999 12.5 7.29999Z"/>
</svg>