<?xml version="1.0" encoding="UTF-8" standalone="yes"?>
<svg viewBox="0 0 18 18" xmlns="http://www.w3.org/2000/svg">
  <path d="M13 8C13.6667 7.3125 15 5.70159 15 4.5625C15 3.42341 14.1046 2.5 13 2.5C11.8954 2.5 11 3.42341 11 4.5625C11 5.70159 12.3333 7.3125 13 8Z"/>
  <path fill-rule="evenodd" clip-rule="evenodd" d="M8 5C8 5.23157 7.94752 5.45089 7.85381 5.64671L9.23114 7.02403C9.31837 7.00824 9.40822 7 9.5 7C10.3284 7 11 7.67157 11 8.5C11 9.32843 10.3284 10 9.5 10C9.40822 10 9.31837 9.99176 9.23114 9.97597L7.85381 11.3533C7.94752 11.5491 8 11.7684 8 12C8 12.8284 7.32843 13.5 6.5 13.5C5.67157 13.5 5 12.8284 5 12C5 11.7684 5.05248 11.5491 5.14619 11.3533L3.64671 9.85382C3.45089 9.94752 3.23157 10 3 10C2.17157 10 1.5 9.32843 1.5 8.5C1.5 7.67157 2.17157 7 3 7C3.23157 7 3.45089 7.05248 3.64671 7.14619L5.14619 5.64671C5.05248 5.45089 5 5.23157 5 5C5 4.17157 5.67157 3.5 6.5 3.5C7.32843 3.5 8 4.17157 8 5ZM6.5 6.5C6.26843 6.5 6.04911 6.44752 5.85329 6.35381L4.35381 7.85329C4.44752 8.04911 4.5 8.26843 4.5 8.5C4.5 8.73157 4.44752 8.95089 4.35381 9.14671L5.85329 10.6462C6.04911 10.5525 6.26843 10.5 6.5 10.5C6.73157 10.5 6.95089 10.5525 7.14671 10.6462L8.34082 9.45207C8.12786 9.19308 8 8.86147 8 8.5C8 8.13853 8.12786 7.80692 8.34082 7.54793L7.14671 6.35381C6.95089 6.44752 6.73157 6.5 6.5 6.5Z"/>
  <path d="M16 10.5C16 11.3284 15.3284 12 14.5 12C14.2684 12 14.0491 11.9475 13.8533 11.8538L11.8538 13.8533C11.9475 14.0491 12 14.2684 12 14.5C12 15.3284 11.3284 16 10.5 16C9.67157 16 9 15.3284 9 14.5C9 13.6716 9.67157 13 10.5 13C10.7316 13 10.9509 13.0525 11.1467 13.1462L13.1462 11.1467C13.0525 10.9509 13 10.7316 13 10.5C13 9.67157 13.6716 9 14.5 9C15.3284 9 16 9.67157 16 10.5Z"/>
</svg>