<?xml version="1.0" encoding="UTF-8" standalone="yes"?>
<svg viewBox="0 0 20 20">
  <g>
    <path d="M14,5.4C14,4.7,13.2,4,12.5,4C11.8,4,11,4.7,11,5.4c0,0.8,1.2,2.1,1.5,2.6C12.8,7.6,14,6.2,14,5.4z"/>
    <path d="M9.7,10c0.3,0.1,0.7,0,1-0.3c0.4-0.4,0.4-1.1,0-1.5C10.4,8,10,7.9,9.7,8L8,6.3c0.1-0.3,0-0.7-0.3-1C7.5,5.1,7.3,5,7,5
		S6.5,5.1,6.3,5.3C6,5.6,5.9,6,6,6.3L4.3,8C4,7.9,3.6,8,3.3,8.3c-0.4,0.4-0.4,1.1,0,1.5C3.6,10,4,10.1,4.3,10L6,11.7
		c-0.1,0.3,0,0.7,0.3,1c0.4,0.4,1.1,0.4,1.5,0C8,12.4,8.1,12,8,11.7L9.7,10z M7.1,10.9c-0.1,0-0.1,0-0.2,0L5.1,9.1
		c0-0.1,0-0.1,0-0.2l1.8-1.8c0.1,0,0.1,0,0.2,0l1.8,1.8c0,0.1,0,0.1,0,0.2L7.1,10.9z"/>
    <path d="M14.5,9C13.7,9,13,9.7,13,10.5c0,0.2,0.1,0.4,0.2,0.6l-2,2c-0.2-0.1-0.4-0.2-0.6-0.2C9.7,13,9,13.7,9,14.5S9.7,16,10.5,16
		s1.5-0.7,1.5-1.5c0-0.2-0.1-0.4-0.1-0.6l2-2c0.2,0.1,0.4,0.2,0.6,0.2c0.8,0,1.5-0.7,1.5-1.5S15.3,9,14.5,9z"/>
  </g>
</svg>