<?xml version="1.0" encoding="UTF-8" standalone="yes"?>
<svg viewBox="0 0 18 18">
  <g>
    <path d="M13,4.4C13,3.7,12.2,3,11.5,3S10,3.7,10,4.4c0,0.8,1.2,2.1,1.5,2.6C11.8,6.6,13,5.2,13,4.4z"/>
    <path d="M8.7,9c0.3,0.1,0.7,0,1-0.3c0.4-0.4,0.4-1.1,0-1.5C9.4,7,9,6.9,8.7,7L7,5.3c0.1-0.3,0-0.7-0.3-1C6.5,4.1,6.3,4,6,4
		S5.5,4.1,5.3,4.3C5,4.6,4.9,5,5,5.3L3.3,7C3,6.9,2.6,7,2.3,7.3c-0.4,0.4-0.4,1.1,0,1.5C2.6,9,3,9.1,3.3,9L5,10.7
		c-0.1,0.3,0,0.7,0.3,1c0.4,0.4,1.1,0.4,1.5,0C7,11.4,7.1,11,7,10.7L8.7,9z M6.1,9.9c-0.1,0-0.1,0-0.2,0L4.1,8.1c0-0.1,0-0.1,0-0.2
		l1.8-1.8c0.1,0,0.1,0,0.2,0l1.8,1.8c0,0.1,0,0.1,0,0.2L6.1,9.9z"/>
    <path d="M13.5,8C12.7,8,12,8.7,12,9.5c0,0.2,0.1,0.4,0.2,0.6l-2,2C10,12,9.8,11.9,9.6,11.9C8.7,12,8,12.7,8,13.5S8.7,15,9.5,15
		s1.5-0.7,1.5-1.5c0-0.2-0.1-0.4-0.1-0.6l2-2c0.2,0.1,0.4,0.2,0.6,0.2c0.8,0,1.5-0.7,1.5-1.5S14.3,8,13.5,8z"/>
  </g>
</svg>