<?xml version="1.0" encoding="UTF-8" standalone="no"?>
<!-- Created with Inkscape (http://www.inkscape.org/) -->

<svg
   xmlns:dc="http://purl.org/dc/elements/1.1/"
   xmlns:cc="http://creativecommons.org/ns#"
   xmlns:rdf="http://www.w3.org/1999/02/22-rdf-syntax-ns#"
   xmlns:svg="http://www.w3.org/2000/svg"
   xmlns="http://www.w3.org/2000/svg"
   xmlns:sodipodi="http://sodipodi.sourceforge.net/DTD/sodipodi-0.dtd"
   xmlns:inkscape="http://www.inkscape.org/namespaces/inkscape"
   width="20"
   height="20"
   id="svg5738"
   version="1.1"
   inkscape:version="0.48.5 r10040"
   sodipodi:docname="polyline.svg">
  <defs
     id="defs5740" />
  <sodipodi:namedview
     id="base"
     pagecolor="#ffffff"
     bordercolor="#666666"
     borderopacity="1.0"
     inkscape:pageopacity="0.0"
     inkscape:pageshadow="2"
     inkscape:zoom="22.627417"
     inkscape:cx="7.5880811"
     inkscape:cy="11.45992"
     inkscape:document-units="px"
     inkscape:current-layer="layer1"
     showgrid="true"
     inkscape:window-width="1390"
     inkscape:window-height="884"
     inkscape:window-x="20"
     inkscape:window-y="20"
     inkscape:window-maximized="0"
     showguides="true"
     inkscape:guide-bbox="true">
    <inkscape:grid
       type="xygrid"
       id="grid5746"
       empspacing="5"
       visible="true"
       enabled="true"
       snapvisiblegridlinesonly="true" />
    <sodipodi:guide
       orientation="0,1"
       position="14,18.605747"
       id="guide4359" />
  </sodipodi:namedview>
  <metadata
     id="metadata5743">
    <rdf:RDF>
      <cc:Work
         rdf:about="">
        <dc:format>image/svg+xml</dc:format>
        <dc:type
           rdf:resource="http://purl.org/dc/dcmitype/StillImage" />
        <dc:title />
      </cc:Work>
    </rdf:RDF>
  </metadata>
  <g
     inkscape:label="Layer 1"
     inkscape:groupmode="layer"
     id="layer1"
     transform="translate(0,-1032.3622)">
    <path
       style="color:#000000;fill:#000000;fill-opacity:1;fill-rule:nonzero;stroke:none;stroke-width:3;marker:none;visibility:visible;display:inline;overflow:visible;enable-background:accumulate"
       d="M 13.5 4 C 12.119288 4 11 5.1192881 11 6.5 C 11 6.8208293 11.046144 7.124414 11.15625 7.40625 L 7.40625 11.15625 C 7.124414 11.046144 6.8208293 11 6.5 11 C 5.1192881 11 4 12.119288 4 13.5 C 4 14.880712 5.1192881 16 6.5 16 C 7.8807119 16 9 14.880712 9 13.5 C 9 13.179171 8.9538557 12.875586 8.84375 12.59375 L 12.59375 8.84375 C 12.875586 8.9538557 13.179171 9 13.5 9 C 14.880712 9 16 7.8807119 16 6.5 C 16 5.1192881 14.880712 4 13.5 4 z "
       transform="translate(0,1032.3622)"
       id="rect6467" />
  </g>
</svg>
