<?xml version="1.0" encoding="UTF-8" standalone="yes"?>
<svg viewBox="0 0 18 18" xmlns="http://www.w3.org/2000/svg">
  <path d="M9 1L12 4L10 4V6.5C10 7.05228 9.55228 7.5 9 7.5C8.44771 7.5 8 7.05228 8 6.5V4L6 4L9 1Z"/>
  <path d="M17 9L14 12V10H11.5C10.9477 10 10.5 9.55228 10.5 9C10.5 8.44772 10.9477 8 11.5 8H14V6L17 9Z"/>
  <path d="M6 14L9 17L12 14H10V11.5C10 10.9477 9.55229 10.5 9 10.5C8.44772 10.5 8 10.9477 8 11.5V14H6Z"/>
  <path d="M0.999999 9L4 6L4 8L6.5 8C7.05228 8 7.5 8.44772 7.5 9C7.5 9.55229 7.05228 10 6.5 10H4L4 12L0.999999 9Z"/>
</svg>