<?xml version="1.0" encoding="UTF-8" standalone="yes"?>
<svg viewBox="0 0 18 18">
  <path d="M15.7,8.4L13.4,6c-0.6-0.4-0.8-0.3-0.9-0.2C12,6.1,12.4,7.4,12.7,8c-0.2,0-0.5,0-0.7,0c-0.5,0-1,0.5-1,1s0.4,1,1,1
	c0.2,0,0.6,0,0.8,0c-0.2,0.6-0.6,1.8-0.2,2.1c0,0,0.2,0.2,0.8-0.1l2.3-2.3C16.1,9.3,16.1,8.8,15.7,8.4z"/>
  <path d="M8,5.3C8,5.5,8,5.8,8,6c0,0.5,0.5,1,1,1s1-0.4,1-1c0-0.2,0-0.4,0-0.6c0.6,0.2,1.8,0.6,2.1,0.2c0.1-0.1,0.3-0.4-0.1-1
	L9.6,2.3c-0.4-0.4-0.9-0.4-1.3,0L6,4.6C5.7,5.2,5.8,5.5,5.8,5.5C6.1,5.9,7.5,5.4,8,5.3z"/>
  <path d="M12.1,12.6c-0.3-0.4-1.5,0-2.1,0.2c0-0.3,0-0.6,0-0.8c0-0.6-0.5-1-1-1s-1,0.5-1,1c0,0.2,0,0.5,0,0.8
	c-0.6-0.2-1.9-0.7-2.2-0.3c-0.1,0.1-0.2,0.3,0.2,0.9l2.4,2.3c0.4,0.4,0.9,0.4,1.3,0l2.3-2.3C12.3,12.8,12.3,12.6,12.1,12.6z"/>
  <path d="M6,10c0.6,0,1-0.5,1-1S6.5,8,6,8C5.8,8,5.6,8,5.3,8c0.2-0.6,0.5-1.7,0.2-2C5.4,5.9,5.2,5.8,4.6,6.1L2.3,8.4
	c-0.4,0.4-0.4,0.9,0,1.3L4.6,12c0.6,0.4,0.8,0.3,0.9,0.2c0.4-0.3-0.1-1.7-0.3-2.2C5.5,10,5.8,10,6,10z"/>
</svg>