<?xml version="1.0" encoding="UTF-8" standalone="yes"?>
<svg viewBox="0 0 20 20">
  <path d="M16.7,9.4L14.4,7c-0.6-0.4-0.8-0.3-0.9-0.2C13,7.1,13.4,8.4,13.7,9c-0.2,0-0.5,0-0.7,0c-0.5,0-1,0.5-1,1s0.4,1,1,1
	c0.2,0,0.6,0,0.8,0c-0.2,0.6-0.6,1.8-0.2,2.1c0,0,0.2,0.2,0.8-0.1l2.3-2.3C17.1,10.3,17.1,9.8,16.7,9.4z"/>
  <path d="M9,6.3C9,6.5,9,6.8,9,7c0,0.5,0.5,1,1,1s1-0.4,1-1c0-0.2,0-0.4,0-0.6c0.6,0.2,1.8,0.6,2.1,0.2c0.1-0.1,0.3-0.4-0.1-1
	l-2.4-2.3c-0.4-0.4-0.9-0.4-1.3,0L7,5.6C6.7,6.2,6.8,6.5,6.8,6.5C7.1,6.9,8.5,6.4,9,6.3z"/>
  <path d="M13.1,13.6c-0.3-0.4-1.5,0-2.1,0.2c0-0.3,0-0.6,0-0.8c0-0.6-0.5-1-1-1s-1,0.5-1,1c0,0.2,0,0.5,0,0.8
	c-0.6-0.2-1.9-0.7-2.2-0.3c-0.1,0.1-0.2,0.3,0.2,0.9l2.4,2.3c0.4,0.4,0.9,0.4,1.3,0l2.3-2.3C13.3,13.8,13.3,13.6,13.1,13.6z"/>
  <path d="M7,11c0.6,0,1-0.5,1-1S7.5,9,7,9C6.8,9,6.6,9,6.3,9c0.2-0.6,0.5-1.7,0.2-2C6.4,6.9,6.2,6.8,5.6,7.1L3.3,9.4
	c-0.4,0.4-0.4,0.9,0,1.3L5.6,13c0.6,0.4,0.8,0.3,0.9,0.2c0.4-0.3-0.1-1.7-0.3-2.2C6.5,11,6.8,11,7,11z"/>
</svg>