<?xml version="1.0" encoding="utf-8"?>
<!-- Generator: Adobe Illustrator 19.0.1, SVG Export Plug-In . SVG Version: 6.00 Build 0)  -->
<svg version="1.1" id="Layer_1" xmlns="http://www.w3.org/2000/svg" xmlns:xlink="http://www.w3.org/1999/xlink" x="0px" y="0px"
	 viewBox="0 0 20 20" style="enable-background:new 0 0 20 20;" xml:space="preserve">
<path d="M14.4,13l2.3-2.3c0.4-0.4,0.4-0.9,0-1.3L14.4,7c-0.6-0.4-0.8-0.3-0.9-0.2c-0.6,0.4,0.2,2.3,0.4,2.5c0,0.4,0,1,0,1.4
	c0,0.1-0.8,2-0.3,2.4C13.6,13.1,13.8,13.3,14.4,13z"/>
<path d="M7,5.6l2.3-2.3c0.4-0.4,0.9-0.4,1.3,0L13,5.6c0.4,0.6,0.2,0.9,0.1,1c-0.4,0.5-2.3-0.3-2.5-0.4c-0.4,0-1,0-1.4,0
	c-0.1,0-2,0.8-2.4,0.3C6.8,6.5,6.7,6.2,7,5.6z"/>
<path d="M5.6,7.1L3.3,9.4c-0.4,0.4-0.4,0.9,0,1.3L5.6,13c0.6,0.4,0.8,0.3,0.9,0.2C7,12.9,6.2,11,6.2,10.8c0-0.4,0-1,0-1.4
	c0-0.1,0.8-2,0.3-2.4C6.4,6.9,6.2,6.8,5.6,7.1z"/>
<path d="M13,14.4l-2.3,2.3c-0.4,0.4-0.9,0.4-1.3,0L7,14.4c-0.4-0.6-0.3-0.8-0.2-0.9c0.4-0.5,2.3,0.3,2.5,0.4c0.4,0,1,0,1.4,0
	c0.1,0,2-0.8,2.4-0.3C13.3,13.6,13.3,13.8,13,14.4z"/>
<path d="M11,7c0-0.3,0-0.7,0-1H9c0,0.3,0,0.7,0,1c0,0.5,0.5,1,1,1C10.5,8,11,7.6,11,7z"/>
<path d="M11,13c0,0.3,0,0.7,0,1H9c0-0.3,0-0.7,0-1c0-0.5,0.5-1,1-1C10.5,12,11,12.4,11,13z"/>
<path d="M13,11c0.3,0,1,0,1,0V9c0,0-0.7,0-1,0c-0.5,0-1,0.5-1,1C12,10.5,12.4,11,13,11z"/>
<path d="M7,11c-0.3,0-0.7,0-1,0V9c0.3,0,0.7,0,1,0c0.5,0,1,0.5,1,1C8,10.5,7.6,11,7,11z"/>
</svg>
