<?xml version="1.0" encoding="UTF-8" standalone="yes"?>
<svg viewBox="0 0 18 18">
  <title id="title4167">Group</title>
  <path d="M 3 3 L 1 5 L 1 15 L 15 15 L 17 13 L 17 3 L 3 3 z M 6.7421875 5.4238281 C 7.7753875 5.4238281 8.4815656 5.7270406 8.8847656 6.3066406 C 9.2879656 6.8862406 9.5136718 7.7923531 9.5136719 9.0019531 C 9.5136718 9.8083531 9.4381186 10.439359 9.2617188 10.943359 C 9.0853187 11.447359 8.8096406 11.798972 8.4316406 12.076172 L 9.2363281 13.412109 L 8.2050781 13.890625 L 7.3222656 12.429688 C 7.1962656 12.480084 6.9939968 12.480469 6.7167969 12.480469 C 5.6835969 12.480469 4.9539813 12.202837 4.5507812 11.648438 C 4.1475812 11.094035 3.9453125 10.211553 3.9453125 9.0019531 C 3.9453125 7.7923531 4.1477719 6.9114406 4.5761719 6.3066406 C 4.9793718 5.7270406 5.7089875 5.4238281 6.7421875 5.4238281 z M 11.029297 5.828125 L 12.087891 5.828125 L 12.087891 7.2636719 L 13.474609 7.2636719 L 13.474609 8.1953125 L 12.087891 8.1953125 L 12.087891 10.388672 C 12.087891 10.791872 12.113853 11.069313 12.189453 11.195312 C 12.239853 11.321314 12.390578 11.396484 12.642578 11.396484 L 13.449219 11.371094 L 13.5 12.228516 C 13.0716 12.329316 12.742234 12.378906 12.490234 12.378906 C 11.935834 12.378906 11.533631 12.253953 11.332031 12.001953 C 11.130431 11.749953 11.029297 11.244663 11.029297 10.539062 L 11.029297 8.1953125 L 10.273438 8.1953125 L 10.273438 7.2636719 L 11.029297 7.2636719 L 11.029297 5.828125 z M 6.7167969 6.40625 C 6.0867968 6.40625 5.6584406 6.6087094 5.4316406 7.0371094 C 5.2048406 7.4403094 5.0800781 8.0947531 5.0800781 9.0019531 C 5.0800781 9.9091531 5.17945 10.565359 5.40625 10.943359 C 5.63305 11.321359 6.0614063 11.521484 6.6914062 11.521484 C 7.3214062 11.521484 7.7497625 11.321359 7.9765625 10.943359 C 8.2033625 10.565359 8.3046875 9.9091531 8.3046875 9.0019531 C 8.3046875 8.0947531 8.1779719 7.4401186 7.9511719 7.0117188 C 7.7495719 6.6085188 7.3467968 6.40625 6.7167969 6.40625 z "/>
</svg>