<?xml version="1.0" encoding="UTF-8" standalone="yes"?>
<svg viewBox="0 0 18 18" xmlns="http://www.w3.org/2000/svg">
  <path fill-rule="evenodd" clip-rule="evenodd" d="M9 16C12.866 16 16 12.866 16 9C16 5.13401 12.866 2 9 2C5.13401 2 2 5.13401 2 9C2 12.866 5.13401 16 9 16ZM6.88128 4.88128C7.36552 4.39704 8.02229 4.125 8.70711 4.125H9.79289C10.4777 4.125 11.1345 4.39704 11.6187 4.88128C12.103 5.36552 12.375 6.02229 12.375 6.70711V6.86762C12.375 7.8775 11.8451 8.81333 10.9792 9.33291L10.4212 9.6677C10.1547 9.82759 9.96958 10.0882 9.90264 10.3844C9.87221 10.5191 9.76307 10.6324 9.625 10.6324H8.375C8.23693 10.6324 8.12387 10.5202 8.13584 10.3826C8.21527 9.47002 8.72673 8.64354 9.52082 8.16709L10.0788 7.8323C10.4177 7.62899 10.625 7.26279 10.625 6.86762V6.70711C10.625 6.48642 10.5373 6.27477 10.3813 6.11872C10.2252 5.96267 10.0136 5.875 9.79289 5.875H8.70711C8.48642 5.875 8.27477 5.96267 8.11872 6.11872C7.96267 6.27477 7.875 6.48642 7.875 6.70711V6.8889C7.875 7.37215 7.48325 7.7639 7 7.7639C6.51675 7.7639 6.125 7.37215 6.125 6.8889V6.70711C6.125 6.02229 6.39704 5.36552 6.88128 4.88128ZM10 13C10 13.5523 9.55228 14 9 14C8.44772 14 8 13.5523 8 13C8 12.4477 8.44772 12 9 12C9.55228 12 10 12.4477 10 13Z"/>
</svg>