<?xml version="1.0" encoding="UTF-8" standalone="yes"?>
<svg viewBox="0 0 18 18">
  <path d="M9,2C5.1,2,2,5.1,2,9s3.1,7,7,7s7-3.1,7-7S12.9,2,9,2z M9.1,5c0.8,0,1.5,0.2,1.9,0.6c0.5,0.4,0.7,0.9,0.7,1.6
	c0,0.4-0.1,0.8-0.3,1.1S10.8,9,10.3,9.4c-0.4,0.3-0.6,0.5-0.7,0.7c0,0-1.1,0-1.6,0c0,0,0-0.3,0.1-0.6C8.3,9.2,8.5,8.9,9,8.6
	c0.4-0.3,0.7-0.5,0.8-0.7C9.9,7.7,10,7.5,10,7.2S9.9,6.7,9.7,6.6S9.3,6.4,8.9,6.4c-0.6,0-1.2,0.2-2,0.6L6.3,5.8C7.2,5.3,8.1,5,9.1,5
	z M9,11c0.3,0,0.6,0.1,0.8,0.2c0.2,0.2,0.3,0.4,0.3,0.8c0,0.3-0.1,0.5-0.3,0.7S9.3,13,9,13s-0.6-0.1-0.8-0.2C8.1,12.6,8,12.3,8,12
	s0.1-0.6,0.3-0.8C8.4,11.1,8.7,11,9,11z"/>
</svg>