<?xml version="1.0" encoding="UTF-8" standalone="no"?>
<!-- Created with Inkscape (http://www.inkscape.org/) -->

<svg
   xmlns:dc="http://purl.org/dc/elements/1.1/"
   xmlns:cc="http://creativecommons.org/ns#"
   xmlns:rdf="http://www.w3.org/1999/02/22-rdf-syntax-ns#"
   xmlns:svg="http://www.w3.org/2000/svg"
   xmlns="http://www.w3.org/2000/svg"
   xmlns:sodipodi="http://sodipodi.sourceforge.net/DTD/sodipodi-0.dtd"
   xmlns:inkscape="http://www.inkscape.org/namespaces/inkscape"
   width="20"
   height="20"
   id="svg5738"
   version="1.1"
   inkscape:version="0.91+devel+osxmenu r12911"
   sodipodi:docname="quotes.svg"
   viewBox="0 0 20 20">
  <defs
     id="defs5740" />
  <sodipodi:namedview
     id="base"
     pagecolor="#ffffff"
     bordercolor="#666666"
     borderopacity="1.0"
     inkscape:pageopacity="0.0"
     inkscape:pageshadow="2"
     inkscape:zoom="45.254834"
     inkscape:cx="9.7248634"
     inkscape:cy="9.0766988"
     inkscape:document-units="px"
     inkscape:current-layer="layer1"
     showgrid="true"
     inkscape:window-width="1033"
     inkscape:window-height="844"
     inkscape:window-x="426"
     inkscape:window-y="17"
     inkscape:window-maximized="0"
     inkscape:snap-bbox="true"
     inkscape:snap-nodes="true"
     inkscape:bbox-paths="true"
     inkscape:bbox-nodes="true"
     inkscape:object-paths="true"
     inkscape:object-nodes="true"
     inkscape:snap-smooth-nodes="true">
    <inkscape:grid
       type="xygrid"
       id="grid5746"
       empspacing="5"
       visible="true"
       enabled="true"
       snapvisiblegridlinesonly="true" />
  </sodipodi:namedview>
  <metadata
     id="metadata5743">
    <rdf:RDF>
      <cc:Work
         rdf:about="">
        <dc:format>image/svg+xml</dc:format>
        <dc:type
           rdf:resource="http://purl.org/dc/dcmitype/StillImage" />
        <dc:title></dc:title>
      </cc:Work>
    </rdf:RDF>
  </metadata>
  <g
     inkscape:label="Layer 1"
     inkscape:groupmode="layer"
     id="layer1"
     transform="translate(0,-1032.3622)">
    <text
       xml:space="preserve"
       style="font-style:normal;font-weight:normal;font-size:40px;line-height:125%;font-family:sans-serif;letter-spacing:0px;word-spacing:0px;fill:#000000;fill-opacity:1;stroke:none;stroke-width:1px;stroke-linecap:butt;stroke-linejoin:miter;stroke-opacity:1"
       x="3"
       y="1042.3622"
       id="text8989"
       sodipodi:linespacing="125%"><tspan
         sodipodi:role="line"
         id="tspan8991"
         x="3"
         y="1042.3622" /></text>
    <path
       style="opacity:1;fill:#000000;fill-opacity:1;stroke:none;stroke-width:1.49999988;stroke-linecap:round;stroke-linejoin:round;stroke-miterlimit:4;stroke-dasharray:none;stroke-dashoffset:0;stroke-opacity:1;marker:none"
       d="M 6 5 C 6 5 5 5 5 6 L 5 9 C 5 11 7 12 7 12 C 7.738589 12.4264 8.440433 11.7629 8 11 C 8 11 7 10 7 9 L 9 9 C 9 9 10 9 10 8 L 10 6 C 10 6 10 5 9 5 L 6 5 z M 12.470703 7.8691406 C 11.982363 7.9116234 11.669675 8.427825 12 9 C 12 9 13 10 13 11 L 11 11 C 11 11 10 11 10 12 L 10 14 C 10 14 10 15 11 15 L 14 15 C 14 15 15 15 15 14 L 15 11 C 15 9 13 8 13 8 C 12.815353 7.8934 12.633483 7.8549797 12.470703 7.8691406 z "
       transform="translate(0,1032.3622)"
       id="path9022" />
  </g>
</svg>
