<?xml version="1.0" encoding="UTF-8" standalone="yes"?>
<svg viewBox="0 0 18 18" xmlns="http://www.w3.org/2000/svg">
  <path d="M4.71982 5.29455L4.71764 5.29674L4.71173 5.30272L4.69393 5.32097C4.67948 5.3359 4.65998 5.35631 4.63613 5.38186C4.5885 5.43289 4.5232 5.5048 4.4461 5.59475C4.29281 5.77359 4.08825 6.02913 3.88224 6.33816C3.49189 6.92368 3 7.84228 3 8.85715V11.9643C3 12.5166 3.44772 12.9643 4 12.9643H7C7.55228 12.9643 8 12.5166 8 11.9643V8.96429C8 8.41201 7.55228 7.96429 7 7.96429H5.24731C5.3309 7.79257 5.43233 7.61857 5.54634 7.44756C5.69746 7.22087 5.85005 7.02999 5.96461 6.89633C6.02145 6.83002 6.06775 6.77917 6.09824 6.74649C6.11346 6.73019 6.12465 6.71852 6.13113 6.71182L6.13721 6.70557L6.13631 6.70648C6.5262 6.3159 6.52599 5.68321 6.13568 5.2929C5.74515 4.90237 5.11163 4.90273 4.7211 5.29326L4.71982 5.29455Z"/>
  <path d="M12.2473 7.96429C12.3309 7.79257 12.4323 7.61857 12.5463 7.44756C12.6975 7.22087 12.8501 7.02999 12.9646 6.89633C13.0214 6.83002 13.0677 6.77917 13.0982 6.74649C13.1135 6.73019 13.1246 6.71852 13.1311 6.71182L13.1372 6.70557L13.1363 6.70648C13.5262 6.3159 13.526 5.68321 13.1357 5.2929C12.7452 4.90237 12.1116 4.90273 11.7211 5.29326L11.7198 5.29455L11.7176 5.29674L11.7117 5.30272L11.6939 5.32097C11.6795 5.3359 11.66 5.35631 11.6361 5.38186C11.5885 5.43289 11.5232 5.5048 11.4461 5.59475C11.2928 5.77359 11.0883 6.02913 10.8822 6.33816C10.4919 6.92368 10 7.84228 10 8.85715V11.9643C10 12.5166 10.4477 12.9643 11 12.9643H14C14.5523 12.9643 15 12.5166 15 11.9643V8.96429C15 8.41201 14.5523 7.96429 14 7.96429H12.2473Z"/>
</svg>