<?xml version="1.0" encoding="UTF-8" standalone="yes"?>
<svg viewBox="0 0 18 18" xmlns="http://www.w3.org/2000/svg">
  <path d="M3 4C3 3.44772 3.44772 3 4 3H7C7.55228 3 8 3.44772 8 4V7C8 7.55228 7.55228 8 7 8H4C3.44772 8 3 7.55228 3 7V4Z"/>
  <path d="M3 11C3 10.4477 3.44772 10 4 10H7C7.55228 10 8 10.4477 8 11V14C8 14.5523 7.55228 15 7 15H4C3.44772 15 3 14.5523 3 14V11Z"/>
  <path d="M11 10C10.4477 10 10 10.4477 10 11V14C10 14.5523 10.4477 15 11 15H14C14.5523 15 15 14.5523 15 14V11C15 10.4477 14.5523 10 14 10H11Z"/>
</svg>