<?xml version="1.0" encoding="UTF-8" standalone="yes"?>
<svg viewBox="0 0 18 18">
  <path d="M8,2C7.7,2,7.4,2.1,7.3,2.3L5.4,4.1C5,4.6,5,5,5,5s0,0.4,0.4,0.9l1.8,1.8C7.4,7.9,7.7,8,8,8c0.6,0,1-0.4,1-1V6h2
	c0,0,1,0,1,1v2c0,0.6,0.4,1,1,1s1-0.4,1-1V7c0-1.5-1.5-3-3-3H9V3C9,2.4,8.6,2,8,2z M5,8C4.4,8,4,8.4,4,9v2c0,1.5,1.5,3,3,3h2v1
	c0,0.6,0.4,1,1,1c0.3,0,0.6-0.1,0.7-0.3l1.8-1.8C13,13.4,13,13,13,13s0-0.4-0.4-0.9l-1.8-1.8C10.6,10.1,10.3,10,10,10
	c-0.6,0-1,0.4-1,1v1H7c0,0-1,0-1-1V9C6,8.4,5.6,8,5,8z"/>
</svg>