<?xml version="1.0" encoding="UTF-8" standalone="yes"?>
<svg viewBox="0 0 18 18" xmlns="http://www.w3.org/2000/svg">
  <path d="M6.71612 5.71612L9 8L3 7.98834V2L5.28692 4.28692C5.77887 3.89935 6.33208 3.58832 6.92869 3.36886C8.246 2.88432 9.69149 2.87694 11.0137 3.348C12.3359 3.81907 13.4511 4.73876 14.1652 5.94708C14.8794 7.1554 15.1474 8.57585 14.9225 9.96132C14.6976 11.3468 13.9941 12.6096 12.9344 13.5299C11.8747 14.4503 10.5259 14.9701 9.12257 14.9987C7.71927 15.0274 6.35032 14.5632 5.25391 13.6869C4.1575 12.8105 3.40301 11.5776 3.12172 10.2024C3.01104 9.66136 3.35995 9.133 3.90103 9.02232C4.44211 8.91164 4.97047 9.26054 5.08115 9.80163C5.26867 10.7184 5.77167 11.5404 6.50261 12.1246C7.23355 12.7088 8.14618 13.0183 9.08171 12.9992C10.0172 12.9801 10.9165 12.6336 11.6229 12.02C12.3294 11.4064 12.7984 10.5645 12.9483 9.64088C13.0982 8.71724 12.9196 7.77026 12.4435 6.96472C11.9674 6.15917 11.2239 5.54604 10.3425 5.232C9.46099 4.91796 8.49733 4.92288 7.61913 5.24591C7.29704 5.36438 6.99393 5.52289 6.71612 5.71612Z"/>
</svg>