<?xml version="1.0" encoding="UTF-8" standalone="yes"?>
<svg viewBox="0 0 20 20">
  <path d="M9,3C8.7,3,8.4,3.1,8.3,3.3L6.4,5.1C6,5.6,6,6,6,6s0,0.4,0.4,0.9l1.8,1.8C8.4,8.9,8.7,9,9,9c0.6,0,1-0.4,1-1V7h2
	c0,0,1,0,1,1v2c0,0.6,0.4,1,1,1c0.6,0,1-0.4,1-1V8c0-1.5-1.5-3-3-3h-2V4C10,3.4,9.6,3,9,3z M6,9c-0.6,0-1,0.4-1,1v2c0,1.5,1.5,3,3,3
	h2v1c0,0.6,0.4,1,1,1c0.3,0,0.6-0.1,0.7-0.3l1.8-1.8C14,14.4,14,14,14,14s0-0.4-0.4-0.9l-1.8-1.8C11.6,11.1,11.3,11,11,11
	c-0.6,0-1,0.4-1,1v1H8c0,0-1,0-1-1v-2C7,9.4,6.6,9,6,9z"/>
</svg>