<?xml version="1.0" encoding="UTF-8" standalone="yes"?>
<svg viewBox="0 0 18 18">
  <g>
    <path d="M9,2C8.3,2,7.6,2.5,7.4,3.2C6.8,2.8,6,3,5.5,3.5C4.9,4,4.8,4.8,5.2,5.4C4.5,5.6,4,6.3,4,7s0.5,1.4,1.2,1.6
		C4.8,9.2,5,10,5.5,10.5l0.1,0.1L4,14.5L6,14l1,2l2-5l2,5l1-2l2,0.5l-1.6-3.9l0.1-0.1c0.5-0.5,0.6-1.3,0.3-1.9C13.5,8.4,14,7.7,14,7
		s-0.5-1.4-1.2-1.6C13.2,4.8,13,4,12.5,3.5s-1.3-0.6-1.9-0.3C10.4,2.5,9.7,2,9,2z M9,4.8c1.2,0,2.2,1,2.2,2.2l0,0
		c0,1.2-1,2.2-2.2,2.2l0,0c-1.2,0-2.2-1-2.2-2.2l0,0C6.8,5.8,7.8,4.8,9,4.8L9,4.8z M9,5.8C8.3,5.8,7.8,6.3,7.8,7S8.3,8.2,9,8.2
		s1.2-0.6,1.2-1.2S9.7,5.8,9,5.8z"/>
  </g>
</svg>