<?xml version="1.0" encoding="UTF-8" standalone="no"?>
<!-- Created with Inkscape (http://www.inkscape.org/) -->

<svg
   xmlns:dc="http://purl.org/dc/elements/1.1/"
   xmlns:cc="http://creativecommons.org/ns#"
   xmlns:rdf="http://www.w3.org/1999/02/22-rdf-syntax-ns#"
   xmlns:svg="http://www.w3.org/2000/svg"
   xmlns="http://www.w3.org/2000/svg"
   xmlns:sodipodi="http://sodipodi.sourceforge.net/DTD/sodipodi-0.dtd"
   xmlns:inkscape="http://www.inkscape.org/namespaces/inkscape"
   width="20"
   height="20"
   viewBox="0 0 20 20"
   id="svg4136"
   version="1.1"
   inkscape:version="0.91 r13725"
   sodipodi:docname="ribbon.svg">
  <defs
     id="defs4138" />
  <sodipodi:namedview
     id="base"
     pagecolor="#ffffff"
     bordercolor="#666666"
     borderopacity="1.0"
     inkscape:pageopacity="0.0"
     inkscape:pageshadow="2"
     inkscape:zoom="32"
     inkscape:cx="11.040995"
     inkscape:cy="9.9412083"
     inkscape:document-units="px"
     inkscape:current-layer="layer1"
     showgrid="true"
     units="px"
     showborder="true"
     inkscape:window-width="1711"
     inkscape:window-height="1007"
     inkscape:window-x="645"
     inkscape:window-y="208"
     inkscape:window-maximized="0"
     inkscape:snap-bbox="true"
     inkscape:bbox-paths="true"
     inkscape:bbox-nodes="true"
     inkscape:snap-bbox-edge-midpoints="true"
     inkscape:object-paths="true"
     inkscape:object-nodes="true">
    <inkscape:grid
       type="xygrid"
       id="grid4684"
       color="#ee3f00"
       opacity="0.1254902"
       empspacing="2"
       spacingx="0.5"
       spacingy="0.5"
       dotted="false" />
  </sodipodi:namedview>
  <metadata
     id="metadata4141">
    <rdf:RDF>
      <cc:Work
         rdf:about="">
        <dc:format>image/svg+xml</dc:format>
        <dc:type
           rdf:resource="http://purl.org/dc/dcmitype/StillImage" />
        <dc:title></dc:title>
      </cc:Work>
    </rdf:RDF>
  </metadata>
  <g
     inkscape:label="Layer 1"
     inkscape:groupmode="layer"
     id="layer1"
     transform="translate(0,-1032.3622)">
    <path
       style="color:#000000;clip-rule:nonzero;display:inline;overflow:visible;visibility:visible;opacity:1;isolation:auto;mix-blend-mode:normal;color-interpolation:sRGB;color-interpolation-filters:linearRGB;solid-color:#000000;solid-opacity:1;fill:#000000;fill-opacity:1;fill-rule:nonzero;stroke:none;stroke-width:1;stroke-linecap:butt;stroke-linejoin:round;stroke-miterlimit:4;stroke-dasharray:none;stroke-dashoffset:0;stroke-opacity:1;marker:none;color-rendering:auto;image-rendering:auto;shape-rendering:auto;text-rendering:auto;enable-background:accumulate"
       d="m 10,1035.3622 a 1.6666609,1.6666609 0 0 0 -1.5878906,1.166 1.6666609,1.6666609 0 0 0 -1.9472656,0.2988 1.6666609,1.6666609 0 0 0 -0.3007813,1.9493 A 1.6666609,1.6666609 0 0 0 5,1040.3622 a 1.6666609,1.6666609 0 0 0 1.1660156,1.5879 1.6666609,1.6666609 0 0 0 0.2988282,1.9473 1.6666609,1.6666609 0 0 0 0.087891,0.082 L 5,1047.8622 l 2,-0.5 1,2 2,-5 2,5 1,-2 2,0.5 -1.554688,-3.8848 a 1.6666609,1.6666609 0 0 0 0.08984,-0.08 1.6666609,1.6666609 0 0 0 0.300782,-1.9493 1.6666609,1.6666609 0 0 0 1.164062,-1.5859 1.6666609,1.6666609 0 0 0 -1.166016,-1.5879 1.6666609,1.6666609 0 0 0 -0.298828,-1.9473 1.6666609,1.6666609 0 0 0 -1.949218,-0.3007 A 1.6666609,1.6666609 0 0 0 10,1035.3622 Z m 0,2.75 a 2.25,2.25 0 0 1 2.25,2.25 2.25,2.25 0 0 1 -2.25,2.25 2.25,2.25 0 0 1 -2.25,-2.25 2.25,2.25 0 0 1 2.25,-2.25 z m 0,1 a 1.25,1.25 0 0 0 -1.25,1.25 1.25,1.25 0 0 0 1.25,1.25 1.25,1.25 0 0 0 1.25,-1.25 1.25,1.25 0 0 0 -1.25,-1.25 z"
       id="path4187"
       inkscape:connector-curvature="0" />
  </g>
</svg>
