<?xml version="1.0" encoding="UTF-8" standalone="yes"?>
<svg viewBox="0 0 18 18" xmlns="http://www.w3.org/2000/svg">
  <path d="M12.2581 11.3205C11.7307 12.061 10.9667 12.5998 10.092 12.848C9.21738 13.0963 8.28425 13.0391 7.44643 12.686C6.60861 12.3329 5.91608 11.7048 5.48298 10.9054C5.04988 10.106 4.90205 9.18288 5.06385 8.28819C5.22564 7.3935 5.68741 6.58062 6.37306 5.98352C7.05871 5.38641 7.92732 5.04071 8.83575 5.00338C9.74419 4.96604 10.6382 5.23931 11.3706 5.77814C11.8154 6.10544 12.4414 6.01016 12.7687 5.56531C13.096 5.12047 13.0007 4.49451 12.5558 4.1672C11.4574 3.35896 10.1163 2.94906 8.75363 3.00506C7.39098 3.06106 6.08806 3.57962 5.05959 4.47528C4.03112 5.37093 3.33846 6.59025 3.09577 7.93228C2.85307 9.27431 3.07482 10.659 3.72447 11.8581C4.37412 13.0572 5.41291 13.9993 6.66964 14.529C7.92638 15.0587 9.32607 15.1444 10.6381 14.7721C11.9501 14.3997 13.0961 13.5915 13.8872 12.4807C14.4166 11.7374 14.7659 10.8884 14.9161 10H17L14 6L11 10H12.873C12.7514 10.4708 12.5442 10.9188 12.2581 11.3205Z"/>
</svg>