<?xml version="1.0" encoding="UTF-8" standalone="yes"?>
<svg viewBox="0 0 18 18" xmlns="http://www.w3.org/2000/svg">
  <path d="M5 5C6.05058 5 7.09086 5.20693 8.06147 5.60896C9.03207 6.011 9.91399 6.60028 10.6569 7.34315C11.3997 8.08602 11.989 8.96793 12.391 9.93853C12.7931 10.9091 13 11.9494 13 13L15 13C15 11.6868 14.7413 10.3864 14.2388 9.17317C13.7362 7.95991 12.9997 6.85752 12.0711 5.92893C11.1425 5.00035 10.0401 4.26375 8.82683 3.7612C7.61358 3.25866 6.31322 3 5 3V5Z"/>
  <path d="M6.53073 9.30448C6.04543 9.10346 5.52529 9 5 9V7C5.78793 7 6.56815 7.15519 7.2961 7.45672C8.02405 7.75825 8.68549 8.20021 9.24264 8.75736C9.79979 9.31451 10.2417 9.97595 10.5433 10.7039C10.8448 11.4319 11 12.2121 11 13L9 13C9 12.4747 8.89654 11.9546 8.69552 11.4693C8.4945 10.984 8.19986 10.543 7.82843 10.1716C7.45699 9.80014 7.01604 9.5055 6.53073 9.30448Z"/>
  <path d="M7 13C7 14.1046 6.10457 15 5 15C3.89543 15 3 14.1046 3 13C3 11.8954 3.89543 11 5 11C6.10457 11 7 11.8954 7 13Z"/>
</svg>