<?xml version="1.0" encoding="UTF-8" standalone="yes"?>
<svg viewBox="0 0 18 18" xmlns="http://www.w3.org/2000/svg">
  <path d="M8 3C7.44772 3 7 3.44772 7 4V7.5C7 7.77614 6.77614 8 6.5 8C6.22386 8 6 7.77614 6 7.5V6C6 5.44772 5.55228 5 5 5H2C1.44772 5 1 5.44772 1 6V12C1 12.5523 1.44772 13 2 13H5C5.55228 13 6 12.5523 6 12V10.5C6 10.2239 6.22386 10 6.5 10C6.77614 10 7 10.2239 7 10.5V14C7 14.5523 7.44772 15 8 15H10C10.5523 15 11 14.5523 11 14V10.5C11 10.2239 11.2239 10 11.5 10C11.7761 10 12 10.2239 12 10.5V12C12 12.5523 12.4477 13 13 13H16C16.5523 13 17 12.5523 17 12V6C17 5.44772 16.5523 5 16 5H13C12.4477 5 12 5.44772 12 6V7.5C12 7.77614 11.7761 8 11.5 8C11.2239 8 11 7.77614 11 7.5V4C11 3.44772 10.5523 3 10 3H8ZM2 6.5C2 6.22386 2.22386 6 2.5 6C2.77614 6 3 6.22386 3 6.5V11.5C3 11.7761 2.77614 12 2.5 12C2.22386 12 2 11.7761 2 11.5V6.5ZM4 6.5C4 6.22386 4.22386 6 4.5 6C4.77614 6 5 6.22386 5 6.5V11.5C5 11.7761 4.77614 12 4.5 12C4.22386 12 4 11.7761 4 11.5V6.5ZM13 6.5C13 6.22386 13.2239 6 13.5 6C13.7761 6 14 6.22386 14 6.5V11.5C14 11.7761 13.7761 12 13.5 12C13.2239 12 13 11.7761 13 11.5V6.5ZM15 6.5C15 6.22386 15.2239 6 15.5 6C15.7761 6 16 6.22386 16 6.5V11.5C16 11.7761 15.7761 12 15.5 12C15.2239 12 15 11.7761 15 11.5V6.5Z"/>
</svg>