<?xml version="1.0" encoding="UTF-8" standalone="no"?>
<!-- Created with Inkscape (http://www.inkscape.org/) -->

<svg
   xmlns:dc="http://purl.org/dc/elements/1.1/"
   xmlns:cc="http://creativecommons.org/ns#"
   xmlns:rdf="http://www.w3.org/1999/02/22-rdf-syntax-ns#"
   xmlns:svg="http://www.w3.org/2000/svg"
   xmlns="http://www.w3.org/2000/svg"
   xmlns:sodipodi="http://sodipodi.sourceforge.net/DTD/sodipodi-0.dtd"
   xmlns:inkscape="http://www.inkscape.org/namespaces/inkscape"
   width="20"
   height="20"
   viewBox="0 0 20 20"
   id="svg4136"
   version="1.1"
   inkscape:version="0.91 r13725"
   sodipodi:docname="server.svg">
  <defs
     id="defs4138" />
  <sodipodi:namedview
     id="base"
     pagecolor="#ffffff"
     bordercolor="#666666"
     borderopacity="1.0"
     inkscape:pageopacity="0.0"
     inkscape:pageshadow="2"
     inkscape:zoom="22.627417"
     inkscape:cx="7.6388325"
     inkscape:cy="10.000017"
     inkscape:document-units="px"
     inkscape:current-layer="layer1"
     showgrid="true"
     units="px"
     showborder="true"
     inkscape:window-width="1280"
     inkscape:window-height="778"
     inkscape:window-x="1598"
     inkscape:window-y="197"
     inkscape:window-maximized="0"
     inkscape:snap-bbox="true"
     inkscape:bbox-paths="true"
     inkscape:bbox-nodes="true"
     inkscape:snap-bbox-edge-midpoints="true">
    <inkscape:grid
       type="xygrid"
       id="grid4684"
       color="#ee3f00"
       opacity="0.1254902"
       empspacing="2"
       spacingx="0.5"
       spacingy="0.5"
       dotted="false" />
  </sodipodi:namedview>
  <metadata
     id="metadata4141">
    <rdf:RDF>
      <cc:Work
         rdf:about="">
        <dc:format>image/svg+xml</dc:format>
        <dc:type
           rdf:resource="http://purl.org/dc/dcmitype/StillImage" />
        <dc:title />
      </cc:Work>
    </rdf:RDF>
  </metadata>
  <g
     inkscape:label="Layer 1"
     inkscape:groupmode="layer"
     id="layer1"
     transform="translate(0,-1032.3622)">
    <path
       style="fill:#000000;fill-opacity:1;stroke:none;stroke-width:2;stroke-linecap:round;stroke-linejoin:round;stroke-miterlimit:4;stroke-dasharray:none;stroke-opacity:1"
       d="M 5.5 14 C 4.669004 14 4 14.669004 4 15.5 C 4 16.330996 4.669004 17 5.5 17 L 14.5 17 C 15.330996 17 16 16.330996 16 15.5 C 16 14.669004 15.330996 14 14.5 14 L 5.5 14 z M 5.5332031 15 A 0.50005 0.50005 0 0 1 5.5839844 15 L 5.8632812 15 A 0.50005 0.50005 0 1 1 5.8632812 16 L 5.5839844 16 A 0.50005 0.50005 0 0 1 5.5332031 15 z M 7.9414062 15 A 0.50005 0.50005 0 0 1 7.9921875 15 L 14.492188 15 A 0.50005 0.50005 0 1 1 14.492188 16 L 7.9921875 16 A 0.50064427 0.50064427 0 1 1 7.9414062 15 z "
       transform="translate(0,1032.3622)"
       id="rect4135" />
    <path
       style="fill:#000000;fill-opacity:1;stroke:none;stroke-width:2;stroke-linecap:round;stroke-linejoin:round;stroke-miterlimit:4;stroke-dasharray:none;stroke-opacity:1"
       d="M 5.5 10 C 4.6690049 10 4 10.669 4 11.5 C 4 12.331 4.6690049 13 5.5 13 L 14.5 13 C 15.330995 13 16 12.331 16 11.5 C 16 10.669 15.330995 10 14.5 10 L 5.5 10 z M 5.4960938 11 A 0.50005 0.50005 0 0 1 5.546875 11 L 5.8320312 11 A 0.50005 0.50005 0 1 1 5.8320312 12 L 5.546875 12 A 0.50005 0.50005 0 0 1 5.4960938 11 z M 7.9414062 11 A 0.50005 0.50005 0 0 1 7.9921875 11 L 14.492188 11 A 0.50005 0.50005 0 1 1 14.492188 12 L 7.9921875 12 A 0.50064427 0.50064427 0 1 1 7.9414062 11 z "
       transform="translate(0,1032.3622)"
       id="rect4137" />
    <path
       style="fill:#000000;fill-opacity:1;stroke:none;stroke-width:2;stroke-linecap:round;stroke-linejoin:round;stroke-miterlimit:4;stroke-dasharray:none;stroke-opacity:1"
       d="M 10 3 A 3.25 2.9999847 0 0 0 6.7949219 5.5175781 C 5.7853649 5.608042 5 6.3419744 5 7.25 C 5 8.2194903 5.8920001 9 7 9 L 10 9 L 13 9 C 14.108 9 15 8.2194903 15 7.25 C 15 6.3425555 14.215652 5.6088175 13.207031 5.5175781 A 3.25 2.9999847 0 0 0 10 3 z "
       transform="translate(0,1032.3622)"
       id="rect4139" />
  </g>
</svg>
