<?xml version="1.0" encoding="UTF-8" standalone="yes"?>
<svg viewBox="0 0 18 18" xmlns="http://www.w3.org/2000/svg">
  <path d="M7 2C7 1.44772 6.55229 1 6 1C5.44772 1 5 1.44772 5 2V5H2C1.44772 5 1 5.44772 1 6C1 6.55228 1.44772 7 2 7H7V2Z"/>
  <path d="M11 2C11 1.44772 11.4477 1 12 1C12.5523 1 13 1.44772 13 2V5H16C16.5523 5 17 5.44772 17 6C17 6.55228 16.5523 7 16 7H11V2Z"/>
  <path d="M1 12C1 11.4477 1.44772 11 2 11H7V16C7 16.5523 6.55229 17 6 17C5.44772 17 5 16.5523 5 16V13H2C1.44772 13 1 12.5523 1 12Z"/>
  <path d="M16 11C16.5523 11 17 11.4477 17 12C17 12.5523 16.5523 13 16 13H13V16C13 16.5523 12.5523 17 12 17C11.4477 17 11 16.5523 11 16V11H16Z"/>
</svg>