<?xml version="1.0" encoding="UTF-8" standalone="yes"?>
<svg viewBox="0 0 20 20">
  <path d="M4.2,3.5c-0.4,0-0.8,0.3-0.8,0.7c0,0.2,0.1,0.4,0.2,0.5L6,7L4,8.5V9h4c0.5,0,1-0.5,1-1V4H8.5L7,6L4.8,3.7
	C4.6,3.6,4.4,3.5,4.2,3.5z M15.7,3.5c-0.2,0-0.4,0.1-0.5,0.2L13,6l-1.5-2H11v4c0,0.5,0.5,1,1,1h4V8.5L14,7l2.2-2.2
	c0.3-0.3,0.3-0.8,0-1.1C16.2,3.6,15.9,3.5,15.7,3.5z M4,11v0.5L6,13l-2.2,2.2c-0.3,0.3-0.3,0.8,0,1.1s0.8,0.3,1.1,0L7,14l1.5,2H9v-4
	c0-0.5-0.5-1-1-1H4z M12,11c-0.5,0-1,0.5-1,1v4h0.5l1.5-2l2.2,2.2c0.3,0.3,0.8,0.3,1.1,0s0.3-0.8,0-1.1L14,13l2-1.5V11H12z"/>
</svg>