<?xml version="1.0" encoding="UTF-8" standalone="yes"?>
<svg viewBox="0 0 18 18">
  <path d="M3.2,2.5c-0.4,0-0.8,0.3-0.8,0.7c0,0.2,0.1,0.4,0.2,0.5L5,6L3,7.5V8h4c0.5,0,1-0.5,1-1V3H7.5L6,5L3.8,2.7
	C3.6,2.6,3.4,2.5,3.2,2.5z M14.7,2.5c-0.2,0-0.4,0.1-0.5,0.2L12,5l-1.5-2H10v4c0,0.5,0.5,1,1,1h4V7.5L13,6l2.2-2.2
	c0.3-0.3,0.3-0.8,0-1.1C15.2,2.6,14.9,2.5,14.7,2.5z M3,10v0.5L5,12l-2.2,2.2c-0.3,0.3-0.3,0.8,0,1.1s0.8,0.3,1.1,0L6,13l1.5,2H8v-4
	c0-0.5-0.5-1-1-1H3z M11,10c-0.5,0-1,0.5-1,1v4h0.5l1.5-2l2.2,2.2c0.3,0.3,0.8,0.3,1.1,0s0.3-0.8,0-1.1L13,12l2-1.5V10H11z"/>
</svg>