<svg xmlns="http://www.w3.org/2000/svg" width="512" height="512" viewBox="0 0 512 512"><path fill="#008cdb" d="M445.3 261.8c-5.8-16.9-24.2-25.9-41.1-20.1l-40.3 13.8-23.9-69.7 47.1-16.1c16.9-5.8 25.9-24.2 20.1-41.1-5.8-16.9-24.2-25.9-41.1-20.1L319 124.6l-12.2-35.7C301 72 282.6 63 265.7 68.8c-16.9 5.8-25.9 24.2-20.1 41.1l12.2 35.7-69.7 23.9-14.6-42.5c-5.8-16.9-24.2-25.9-41.1-20.1-16.9 5.8-25.9 24.2-20.1 41.1l14.6 42.5-38 13C72 209.3 63 227.7 68.8 244.6c4.6 13.4 17.2 21.9 30.6 21.9 3.5 0 7-0.6 10.5-1.8l38-13 23.9 69.7-44.7 15.3c-16.9 5.8-25.9 24.2-20.1 41.1 4.6 13.4 17.2 21.9 30.6 21.9 3.5 0 7-0.6 10.5-1.8l44.7-15.3 14.6 42.5C212 438.5 224.6 447 238 447c3.5 0 7-0.6 10.5-1.8 16.9-5.8 25.9-24.2 20.1-41.1L254 361.6l69.7-23.9 16.9 49.3c4.6 13.4 17.2 21.9 30.6 21.9 3.5 0 7-0.6 10.5-1.8 16.9-5.8 25.9-24.2 20.1-41.1l-16.9-49.3 40.3-13.8c16.9-5.8 25.9-24.2 20.1-41.1zM233 300.3l-23.9-69.7 69.7-23.9 23.9 69.7-69.7 23.9z"/></svg>