<?xml version="1.0" encoding="UTF-8" standalone="yes"?>
<svg viewBox="0 0 18 18">
  <path d="M18,9.1c-0.3-0.8-1.1-1.3-2-1L14,9l-1.1-3.3l2.3-0.8c0.8-0.3,1.1-1.1,1-2c-0.2-0.8-1.1-1.3-2-1l-2.3,0.8l-0.7-1.6
	c-0.2-1-1.1-1.3-1.8-1s-1.3,1.1-1,1.8l0.7,1.6L5.7,4.9L5.1,2.8c-0.3-0.8-1.1-1.1-2-0.8s-1.3,1.1-1,1.8l0.7,2L1,6.5
	C0.1,6.7-0.2,7.7,0.1,8.3c0.2,0.7,0.8,1,1.5,1c0.2,0,0.3,0,0.5-0.2l1.8-0.7l1.1,3.3l-2.3,1c-0.7,0.3-1.1,1.1-0.8,2
	c0.2,0.7,0.8,1,1.3,1c0.2,0,0.3,0,0.5-0.2l2.1-0.7l0.7,2c0.3,0.8,1,1.1,1.6,1.1c0.2,0,0.3,0,0.5-0.2c0.8-0.3,1.3-1.1,1-2l-0.8-2
	l3.3-1.1l0.8,2.3c0.2,0.7,0.8,1,1.5,1c0.2,0,0.3,0,0.5-0.2c0.8-0.3,1.3-1.1,1-2L15,11.7l2-0.7C17.8,10.9,18.1,10,18,9.1L18,9.1z
	 M7.8,11.1L6.7,7.8L10,6.7l1.1,3.3L7.8,11.1L7.8,11.1z"/>
</svg>