<?xml version="1.0" encoding="UTF-8" standalone="yes"?>
<svg viewBox="0 0 18 18">
  <path d="M378.2606,194.7605c-5.8-16.9-24.2-25.9-41.1-20.1l-40.3,13.8l-23.9-69.7l47.1-16.1
	c16.9-5.8,25.9-24.2,20.1-41.1s-24.2-25.9-41.1-20.1l-47.1,16.1l-12.2-35.7c-5.8-16.9-24.2-25.9-41.1-20.1s-25.9,24.2-20.1,41.1
	l12.2,35.7l-69.7,23.9l-14.6-42.5c-5.8-16.9-24.2-25.9-41.1-20.1s-25.9,24.2-20.1,41.1l14.6,42.5l-38,13
	c-16.9,5.8-25.9,24.2-20.1,41.1c4.6,13.4,17.2,21.9,30.6,21.9c3.5,0,7-0.6,10.5-1.8l38-13l23.9,69.7l-44.7,15.3
	c-16.9,5.8-25.9,24.2-20.1,41.1c4.6,13.4,17.2,21.9,30.6,21.9c3.5,0,7-0.6,10.5-1.8l44.7-15.3l14.6,42.5
	c4.6,13.4,17.2,21.9,30.6,21.9c3.5,0,7-0.6,10.5-1.8c16.9-5.8,25.9-24.2,20.1-41.1l-14.6-42.5l69.7-23.9l16.9,49.3
	c4.6,13.4,17.2,21.9,30.6,21.9c3.5,0,7-0.6,10.5-1.8c16.9-5.8,25.9-24.2,20.1-41.1l-16.9-49.3l40.3-13.8
	C375.0606,230.0606,384.0606,211.6606,378.2606,194.7605L378.2606,194.7605z M165.9606,233.2605l-23.9-69.7l69.7-23.9l23.9,69.7
	L165.9606,233.2605L165.9606,233.2605z"/>
</svg>