<?xml version="1.0" encoding="UTF-8" standalone="yes"?>
  <svg viewBox="0 0 18 18" xmlns="http://www.w3.org/2000/svg">
    <path d="M3 3a1 1 0 0 1 1-1h10a1 1 0 0 1 1 1v2a1 1 0 0 1-1 1H4a1 1 0 0 1-1-1V3Z" />
    <path fill-rule="evenodd" clip-rule="evenodd" d="M4 7a1 1 0 0 0-1 1v2a1 1 0 0 0 1 1h10a1 1 0 0 0 1-1V8a1 1 0 0 0-1-1H4Zm.5 1a.5.5 0 0 0-.5.5v1a.5.5 0 0 0 .5.5h9a.5.5 0 0 0 .5-.5v-1a.5.5 0 0 0-.5-.5h-9Z" />
    <path d="M4 12a1 1 0 0 0-1 1v2a1 1 0 0 0 1 1h10a1 1 0 0 0 1-1v-2a1 1 0 0 0-1-1H4Z" /></svg>
