<?xml version="1.0" encoding="UTF-8" standalone="yes"?>
<svg viewBox="0 0 18 18" xmlns="http://www.w3.org/2000/svg">
  <path fill-rule="evenodd" clip-rule="evenodd" d="M4.63397 3.43787L6.36602 2.43787L7.98056 3.99998L10.0194 3.99998L11.634 2.43787L13.366 3.43787L12.8165 5.63298L13.6667 7.33339L16 8.00004V10L13.6666 10.6667L12.8165 12.367L13.366 14.5622L11.634 15.5622L10.0193 14H7.98069L6.36602 15.5622L4.63397 14.5622L5.18352 12.367L4.33337 10.6667L2 10V8.00004L4.3333 7.33339L5.1835 5.63298L4.63397 3.43787ZM9 11C10.1046 11 11 10.1046 11 9C11 7.89543 10.1046 7 9 7C7.89543 7 7 7.89543 7 9C7 10.1046 7.89543 11 9 11Z"/>
</svg>