<?xml version="1.0" encoding="utf-8"?>
<!-- Generator: Adobe Illustrator 19.0.0, SVG Export Plug-In . SVG Version: 6.00 Build 0)  -->
<svg version="1.1"
	 id="svg5738" xmlns:svg="http://www.w3.org/2000/svg" xmlns:rdf="http://www.w3.org/1999/02/22-rdf-syntax-ns#" xmlns:inkscape="http://www.inkscape.org/namespaces/inkscape" xmlns:dc="http://purl.org/dc/elements/1.1/" xmlns:cc="http://creativecommons.org/ns#" xmlns:sodipodi="http://sodipodi.sourceforge.net/DTD/sodipodi-0.dtd" inkscape:version="0.48.5 r10040" sodipodi:docname="building.svg"
	 xmlns="http://www.w3.org/2000/svg" xmlns:xlink="http://www.w3.org/1999/xlink" x="0px" y="0px" width="20px" height="20px"
	 viewBox="-205 279 20 20" style="enable-background:new -205 279 20 20;" xml:space="preserve">
<sodipodi:namedview  id="base" inkscape:cy="11.249567" showgrid="false" bordercolor="#666666" inkscape:zoom="1" borderopacity="1.0" inkscape:cx="11.256893" pagecolor="#ffffff" inkscape:document-units="px" inkscape:current-layer="layer1" inkscape:pageopacity="0.0" inkscape:window-y="20" inkscape:window-width="1390" inkscape:pageshadow="2" inkscape:window-maximized="0" inkscape:window-height="884" inkscape:window-x="20" inkscape:object-nodes="true">
	<inkscape:grid  type="xygrid" id="grid5746" enabled="true" empspacing="5" visible="true" snapvisiblegridlinesonly="true">
		</inkscape:grid>
</sodipodi:namedview>
<g>
	<path d="M-189.6,283h-10.8c-0.3,0-0.6,0.3-0.6,0.6l0,10.8c0,0.3,0.3,0.6,0.6,0.6h10.8c0.3,0,0.6-0.3,0.6-0.6l0-10.8
		C-189,283.3-189.3,283-189.6,283z M-190,294h-10v-9h10V294z"/>
</g>
<path d="M-197.5,287h-1c-0.3,0-0.5-0.2-0.5-0.5l0,0c0-0.3,0.2-0.5,0.5-0.5h1c0.3,0,0.5,0.2,0.5,0.5l0,0
	C-197,286.8-197.2,287-197.5,287z"/>
<path d="M-197.5,289h-1c-0.3,0-0.5-0.2-0.5-0.5l0,0c0-0.3,0.2-0.5,0.5-0.5h1c0.3,0,0.5,0.2,0.5,0.5l0,0
	C-197,288.8-197.2,289-197.5,289z"/>
<path d="M-197.5,291h-1c-0.3,0-0.5-0.2-0.5-0.5l0,0c0-0.3,0.2-0.5,0.5-0.5h1c0.3,0,0.5,0.2,0.5,0.5l0,0
	C-197,290.8-197.2,291-197.5,291z"/>
<path d="M-197.5,293h-1c-0.3,0-0.5-0.2-0.5-0.5l0,0c0-0.3,0.2-0.5,0.5-0.5h1c0.3,0,0.5,0.2,0.5,0.5l0,0
	C-197,292.8-197.2,293-197.5,293z"/>
<path style="fill:none;stroke:#000000;stroke-linecap:round;stroke-linejoin:round;stroke-miterlimit:10;" d="M-191.5,292.5"/>
<path style="fill:none;stroke:#000000;stroke-linecap:round;stroke-linejoin:round;stroke-miterlimit:10;" d="M-196.5,286.5"/>
<g id="layer1" transform="translate(0,-1032.3622)" inkscape:label="Layer 1" inkscape:groupmode="layer">
	<g id="g13547" transform="matrix(0.92307692,0,0,0.92307692,122.61534,-132.12603)">
		<path id="path13549" inkscape:connector-curvature="0" sodipodi:nodetypes="scsss" d="M-340.8,1574.4c0,1.1-1.5,2.9-1.9,3.5
			c-0.4-0.6-1.9-2.4-1.9-3.5s1-2,1.9-2S-340.8,1573.3-340.8,1574.4z"/>
	</g>
</g>
</svg>
