<?xml version="1.0" encoding="UTF-8" standalone="yes"?>
<svg viewBox="0 0 20 20">
  <g>
    <path d="M15.4,4H4.6C4.3,4,4,4.3,4,4.6v10.8C4,15.7,4.3,16,4.6,16h10.8c0.3,0,0.6-0.3,0.6-0.6V4.6C16,4.3,15.7,4,15.4,4z M15,15H5
		V6h10V15z"/>
  </g>
  <g>
    <g>
      <path d="M9.9,9.2c0,1.1-1.5,2.9-1.9,3.5c-0.4-0.6-1.9-2.4-1.9-3.5s1-2,1.9-2S9.9,8.2,9.9,9.2z"/>
    </g>
  </g>
  <path d="M13.5,12h-1c-0.3,0-0.5-0.2-0.5-0.5l0,0c0-0.3,0.2-0.5,0.5-0.5h1c0.3,0,0.5,0.2,0.5,0.5l0,0C14,11.8,13.8,12,13.5,12z"/>
  <path d="M13.5,8h-1C12.2,8,12,7.8,12,7.5l0,0C12,7.2,12.2,7,12.5,7h1C13.8,7,14,7.2,14,7.5l0,0C14,7.8,13.8,8,13.5,8z"/>
  <path d="M13.5,10h-1C12.2,10,12,9.8,12,9.5l0,0C12,9.2,12.2,9,12.5,9h1C13.8,9,14,9.2,14,9.5l0,0C14,9.8,13.8,10,13.5,10z"/>
  <path d="M10,10"/>
  <path d="M10,10"/>
  <path d="M13.5,14h-1c-0.3,0-0.5-0.2-0.5-0.5l0,0c0-0.3,0.2-0.5,0.5-0.5h1c0.3,0,0.5,0.2,0.5,0.5l0,0C14,13.8,13.8,14,13.5,14z"/>
</svg>