<?xml version="1.0" encoding="UTF-8" standalone="yes"?>
<svg viewBox="0 0 18 18">
  <g>
    <path d="M14.4,3H3.6C3.3,3,3,3.3,3,3.6v10.8C3,14.7,3.3,15,3.6,15h10.8c0.3,0,0.6-0.3,0.6-0.6V3.6C15,3.3,14.7,3,14.4,3z M14,14H4
		V5h10V14z"/>
  </g>
  <g>
    <g>
      <path d="M8.9,8.2c0,1.1-1.5,2.9-1.9,3.5c-0.4-0.6-1.9-2.4-1.9-3.5s1-2,1.9-2S8.9,7.2,8.9,8.2z"/>
    </g>
  </g>
  <path d="M12.5,11h-1c-0.3,0-0.5-0.2-0.5-0.5l0,0c0-0.3,0.2-0.5,0.5-0.5h1c0.3,0,0.5,0.2,0.5,0.5l0,0C13,10.8,12.8,11,12.5,11z"/>
  <path d="M12.5,7h-1C11.2,7,11,6.8,11,6.5l0,0C11,6.2,11.2,6,11.5,6h1C12.8,6,13,6.2,13,6.5l0,0C13,6.8,12.8,7,12.5,7z"/>
  <path d="M12.5,9h-1C11.2,9,11,8.8,11,8.5l0,0C11,8.2,11.2,8,11.5,8h1C12.8,8,13,8.2,13,8.5l0,0C13,8.8,12.8,9,12.5,9z"/>
  <path d="M9,9"/>
  <path d="M9,9"/>
  <path d="M12.5,13h-1c-0.3,0-0.5-0.2-0.5-0.5l0,0c0-0.3,0.2-0.5,0.5-0.5h1c0.3,0,0.5,0.2,0.5,0.5l0,0C13,12.8,12.8,13,12.5,13z"/>
</svg>