<?xml version="1.0" encoding="UTF-8" standalone="no"?>
<!-- Created with Inkscape (http://www.inkscape.org/) -->

<svg
   xmlns:dc="http://purl.org/dc/elements/1.1/"
   xmlns:cc="http://creativecommons.org/ns#"
   xmlns:rdf="http://www.w3.org/1999/02/22-rdf-syntax-ns#"
   xmlns:svg="http://www.w3.org/2000/svg"
   xmlns="http://www.w3.org/2000/svg"
   xmlns:sodipodi="http://sodipodi.sourceforge.net/DTD/sodipodi-0.dtd"
   xmlns:inkscape="http://www.inkscape.org/namespaces/inkscape"
   width="20"
   height="20"
   id="svg5738"
   version="1.1"
   inkscape:version="0.91+devel+osxmenu r12911"
   sodipodi:docname="sun.svg"
   viewBox="0 0 20 20">
  <defs
     id="defs5740" />
  <sodipodi:namedview
     id="base"
     pagecolor="#ffffff"
     bordercolor="#666666"
     borderopacity="1.0"
     inkscape:pageopacity="0.0"
     inkscape:pageshadow="2"
     inkscape:zoom="32"
     inkscape:cx="7.8081437"
     inkscape:cy="13.056748"
     inkscape:document-units="px"
     inkscape:current-layer="layer1"
     showgrid="false"
     inkscape:window-width="1033"
     inkscape:window-height="844"
     inkscape:window-x="426"
     inkscape:window-y="17"
     inkscape:window-maximized="0"
     inkscape:snap-bbox="true"
     inkscape:snap-nodes="true"
     inkscape:bbox-paths="true"
     inkscape:bbox-nodes="true"
     inkscape:object-paths="true"
     inkscape:object-nodes="true"
     inkscape:snap-smooth-nodes="true">
    <inkscape:grid
       type="xygrid"
       id="grid5746"
       empspacing="5"
       visible="true"
       enabled="true"
       snapvisiblegridlinesonly="true" />
  </sodipodi:namedview>
  <metadata
     id="metadata5743">
    <rdf:RDF>
      <cc:Work
         rdf:about="">
        <dc:format>image/svg+xml</dc:format>
        <dc:type
           rdf:resource="http://purl.org/dc/dcmitype/StillImage" />
        <dc:title />
      </cc:Work>
    </rdf:RDF>
  </metadata>
  <g
     inkscape:label="Layer 1"
     inkscape:groupmode="layer"
     id="layer1"
     transform="translate(0,-1032.3622)">
    <path
       style="opacity:1;fill:#000000;fill-opacity:1;stroke:none;stroke-width:1;stroke-linecap:butt;stroke-linejoin:miter;stroke-miterlimit:4;stroke-dasharray:none;stroke-dashoffset:0;stroke-opacity:1;marker:none"
       d="M 10,4 C 9.446,4 9,4.446 9,5 L 9,6.1308594 C 8.2973204,6.3124122 7.6572754,6.6817209 7.1484375,7.1992188 L 6.1699219,6.6347656 C 5.6901438,6.3577656 5.0816875,6.5202219 4.8046875,7 4.5276875,7.4797781 4.6901438,8.0882344 5.1699219,8.3652344 L 6.1484375,8.9296875 C 6.0507754,9.2781022 6.0008407,9.6381575 6,10 c 2.049e-4,0.361753 0.049482,0.721807 0.1464844,1.070312 L 5.1699219,11.634766 C 4.6901438,11.911766 4.5276875,12.520222 4.8046875,13 c 0.277,0.479778 0.8854563,0.642234 1.3652344,0.365234 L 7.1464844,12.800781 C 7.6560967,13.317871 8.2968328,13.686514 9,13.867188 L 9,15 c 0,0.554 0.446,1 1,1 0.554,0 1,-0.446 1,-1 l 0,-1.130859 c 0.702679,-0.181553 1.342724,-0.550862 1.851562,-1.06836 l 0.978516,0.564453 c 0.479778,0.277 1.088236,0.114544 1.365234,-0.365234 0.277001,-0.479778 0.114544,-1.088234 -0.365234,-1.365234 L 13.851562,11.070312 C 13.949224,10.721897 13.999159,10.361842 14,10 13.999795,9.6382467 13.950518,9.278193 13.853516,8.9296875 L 14.830078,8.3652344 C 15.309856,8.0882344 15.472313,7.4797781 15.195312,7 14.918314,6.5202219 14.309856,6.3577656 13.830078,6.6347656 L 12.853516,7.1992188 C 12.343904,6.6821287 11.703167,6.3134859 11,6.1328125 L 11,5 C 11,4.446 10.554,4 10,4 Z m 0,3.5 c 1.380712,0 2.5,1.1192881 2.5,2.5 0,1.380712 -1.119288,2.5 -2.5,2.5 z"
       transform="translate(0,1032.3622)"
       id="path4148"
       inkscape:connector-curvature="0"
       sodipodi:nodetypes="ccccccccccccccccccccccccccccccccccccc" />
  </g>
</svg>
