<?xml version="1.0" encoding="UTF-8" standalone="yes"?>
<svg viewBox="0 0 18 18">
  <g>
    <path d="M9,3C8.4,3,8,3.4,8,4v1.1C7.3,5.3,6.7,5.7,6.1,6.2l-1-0.6C4.7,5.4,4.1,5.5,3.8,6S3.7,7.1,4.2,7.4l1,0.6C5.1,8.3,5,8.6,5,9
		s0,0.7,0.1,1.1l-1,0.6c-0.5,0.3-0.6,0.9-0.4,1.4s0.9,0.6,1.4,0.4l1-0.6C6.6,12.4,7.3,12.8,8,13v1c0,0.6,0.4,1,1,1s1-0.4,1-1v-1.1
		c0.7-0.2,1.3-0.6,1.9-1.1l1,0.6c0.5,0.3,1.1,0.1,1.4-0.4c0.3-0.5,0.1-1.1-0.4-1.4l-1-0.6C13,9.7,13,9.3,13,8.9c0-0.4,0-0.7-0.1-1.1
		l1-0.6c0.5-0.3,0.6-0.9,0.4-1.4c-0.3-0.5-0.9-0.6-1.4-0.4l-1,0.6c-0.5-0.5-1.2-0.9-1.9-1.1V4C10,3.4,9.6,3,9,3z M9,6.5
		c1.4,0,2.5,1.1,2.5,2.5s-1.1,2.5-2.5,2.5V6.5z"/>
  </g>
</svg>