<?xml version="1.0" encoding="UTF-8" standalone="yes"?>
<svg viewBox="0 0 20 20">
  <g>
    <path d="M10,4C9.4,4,9,4.4,9,5v1.1C8.3,6.3,7.7,6.7,7.1,7.2l-1-0.6C5.7,6.4,5.1,6.5,4.8,7S4.7,8.1,5.2,8.4l1,0.6
		C6.1,9.3,6,9.6,6,10c0,0.4,0,0.7,0.1,1.1l-1,0.6c-0.5,0.3-0.6,0.9-0.4,1.4s0.9,0.6,1.4,0.4l1-0.6c0.5,0.5,1.2,0.9,1.9,1.1V15
		c0,0.6,0.4,1,1,1s1-0.4,1-1v-1.1c0.7-0.2,1.3-0.6,1.9-1.1l1,0.6c0.5,0.3,1.1,0.1,1.4-0.4c0.3-0.5,0.1-1.1-0.4-1.4l-1-0.6
		c0.1-0.3,0.1-0.7,0.1-1.1c0-0.4,0-0.7-0.1-1.1l1-0.6c0.5-0.3,0.6-0.9,0.4-1.4c-0.3-0.5-0.9-0.6-1.4-0.4l-1,0.6
		c-0.5-0.5-1.2-0.9-1.9-1.1V5C11,4.4,10.6,4,10,4z M10,7.5c1.4,0,2.5,1.1,2.5,2.5s-1.1,2.5-2.5,2.5V7.5z"/>
  </g>
</svg>