<?xml version="1.0" encoding="UTF-8" standalone="yes"?>
<svg viewBox="0 0 18 18" xmlns="http://www.w3.org/2000/svg">
  <path d="M7.99512 13.3857C8.14796 13.4206 8.30358 13.4479 8.46191 13.4668C8.47525 13.4684 8.48858 13.4702 8.50195 13.4717C8.57824 13.4801 8.65504 13.4867 8.73242 13.4912C8.73601 13.4914 8.73957 13.492 8.74316 13.4922C8.82818 13.497 8.91379 13.5 9 13.5C9.3421 13.5 9.67488 13.46 9.99512 13.3877V15C9.99512 15.5521 9.54815 15.9997 8.99609 16C8.44381 16 7.99512 15.5523 7.99512 15V13.3857Z"/>
  <path d="M5.19238 11.3975C5.55229 11.9679 6.03653 12.4513 6.60742 12.8105L5.4668 13.9531C5.07626 14.3431 4.4431 14.3434 4.05273 13.9531C3.66221 13.5626 3.66221 12.9286 4.05273 12.5381L5.19238 11.3975Z"/>
  <path d="M13.9473 12.5381C14.3376 12.9285 14.3374 13.5616 13.9473 13.9521C13.5567 14.3427 12.9228 14.3427 12.5322 13.9521L11.3906 12.8105C11.962 12.4513 12.4465 11.9681 12.8066 11.3975L13.9473 12.5381Z"/>
  <path fill-rule="evenodd" clip-rule="evenodd" d="M9 5.5C10.933 5.5 12.5 7.067 12.5 9C12.5 10.933 10.933 12.5 9 12.5C7.067 12.5 5.5 10.933 5.5 9C5.5 7.067 7.067 5.5 9 5.5ZM9 7.5C8.17157 7.5 7.5 8.17157 7.5 9C7.5 9.82843 8.17157 10.5 9 10.5C9.82843 10.5 10.5 9.82843 10.5 9C10.5 8.17157 9.82843 7.5 9 7.5Z"/>
  <path d="M4.61426 7.99609C4.57948 8.14868 4.55106 8.30386 4.53223 8.46191C4.53064 8.47493 4.52882 8.48793 4.52734 8.50098C4.50927 8.66483 4.5 8.83133 4.5 9C4.5 9.34243 4.53985 9.67557 4.6123 9.99609H3C2.4478 9.99609 2.00013 9.54827 2 8.99609C2 8.44381 2.44772 7.99609 3 7.99609H4.61426Z"/>
  <path d="M15 7.99609C15.5523 7.99609 16 8.44381 16 8.99609C15.9999 9.54827 15.5522 9.99609 15 9.99609H13.3877C13.4602 9.67557 13.5 9.34243 13.5 9C13.5 8.83129 13.4898 8.66486 13.4717 8.50098C13.4702 8.48793 13.4684 8.47493 13.4668 8.46191C13.448 8.3039 13.4205 8.14864 13.3857 7.99609H15Z"/>
  <path d="M4.04688 4.05273C4.4374 3.66221 5.07139 3.66221 5.46191 4.05273L6.60156 5.19238C6.5898 5.19981 6.57809 5.20731 6.56641 5.21484C6.51907 5.24534 6.47285 5.27737 6.42676 5.30957C6.40736 5.32312 6.38733 5.33576 6.36816 5.34961C6.31313 5.38936 6.25918 5.43052 6.20605 5.47266C6.19825 5.47885 6.19038 5.48497 6.18262 5.49121C5.9931 5.64358 5.81582 5.81058 5.65332 5.99121C5.64067 6.00528 5.62869 6.01995 5.61621 6.03418C5.46478 6.20681 5.32703 6.39147 5.20312 6.58594C5.19832 6.59347 5.19323 6.60083 5.18848 6.6084L4.04688 5.4668C3.65686 5.07626 3.65659 4.4431 4.04688 4.05273Z"/>
  <path d="M12.5381 4.05273C12.9285 3.66242 13.5616 3.66265 13.9521 4.05273C14.3427 4.44326 14.3427 5.07725 13.9521 5.46777L12.8105 6.6084C12.4982 6.11177 12.0921 5.68064 11.6162 5.33984C11.609 5.33469 11.602 5.32933 11.5947 5.32422C11.534 5.28129 11.4721 5.24014 11.4092 5.2002C11.4052 5.19768 11.4014 5.19489 11.3975 5.19238L12.5381 4.05273Z"/>
  <path d="M8.99512 2C9.5474 2 9.99512 2.44771 9.99512 3V4.61133C9.98895 4.60994 9.98274 4.60879 9.97656 4.60742C9.91131 4.59298 9.84558 4.57993 9.7793 4.56836C9.76629 4.56607 9.75328 4.5637 9.74023 4.56152C9.67975 4.55151 9.61889 4.54273 9.55762 4.53516C9.53293 4.53207 9.50821 4.52905 9.4834 4.52637C9.439 4.52162 9.39438 4.51809 9.34961 4.51465C9.31259 4.51176 9.27555 4.50784 9.23828 4.50586C9.15938 4.50174 9.07993 4.5 9 4.5C8.83133 4.5 8.66483 4.50927 8.50098 4.52734C8.48596 4.52902 8.47103 4.53138 8.45605 4.5332C8.38951 4.54122 8.32343 4.55063 8.25781 4.56152C8.23889 4.56468 8.22001 4.5679 8.20117 4.57129C8.14146 4.58199 8.0823 4.59439 8.02344 4.60742C8.01402 4.60951 8.00451 4.61114 7.99512 4.61328V3C7.99512 2.44788 8.44306 2.00026 8.99512 2Z"/>
</svg>
