<?xml version="1.0" encoding="UTF-8" standalone="yes"?>
<svg viewBox="0 0 18 18" xmlns="http://www.w3.org/2000/svg">
  <path fill-rule="evenodd" clip-rule="evenodd" d="M8 2C8 1.44772 8.44772 1 9 1C9.55228 1 10 1.44772 10 2V3.59069C11.2662 3.82328 12.3807 4.48952 13.1838 5.42976L14.5622 4.63397C15.0405 4.35783 15.6521 4.5217 15.9282 5C16.2043 5.47829 16.0405 6.08988 15.5622 6.36602L14.1851 7.1611C14.389 7.7361 14.5 8.35509 14.5 9C14.5 9.64491 14.389 10.2639 14.1851 10.8389L15.5622 11.634C16.0405 11.9101 16.2043 12.5217 15.9282 13C15.6521 13.4783 15.0405 13.6422 14.5622 13.366L13.1838 12.5702C12.3807 13.5105 11.2662 14.1767 10 14.4093V16C10 16.5523 9.55228 17 9 17C8.44772 17 8 16.5523 8 16V14.4093C6.73377 14.1767 5.61927 13.5105 4.81616 12.5702L3.43782 13.366C2.95953 13.6422 2.34794 13.4783 2.0718 13C1.79565 12.5217 1.95953 11.9101 2.43782 11.634L3.81493 10.8389C3.611 10.2639 3.5 9.64491 3.5 9C3.5 8.35509 3.611 7.7361 3.81493 7.1611L2.43782 6.36602C1.95953 6.08988 1.79565 5.47829 2.07179 5C2.34794 4.5217 2.95953 4.35783 3.43782 4.63397L4.81616 5.42976C5.61927 4.48952 6.73377 3.82328 8 3.59069V2ZM11.8978 9.77644C12.1037 9.0079 11.9959 8.18903 11.5981 7.49998L6.40192 10.5C6.79975 11.189 7.455 11.6918 8.22354 11.8978C8.99208 12.1037 9.81095 11.9959 10.5 11.5981C11.1891 11.2002 11.6918 10.545 11.8978 9.77644Z"/>
</svg>