<?xml version="1.0" encoding="utf-8"?>
<!-- Generator: Adobe Illustrator 19.0.1, SVG Export Plug-In . SVG Version: 6.00 Build 0)  -->
<svg version="1.1"
	 id="svg5738" sodipodi:docname="tx.svg" inkscape:version="0.48.2 r9819" xmlns:dc="http://purl.org/dc/elements/1.1/" xmlns:cc="http://creativecommons.org/ns#" xmlns:rdf="http://www.w3.org/1999/02/22-rdf-syntax-ns#" xmlns:svg="http://www.w3.org/2000/svg" xmlns:sodipodi="http://sodipodi.sourceforge.net/DTD/sodipodi-0.dtd" xmlns:inkscape="http://www.inkscape.org/namespaces/inkscape"
	 xmlns="http://www.w3.org/2000/svg" xmlns:xlink="http://www.w3.org/1999/xlink" x="0px" y="0px" viewBox="0 0 20 20"
	 style="enable-background:new 0 0 20 20;" xml:space="preserve">
<sodipodi:namedview  inkscape:window-maximized="0" inkscape:window-y="20" inkscape:current-layer="layer1" inkscape:pageshadow="2" inkscape:document-units="px" inkscape:pageopacity="0.0" inkscape:window-height="844" inkscape:window-x="20" inkscape:window-width="1033" showgrid="true" inkscape:cy="8.2195076" inkscape:cx="12.532409" inkscape:zoom="16" borderopacity="1.0" bordercolor="#666666" pagecolor="#ffffff" id="base">
	<inkscape:grid  type="xygrid" snapvisiblegridlinesonly="true" enabled="true" visible="true" empspacing="5" id="grid5746">
		</inkscape:grid>
</sodipodi:namedview>
<g>
	<path d="M10,11.5c-1.1,0-2-0.9-2-2s0.9-2,2-2h2.3c-0.4-1.7-2-3-3.6-3c-1.8,0-3.7,1.7-3.7,3.7c0,1.7,2.2,4.6,3.3,6
		c0.2,0.3,0.6,0.3,0.8,0c0.3-0.4,0.6-0.8,1-1.3V11.5z"/>
	<g>
		<path d="M10.1,8.5c-0.6,0-1,0.4-1,1s0.4,1,1,1h1v4c0,0.6,0.4,1,1,1s1-0.4,1-1v-4h1c0.6,0,1-0.4,1-1s-0.4-1-1-1H10.1z"/>
	</g>
</g>
</svg>
