<?xml version="1.0" encoding="UTF-8" standalone="yes"?>
<svg viewBox="0 0 18 18" xmlns="http://www.w3.org/2000/svg">
  <path d="M9 8L6.71612 5.71612C6.87921 5.60269 7.05119 5.50111 7.23085 5.41251C7.94038 5.06261 8.73775 4.93096 9.52211 5.03422C10.3065 5.13749 11.0426 5.47102 11.6374 5.99265C12.2322 6.51427 12.6589 7.20056 12.8637 7.96473C13.0066 8.4982 13.555 8.81478 14.0884 8.67184C14.6219 8.52889 14.9385 7.98056 14.7956 7.44709C14.4884 6.30084 13.8483 5.2714 12.9561 4.48897C12.0639 3.70653 10.9597 3.20623 9.78316 3.05134C8.60662 2.89644 7.41058 3.09391 6.34627 3.61877C5.96892 3.80485 5.61415 4.02913 5.28693 4.28693L3 2V7.98834L9 8Z"/>
  <path d="M10.7692 12.5875C10.0596 12.9374 9.26225 13.069 8.47789 12.9658C7.69354 12.8625 6.95742 12.529 6.36262 12.0074C5.76782 11.4857 5.34105 10.7994 5.1363 10.0353C4.99335 9.5018 4.44502 9.18522 3.91155 9.32816C3.37809 9.47111 3.0615 10.0194 3.20444 10.5529C3.51158 11.6992 4.15172 12.7286 5.04392 13.511C5.93612 14.2935 7.04031 14.7938 8.21684 14.9487C9.39338 15.1036 10.5894 14.9061 11.6537 14.3812C12.0311 14.1951 12.3859 13.9709 12.7131 13.7131L15 16V10.0117L9 10L11.2839 12.2839C11.1208 12.3973 10.9488 12.4989 10.7692 12.5875Z"/>
</svg>