<?xml version="1.0" encoding="UTF-8" standalone="no"?>
<!-- Created with Inkscape (http://www.inkscape.org/) -->

<svg
   xmlns:dc="http://purl.org/dc/elements/1.1/"
   xmlns:cc="http://creativecommons.org/ns#"
   xmlns:rdf="http://www.w3.org/1999/02/22-rdf-syntax-ns#"
   xmlns:svg="http://www.w3.org/2000/svg"
   xmlns="http://www.w3.org/2000/svg"
   xmlns:sodipodi="http://sodipodi.sourceforge.net/DTD/sodipodi-0.dtd"
   xmlns:inkscape="http://www.inkscape.org/namespaces/inkscape"
   width="20"
   height="20"
   id="svg4863"
   version="1.1"
   inkscape:version="0.48.5 r10040"
   sodipodi:docname="text-allow-overlap.svg"
   inkscape:export-filename="/Users/saman/work_repos/base/latest/icons/text-vertical-center.png"
   inkscape:export-xdpi="180"
   inkscape:export-ydpi="180">
  <defs
     id="defs4865" />
  <sodipodi:namedview
     id="base"
     pagecolor="#ffffff"
     bordercolor="#666666"
     borderopacity="1.0"
     inkscape:pageopacity="0.0"
     inkscape:pageshadow="2"
     inkscape:zoom="45.254834"
     inkscape:cx="8.9890167"
     inkscape:cy="10.786372"
     inkscape:document-units="px"
     inkscape:current-layer="layer1"
     showgrid="true"
     inkscape:snap-bbox="true"
     inkscape:snap-nodes="true"
     inkscape:window-width="1459"
     inkscape:window-height="843"
     inkscape:window-x="177"
     inkscape:window-y="0"
     inkscape:window-maximized="0"
     showguides="false"
     inkscape:guide-bbox="true">
    <inkscape:grid
       type="xygrid"
       id="grid4886"
       empspacing="5"
       visible="true"
       enabled="true"
       snapvisiblegridlinesonly="true" />
    <sodipodi:guide
       orientation="0,1"
       position="22,15"
       id="guide6423" />
    <sodipodi:guide
       orientation="0,1"
       position="21,5"
       id="guide6425" />
    <sodipodi:guide
       orientation="0,1"
       position="33,95"
       id="guide7108" />
  </sodipodi:namedview>
  <metadata
     id="metadata4868">
    <rdf:RDF>
      <cc:Work
         rdf:about="">
        <dc:format>image/svg+xml</dc:format>
        <dc:type
           rdf:resource="http://purl.org/dc/dcmitype/StillImage" />
        <dc:title />
      </cc:Work>
    </rdf:RDF>
  </metadata>
  <g
     inkscape:label="Layer 1"
     inkscape:groupmode="layer"
     id="layer1"
     transform="translate(0,-1032.3622)">
    <g
       transform="matrix(1.9999805,0,0,1.7500055,-539.99976,-1081.7773)"
       id="g5863" />
    <g
       id="g7094" />
    <path
       d="M 9.84375 5 C 9.5625 5.046875 9 5.25 9 6 C 8.9999625 6.75 9.5624883 6.953125 9.84375 7 L 10 7 L 10.96875 7 L 10.96875 7.25 C 11.449444 7.5092652 12 8.186046 12 9 C 12 9.80125 11.475109 10.452562 11 10.71875 L 11 11 C 11 11 11 12 12 12 C 13 12 13 11 13 11 L 13 7 L 14 7 C 14 7 15 7 15 6 C 15 4.9999 14 5 14 5 L 10 5 C 10 5 9.9375 4.984375 9.84375 5 z M 5.84375 8 C 5.5625 8.046875 5 8.25 5 9 C 4.99995 10 6 10 6 10 L 6.96875 10 L 7 14 C 7 14 7 15 8 15 C 9 15 9 14 9 14 L 9 10 L 10 10 C 10 10 11 10 11 9 C 11 7.9999 10 8 10 8 L 6 8 C 6 8 5.9375 7.984375 5.84375 8 z "
       transform="translate(0,1032.3622)"
       id="path7050-6-8" />
  </g>
</svg>
