<?xml version="1.0" encoding="UTF-8" standalone="no"?>
<!-- Created with Inkscape (http://www.inkscape.org/) -->

<svg
   xmlns:dc="http://purl.org/dc/elements/1.1/"
   xmlns:cc="http://creativecommons.org/ns#"
   xmlns:rdf="http://www.w3.org/1999/02/22-rdf-syntax-ns#"
   xmlns:svg="http://www.w3.org/2000/svg"
   xmlns="http://www.w3.org/2000/svg"
   xmlns:sodipodi="http://sodipodi.sourceforge.net/DTD/sodipodi-0.dtd"
   xmlns:inkscape="http://www.inkscape.org/namespaces/inkscape"
   width="20"
   height="20"
   id="svg5738"
   version="1.1"
   inkscape:version="0.48.5 r10040"
   sodipodi:docname="text-rotate.svg">
  <defs
     id="defs5740" />
  <sodipodi:namedview
     id="base"
     pagecolor="#ffffff"
     bordercolor="#666666"
     borderopacity="1.0"
     inkscape:pageopacity="0.0"
     inkscape:pageshadow="2"
     inkscape:zoom="8"
     inkscape:cx="8.7034989"
     inkscape:cy="8.1536686"
     inkscape:document-units="px"
     inkscape:current-layer="layer1"
     showgrid="false"
     inkscape:window-width="1033"
     inkscape:window-height="844"
     inkscape:window-x="20"
     inkscape:window-y="20"
     inkscape:window-maximized="0">
    <inkscape:grid
       type="xygrid"
       id="grid5746"
       empspacing="5"
       visible="true"
       enabled="true"
       snapvisiblegridlinesonly="true" />
  </sodipodi:namedview>
  <metadata
     id="metadata5743">
    <rdf:RDF>
      <cc:Work
         rdf:about="">
        <dc:format>image/svg+xml</dc:format>
        <dc:type
           rdf:resource="http://purl.org/dc/dcmitype/StillImage" />
        <dc:title />
      </cc:Work>
    </rdf:RDF>
  </metadata>
  <g
     inkscape:label="Layer 1"
     inkscape:groupmode="layer"
     id="layer1"
     transform="translate(0,-1032.3622)">
    <path
       d="m 7.84375,1036.3622 c -0.2812383,0.047 -0.8437125,0.25 -0.84375,1 -5e-5,1 1,1 1,1 l 1,0 0,4 c 0,0 0,1 1,1 1,0 1,-1 1,-1 l 0.03125,-4 0.96875,0 c 0,0 1,0 1,-1 0,-1.0001 -1,-1 -1,-1 l -4,0 c 0,0 -0.062504,-0.016 -0.15625,0 z m -2.25,2.4688 c -0.031739,0.01 -0.06304,0.019 -0.09375,0.031 -0.2874155,0.055 -0.5464064,0.2436 -0.6875,0.5 -0.7954573,1.3777 -1.0367591,3.0258 -0.625,4.5625 0.8545853,3.1894 4.1856444,5.1046 7.375,4.25 2.325572,-0.6231 3.955473,-2.5736 4.34375,-4.8125 l 1.09375,0 c 0.798682,0.019 1.293045,-1.1634 0.71875,-1.7187 l -2,-2 c -0.23684,-0.2453 -0.604785,-0.3557 -0.9375,-0.2813 -0.18921,0.043 -0.365332,0.1417 -0.5,0.2813 l -2,2 c -0.574295,0.5553 -0.07993,1.7375 0.71875,1.7187 l 0.875,0 c -0.346423,1.3501 -1.389885,2.4855 -2.84375,2.875 -2.1453057,0.5749 -4.3314171,-0.6984 -4.90625,-2.8437 -0.2746718,-1.0251 -0.124375,-2.1122 0.40625,-3.0313 0.3978064,-0.6275 -0.1977184,-1.6002 -0.9375,-1.5312 z"
       id="path7050-6-8-6"
       inkscape:connector-curvature="0"
       sodipodi:nodetypes="ccccccccccccccccccccccccccccccc" />
  </g>
</svg>
