<?xml version="1.0" encoding="UTF-8" standalone="no"?>
<!-- Generator: Adobe Illustrator 18.0.0, SVG Export Plug-In . SVG Version: 6.00 Build 0)  -->

<svg
   xmlns:dc="http://purl.org/dc/elements/1.1/"
   xmlns:cc="http://creativecommons.org/ns#"
   xmlns:rdf="http://www.w3.org/1999/02/22-rdf-syntax-ns#"
   xmlns:svg="http://www.w3.org/2000/svg"
   xmlns="http://www.w3.org/2000/svg"
   xmlns:sodipodi="http://sodipodi.sourceforge.net/DTD/sodipodi-0.dtd"
   xmlns:inkscape="http://www.inkscape.org/namespaces/inkscape"
   version="1.1"
   id="svg4863"
   inkscape:export-ydpi="180"
   inkscape:export-filename="/Users/saman/work_repos/base/latest/icons/text-vertical-center.png"
   inkscape:export-xdpi="180"
   sodipodi:docname="text-bottom.svg"
   inkscape:version="0.48.5 r10040"
   x="0px"
   y="0px"
   viewBox="0 0 20 20"
   enable-background="new 0 0 20 20"
   xml:space="preserve"
   width="100%"
   height="100%"><metadata
     id="metadata9815"><rdf:RDF><cc:Work
         rdf:about=""><dc:format>image/svg+xml</dc:format><dc:type
           rdf:resource="http://purl.org/dc/dcmitype/StillImage" /></cc:Work></rdf:RDF></metadata><defs
     id="defs9813" /><sodipodi:namedview
     id="base"
     inkscape:zoom="16"
     showgrid="true"
     borderopacity="1.0"
     inkscape:cy="10.618368"
     bordercolor="#666666"
     showguides="false"
     inkscape:cx="12.068229"
     pagecolor="#ffffff"
     inkscape:guide-bbox="true"
     inkscape:snap-bbox="true"
     inkscape:snap-nodes="true"
     inkscape:window-x="181"
     inkscape:window-width="1608"
     inkscape:window-y="0"
     inkscape:pageopacity="0.0"
     inkscape:document-units="px"
     inkscape:current-layer="svg4863"
     inkscape:pageshadow="2"
     inkscape:window-height="970"
     inkscape:window-maximized="0"><inkscape:grid
       type="xygrid"
       id="grid4886"
       empspacing="5"
       visible="true"
       enabled="true"
       snapvisiblegridlinesonly="true" /><sodipodi:guide
       id="guide6423"
       orientation="0,1"
       position="22,15" /><sodipodi:guide
       id="guide6425"
       orientation="0,1"
       position="21,5" /><sodipodi:guide
       id="guide7108"
       orientation="0,1"
       position="33,95" /></sodipodi:namedview><g
     id="g7094_1_" /><g
     id="g5863"
     transform="matrix(1.9999805,0,0,1.7500055,-539.99976,-2114.1395)" /><path
     d="m 10,13 c -0.825,0 -1.5,0.675 -1.5,1.5 0,0.825 0.675,1.5 1.5,1.5 0.825,0 1.5,-0.675 1.5,-1.5 C 11.5,13.675 10.825,13 10,13 z"
     id="path10436"
     inkscape:connector-curvature="0" /><path
     d="M 7,4 C 7,4 6,3.9999 6,5 6,6 7,6 7,6 l 2,0 0,5 c 0,0 0,1 1,1 1,0 1,-1 1,-1 L 11.03125,6 13,6 c 0,0 1.00005,0 1,-1 -5e-5,-1 -1,-1 -1,-1 L 7,4 z"
     id="path7050-6-8"
     inkscape:connector-curvature="0" /></svg>