<?xml version="1.0" encoding="UTF-8" standalone="yes"?>
<svg viewBox="0 0 18 18" xmlns="http://www.w3.org/2000/svg">
  <path d="M4 5C4 4.44772 4.44772 4 5 4H13C13.5523 4 14 4.44772 14 5C14 5.55228 13.5523 6 13 6H10V6.5C10 7.05228 9.55228 7.5 9 7.5C8.44772 7.5 8 7.05228 8 6.5V6H5C4.44772 6 4 5.55228 4 5Z"/>
  <path d="M10.5 10C10.5 10.8284 9.82843 11.5 9 11.5C8.17157 11.5 7.5 10.8284 7.5 10C7.5 9.17157 8.17157 8.5 9 8.5C9.82843 8.5 10.5 9.17157 10.5 10Z"/>
  <path d="M9 12.5C8.44771 12.5 8 12.9477 8 13.5V14C8 14.5523 8.44771 15 9 15C9.55229 15 10 14.5523 10 14V13.5C10 12.9477 9.55229 12.5 9 12.5Z"/>
</svg>