<?xml version="1.0" encoding="UTF-8" standalone="no"?>
<!-- Created with Inkscape (http://www.inkscape.org/) -->

<svg
   xmlns:dc="http://purl.org/dc/elements/1.1/"
   xmlns:cc="http://creativecommons.org/ns#"
   xmlns:rdf="http://www.w3.org/1999/02/22-rdf-syntax-ns#"
   xmlns:svg="http://www.w3.org/2000/svg"
   xmlns="http://www.w3.org/2000/svg"
   xmlns:sodipodi="http://sodipodi.sourceforge.net/DTD/sodipodi-0.dtd"
   xmlns:inkscape="http://www.inkscape.org/namespaces/inkscape"
   width="20"
   height="20"
   id="svg4863"
   version="1.1"
   inkscape:version="0.48.5 r10040"
   sodipodi:docname="text-ignore-placement.svg"
   inkscape:export-filename="/Users/saman/work_repos/base/latest/icons/text-vertical-center.png"
   inkscape:export-xdpi="180"
   inkscape:export-ydpi="180">
  <defs
     id="defs4865" />
  <sodipodi:namedview
     id="base"
     pagecolor="#ffffff"
     bordercolor="#666666"
     borderopacity="1.0"
     inkscape:pageopacity="0.0"
     inkscape:pageshadow="2"
     inkscape:zoom="11.313708"
     inkscape:cx="10.082194"
     inkscape:cy="7.7900385"
     inkscape:document-units="px"
     inkscape:current-layer="layer1"
     showgrid="true"
     inkscape:snap-bbox="true"
     inkscape:snap-nodes="true"
     inkscape:window-width="1459"
     inkscape:window-height="843"
     inkscape:window-x="-48"
     inkscape:window-y="396"
     inkscape:window-maximized="0"
     showguides="false"
     inkscape:guide-bbox="true">
    <inkscape:grid
       type="xygrid"
       id="grid4886"
       empspacing="5"
       visible="true"
       enabled="true"
       snapvisiblegridlinesonly="true" />
    <sodipodi:guide
       orientation="0,1"
       position="22,15"
       id="guide6423" />
    <sodipodi:guide
       orientation="0,1"
       position="21,5"
       id="guide6425" />
    <sodipodi:guide
       orientation="0,1"
       position="33,95"
       id="guide7108" />
  </sodipodi:namedview>
  <metadata
     id="metadata4868">
    <rdf:RDF>
      <cc:Work
         rdf:about="">
        <dc:format>image/svg+xml</dc:format>
        <dc:type
           rdf:resource="http://purl.org/dc/dcmitype/StillImage" />
        <dc:title />
      </cc:Work>
    </rdf:RDF>
  </metadata>
  <g
     inkscape:label="Layer 1"
     inkscape:groupmode="layer"
     id="layer1"
     transform="translate(0,-1032.3622)">
    <g
       transform="matrix(1.9999805,0,0,1.7500055,-539.99976,-1081.7773)"
       id="g5863" />
    <g
       id="g7094" />
    <path
       d="m 9.84375,1037.3622 c -0.28125,0.047 -0.84375,0.25 -0.84375,1 0,1 1,1 1,1 l 1,0 0,0.25 c 0.480694,0.2593 1.03125,0.9361 1.03125,1.75 0,0.8013 -0.556141,1.4526 -1.03125,1.7188 l 0,0.2812 c 0,0 0,1 1,1 1,0 1,-1 1,-1 l 0.03125,-4 0.96875,0 c 0,0 1,0 1,-1 0,-1 -1,-1 -1,-1 l -4,0 c 0,0 -0.0625,-0.016 -0.15625,0 z m -4,3 c -0.200481,0.033 -0.538056,0.1709 -0.71875,0.5 l 5.8125,0 c -0.256,-0.512 -0.90625,-0.5 -0.90625,-0.5 l -4.03125,0 c 0,0 -0.0625,-0.016 -0.15625,0 z m -0.84375,1 c 0,0.2154 0.04993,0.3674 0.125,0.5 l 5.78125,0 c 0.0728,-0.1326 0.125,-0.2846 0.125,-0.5 z m 2,1 0,0.5 2,0 0,-0.5 z m 0,1 0,0.5 2,0 0,-0.5 z m 0,1 0,0.5 2,0 0,-0.5 z m 0,1 0,0.5 2,0 0,-0.5 z m 0,1 c 0,0 0,0.25 0.125,0.5 l 1.75,0 c 0.125,-0.25 0.125,-0.5 0.125,-0.5 z"
       id="path7050-6-8-4"
       inkscape:connector-curvature="0"
       sodipodi:nodetypes="sscccsccscccsccssccccscccccccccccccccccccccccccccccc" />
  </g>
</svg>
