<?xml version="1.0" encoding="UTF-8" standalone="no"?>
<!-- Created with Inkscape (http://www.inkscape.org/) -->

<svg
   xmlns:dc="http://purl.org/dc/elements/1.1/"
   xmlns:cc="http://creativecommons.org/ns#"
   xmlns:rdf="http://www.w3.org/1999/02/22-rdf-syntax-ns#"
   xmlns:svg="http://www.w3.org/2000/svg"
   xmlns="http://www.w3.org/2000/svg"
   xmlns:sodipodi="http://sodipodi.sourceforge.net/DTD/sodipodi-0.dtd"
   xmlns:inkscape="http://www.inkscape.org/namespaces/inkscape"
   width="20"
   height="20"
   id="svg4863"
   version="1.1"
   inkscape:version="0.48.5 r10040"
   sodipodi:docname="text-max-width.svg"
   inkscape:export-filename="/Users/saman/work_repos/base/latest/icons/text-vertical-center.png"
   inkscape:export-xdpi="180"
   inkscape:export-ydpi="180">
  <defs
     id="defs4865" />
  <sodipodi:namedview
     id="base"
     pagecolor="#ffffff"
     bordercolor="#666666"
     borderopacity="1.0"
     inkscape:pageopacity="0.0"
     inkscape:pageshadow="2"
     inkscape:zoom="8"
     inkscape:cx="18.506317"
     inkscape:cy="13.620558"
     inkscape:document-units="px"
     inkscape:current-layer="layer1"
     showgrid="false"
     inkscape:snap-bbox="true"
     inkscape:snap-nodes="true"
     inkscape:window-width="1369"
     inkscape:window-height="893"
     inkscape:window-x="193"
     inkscape:window-y="23"
     inkscape:window-maximized="0"
     showguides="false"
     inkscape:guide-bbox="true">
    <inkscape:grid
       type="xygrid"
       id="grid4886"
       empspacing="5"
       visible="true"
       enabled="true"
       snapvisiblegridlinesonly="true" />
    <sodipodi:guide
       orientation="0,1"
       position="22,15"
       id="guide6423" />
    <sodipodi:guide
       orientation="0,1"
       position="21,5"
       id="guide6425" />
    <sodipodi:guide
       orientation="0,1"
       position="33,95"
       id="guide7108" />
  </sodipodi:namedview>
  <metadata
     id="metadata4868">
    <rdf:RDF>
      <cc:Work
         rdf:about="">
        <dc:format>image/svg+xml</dc:format>
        <dc:type
           rdf:resource="http://purl.org/dc/dcmitype/StillImage" />
        <dc:title />
      </cc:Work>
    </rdf:RDF>
  </metadata>
  <g
     inkscape:label="Layer 1"
     inkscape:groupmode="layer"
     id="layer1"
     transform="translate(0,-1032.3622)">
    <g
       transform="matrix(1.9999805,0,0,1.7500055,-539.99976,-1081.7773)"
       id="g5863" />
    <g
       id="g7094" />
    <path
       style="color:#000000;fill:#000000;fill-opacity:1;fill-rule:nonzero;stroke:none;stroke-width:2;marker:none;visibility:visible;display:inline;overflow:visible;enable-background:accumulate"
       d="M 11 3 C 10.741181 3.006025 10.494404 3.0925 10.3125 3.28125 C 9.948705 3.65915 9.940883 4.3166 10.3125 4.6875 L 10.59375 5 L 5 5 C 5 5 4 5 4 6 C 4 7 5 7 5 7 L 10.59375 7 L 10.3125 7.3125 C 9.94143 7.6835 9.949068 8.34075 10.3125 8.71875 C 10.497879 8.90425 10.738955 8.9958 11 9 C 11.261275 9.0006 11.529769 8.932 11.71875 8.75 L 13.5625 6.875 C 13.792855 6.6442 13.999774 6.3264 14 6 C 14.000587 5.6742 13.792971 5.3563 13.5625 5.125 L 11.71875 3.25 C 11.529886 3.06815 11.258819 2.993975 11 3 z M 15 5 L 15 7 L 16 7 L 16 5 L 15 5 z M 15 8 L 15 10 L 16 10 L 16 8 L 15 8 z M 5 10 C 4.446 10 4 10.446 4 11 C 4 11.554 4.446 12 5 12 L 13 12 C 13.554 12 14 11.554 14 11 C 14 10.446 13.554 10 13 10 L 5 10 z M 15 11 L 15 13 L 16 13 L 16 11 L 15 11 z M 5 14 C 4.446 14 4 14.446 4 15 C 4 15.554 4.446 16 5 16 L 9 16 C 9.554 16 10 15.554 10 15 C 10 14.446 9.554 14 9 14 L 5 14 z M 15 14 L 15 16 L 16 16 L 16 14 L 15 14 z "
       transform="translate(0,1032.3622)"
       id="rect6914-4" />
  </g>
</svg>
