<?xml version="1.0" encoding="UTF-8" standalone="yes"?>
<svg viewBox="0 0 18 18" xmlns="http://www.w3.org/2000/svg">
  <path d="M8 4C7.44772 4 7 4.44772 7 5C7 5.55228 7.44772 6 8 6H10.5V13C10.5 13.5523 10.9477 14 11.5 14C12.0523 14 12.5 13.5523 12.5 13V6H15C15.5523 6 16 5.55228 16 5C16 4.44772 15.5523 4 15 4H8Z"/>
  <path d="M3 7C2.44772 7 2 7.44772 2 8C2 8.55228 2.44772 9 3 9H4.5V13C4.5 13.5523 4.94772 14 5.5 14C6.05228 14 6.5 13.5523 6.5 13V9H8C8.55228 9 9 8.55228 9 8C9 7.44772 8.55228 7 8 7H3Z"/>
</svg>