<?xml version="1.0" encoding="UTF-8" standalone="yes"?>
<svg viewBox="0 0 18 18" xmlns="http://www.w3.org/2000/svg">
  <path d="M8.73554 4.13846C8.88799 4.05248 9.07431 4.05248 9.22677 4.13846L11.9029 5.64776C12.2421 5.83905 12.2421 6.3275 11.9029 6.51879L9.22677 8.02808C9.07431 8.11407 8.88799 8.11407 8.73554 8.02808L6.05936 6.51879C5.72019 6.3275 5.72019 5.83905 6.05936 5.64776L8.73554 4.13846Z"/>
  <path d="M4.43963 7.05521C4.28717 6.96923 4.10085 6.96923 3.9484 7.05521L1.27222 8.56451C0.933044 8.75579 0.933044 9.24425 1.27222 9.43553L3.94839 10.9448C4.10085 11.0308 4.28717 11.0308 4.43963 10.9448L7.11581 9.43553C7.45498 9.24425 7.45498 8.75579 7.11581 8.56451L4.43963 7.05521Z"/>
  <path d="M9.22677 9.97171C9.07431 9.88573 8.88799 9.88573 8.73554 9.97171L6.05936 11.481C5.72019 11.6723 5.72019 12.1608 6.05936 12.352L8.73554 13.8613C8.88799 13.9473 9.07431 13.9473 9.22677 13.8613L11.9029 12.352C12.2421 12.1608 12.2421 11.6723 11.9029 11.481L9.22677 9.97171Z"/>
  <path d="M14.0516 7.05521C13.8991 6.96923 13.7128 6.96923 13.5604 7.05521L10.8842 8.56451C10.545 8.75579 10.545 9.24425 10.8842 9.43553L13.5604 10.9448C13.7128 11.0308 13.8991 11.0308 14.0516 10.9448L16.7278 9.43553C17.067 9.24425 17.067 8.75579 16.7278 8.56451L14.0516 7.05521Z"/>
</svg>