<?xml version="1.0" encoding="UTF-8" standalone="yes"?>
<svg viewBox="0 0 18 18" xmlns="http://www.w3.org/2000/svg">
  <path d="M5 6H13C13.5523 6 14 5.55228 14 5C14 4.44772 13.5523 4 13 4H11.5352C11.2008 4 10.8886 3.8329 10.7031 3.5547L10.2969 2.9453C10.1114 2.6671 9.79917 2.5 9.46482 2.5H8.53518C8.20083 2.5 7.8886 2.6671 7.70313 2.9453L7.29687 3.5547C7.1114 3.8329 6.79917 4 6.46482 4H5C4.44772 4 4 4.44772 4 5C4 5.55228 4.44772 6 5 6Z"/>
  <path d="M13 7H5V13.5C5 14.3284 5.67157 15 6.5 15H11.5C12.3284 15 13 14.3284 13 13.5V7Z"/>
</svg>