<?xml version="1.0" encoding="UTF-8" standalone="yes"?>
<svg viewBox="0 0 18 18" xmlns="http://www.w3.org/2000/svg">
  <path d="M15 5.23894C14.5714 5.41593 14.0571 5.59292 13.6286 5.59292C14.1429 5.32743 14.4857 4.79646 14.7429 4.17699C14.2286 4.44248 13.7143 4.70796 13.2 4.79646C12.7714 4.35398 12.0857 4 11.4 4C10.0286 4 8.91429 5.15044 8.91429 6.47788C8.91429 6.65487 8.91429 6.83186 9 7.00885C6.85714 7.09735 5.05714 6.0354 3.85714 4.53097C3.6 4.88496 3.51429 5.32743 3.51429 5.76991C3.51429 6.65487 3.94286 7.36283 4.62857 7.89381C4.2 7.89381 3.85714 7.80531 3.51429 7.53982C3.51429 8.77876 4.37143 9.75221 5.48571 10.0177C5.31429 10.1062 5.05714 10.1062 4.8 10.1062C4.62857 10.1062 4.45714 10.1062 4.37143 10.0177C4.71429 10.9912 5.57143 11.6991 6.68571 11.7876C5.82857 12.4956 4.8 12.8496 3.6 12.8496C3.42857 12.8496 3.17143 12.8496 3 12.8496C4.11429 13.5575 5.4 14 6.77143 14C11.3143 14 13.8 10.1947 13.8 6.92035C13.8 6.83186 13.8 6.74336 13.8 6.56637C14.2286 6.21239 14.6571 5.76991 15 5.23894Z"/>
</svg>