<?xml version="1.0" encoding="UTF-8" standalone="yes"?>
<svg viewBox="0 0 18 18">
  <g>
    <path d="M16,4.7c-0.5,0.2-1.1,0.4-1.6,0.4c0.6-0.3,1-0.9,1.3-1.6c-0.6,0.3-1.2,0.6-1.8,0.7c-0.5-0.5-1.3-0.9-2.1-0.9
		c-1.6,0-2.9,1.3-2.9,2.8c0,0.2,0,0.4,0.1,0.6C6.5,6.8,4.4,5.6,3,3.9C2.7,4.3,2.6,4.8,2.6,5.3c0,1,0.5,1.8,1.3,2.4
		C3.4,7.7,3,7.6,2.6,7.3l0,0c0,1.4,1,2.5,2.3,2.8c-0.2,0.1-0.5,0.1-0.8,0.1c-0.2,0-0.4,0-0.5-0.1C4,11.2,5,12,6.3,12.1
		c-1,0.8-2.2,1.2-3.6,1.2c-0.2,0-0.5,0-0.7,0c1.3,0.8,2.8,1.3,4.4,1.3c5.3,0,8.2-4.3,8.2-8c0-0.1,0-0.2,0-0.4
		C15.1,5.8,15.6,5.3,16,4.7"/>
  </g>
</svg>