<?xml version="1.0" encoding="UTF-8" standalone="yes"?>
<svg viewBox="0 0 20 20">
  <g>
    <path d="M17,5.7c-0.5,0.2-1.1,0.4-1.6,0.4c0.6-0.3,1-0.9,1.3-1.6c-0.6,0.3-1.2,0.6-1.8,0.7c-0.5-0.5-1.3-0.9-2.1-0.9
		c-1.6,0-2.9,1.3-2.9,2.8c0,0.2,0,0.4,0.1,0.6C7.5,7.8,5.4,6.6,4,4.9C3.7,5.3,3.6,5.8,3.6,6.3c0,1,0.5,1.8,1.3,2.4
		C4.4,8.7,4,8.6,3.6,8.3c0,0,0,0,0,0c0,1.4,1,2.5,2.3,2.8c-0.2,0.1-0.5,0.1-0.8,0.1c-0.2,0-0.4,0-0.5-0.1c0.4,1.1,1.4,1.9,2.7,2
		c-1,0.8-2.2,1.2-3.6,1.2c-0.2,0-0.5,0-0.7,0c1.3,0.8,2.8,1.3,4.4,1.3c5.3,0,8.2-4.3,8.2-8c0-0.1,0-0.2,0-0.4
		C16.1,6.8,16.6,6.3,17,5.7"/>
  </g>
</svg>