<?xml version="1.0" encoding="UTF-8" standalone="yes"?>
<svg viewBox="0 0 18 18" xmlns="http://www.w3.org/2000/svg">
  <path d="M9.70711 3.70708L10.7929 4.79287C11.1834 5.18339 11.8166 5.18339 12.2071 4.79286L12.7929 4.20708C13.1834 3.81655 13.1834 3.18339 12.7929 2.79286L11.7071 1.70708C11.3166 1.31655 10.6834 1.31655 10.2929 1.70708L9.70711 2.29287C9.31658 2.68339 9.31658 3.31655 9.70711 3.70708Z"/>
  <path d="M10.2803 8.7803L11.5 9.99997L12 5.99997L8 6.49997L9.21967 7.71964L7.46967 9.46964C7.17678 9.76254 7.17678 10.2374 7.46967 10.5303C7.76256 10.8232 8.23744 10.8232 8.53033 10.5303L10.2803 8.7803Z"/>
  <path d="M7.29289 15.2929L2.70711 10.7071C2.31658 10.3166 2.31658 9.68339 2.70711 9.29287L3.29289 8.70708C3.68342 8.31655 4.31658 8.31655 4.70711 8.70708L9.29289 13.2929C9.68342 13.6834 9.68342 14.3166 9.29289 14.7071L8.70711 15.2929C8.31658 15.6834 7.68342 15.6834 7.29289 15.2929Z"/>
  <path d="M14.2929 8.29287L13.2071 7.20708C12.8166 6.81655 12.8166 6.18339 13.2071 5.79287L13.7929 5.20708C14.1834 4.81655 14.8166 4.81655 15.2071 5.20708L16.2929 6.29286C16.6834 6.68339 16.6834 7.31655 16.2929 7.70708L15.7071 8.29286C15.3166 8.68339 14.6834 8.68339 14.2929 8.29287Z"/>
</svg>