<?xml version="1.0" encoding="UTF-8" standalone="yes"?>
<svg viewBox="0 0 18 18">
  <path d="M7.5,7.5c0.3,0.3,1,1,1,1l-1,1c0,0-0.5,0.5,0,1s1,0,1,0l1-1l1,1C11,11,12,11,12,10V6H8C7,6,7,7,7.5,7.5z"/>
  <path d="M3.8,9.3C3.6,9.1,3.3,9,3,9S2.5,9.1,2.3,9.3l-1,1c-0.4,0.4-0.4,1,0,1.4l4.9,4.9c0.4,0.4,1,0.4,1.4,0l1-1
	c0.4-0.4,0.4-1,0-1.4L3.8,9.3z"/>
  <path d="M16.7,6.3l-1-1C15.5,5.1,15.3,5,15,5s-0.5,0.1-0.7,0.3l-1,1c-0.4,0.4-0.4,1,0,1.4l1,1c0.4,0.4,1,0.4,1.4,0l1-1
	C17.1,7.3,17.1,6.7,16.7,6.3z"/>
  <path d="M11.7,1.3C11.5,1.1,11.3,1,11,1s-0.5,0.1-0.7,0.3l-1,1c-0.4,0.4-0.4,1,0,1.4l1,1c0.4,0.4,1,0.4,1.4,0l1-1
	c0.4-0.4,0.4-1,0-1.4L11.7,1.3z"/>
</svg>