<?xml version="1.0" encoding="UTF-8" standalone="yes"?>
<svg viewBox="0 0 20 20">
  <path d="M8.5,8.5c0.3,0.3,1,1,1,1l-1,1c0,0-0.5,0.5,0,1s1,0,1,0l1-1l1,1C12,12,13,12,13,11V7H9C8,7,8,8,8.5,8.5z"/>
  <path d="M4.8,10.3C4.6,10.1,4.3,10,4,10s-0.5,0.1-0.7,0.3l-1,1c-0.4,0.4-0.4,1,0,1.4l4.9,4.9c0.4,0.4,1,0.4,1.4,0l1-1
	c0.4-0.4,0.4-1,0-1.4L4.8,10.3z"/>
  <path d="M17.7,7.3l-1-1C16.5,6.1,16.3,6,16,6s-0.5,0.1-0.7,0.3l-1,1c-0.4,0.4-0.4,1,0,1.4l1,1c0.4,0.4,1,0.4,1.4,0l1-1
	C18.1,8.3,18.1,7.7,17.7,7.3z"/>
  <path d="M12.7,2.3C12.5,2.1,12.3,2,12,2s-0.5,0.1-0.7,0.3l-1,1c-0.4,0.4-0.4,1,0,1.4l1,1c0.4,0.4,1,0.4,1.4,0l1-1
	c0.4-0.4,0.4-1,0-1.4L12.7,2.3z"/>
</svg>