<?xml version="1.0" encoding="UTF-8" standalone="yes"?>
<svg viewBox="0 0 18 18">
  <g>
    <g>
      <path d="M290.8,547.3c-0.4,1.3-0.7,2.5-1.1,3.8c0,0,0,0,0,0.1c0,0-0.1-0.1-0.1-0.1c-0.7-1.3-1.5-2.6-2.2-3.8
			c-0.1-0.1-0.1-0.2,0-0.2c0.7-1.2,1.5-2.5,2.2-3.7c0,0,0.1-0.1,0.1-0.1c0.1,0.5,0.3,0.9,0.4,1.4c0.2,0.8,0.5,1.7,0.7,2.5
			C290.8,547.1,290.8,547.2,290.8,547.3 M287.2,551.5c-0.9-0.2-1.7-0.5-2.6-0.7c-0.1,0-0.2-0.1-0.2-0.1c-0.9-0.9-1.8-1.8-2.7-2.8
			c0,0-0.1-0.1-0.1-0.1c0.2,0,0.3,0,0.4,0c1.4,0,2.7,0,4.1,0c0.1,0,0.1,0,0.2,0.1c0.8,1.3,1.5,2.6,2.3,3.9c0,0,0,0,0,0.1
			C288.1,551.8,287.6,551.7,287.2,551.5 M281.6,546.3c0.9-0.9,1.8-1.8,2.7-2.7c0.1-0.1,0.1-0.1,0.2-0.1c1.3-0.3,2.6-0.7,3.9-1
			c0,0,0,0,0.1,0c-0.2,0.3-0.3,0.6-0.5,0.8c-0.6,1-1.2,2.1-1.8,3.1c-0.1,0.1-0.1,0.1-0.2,0.1c-0.7,0-1.4,0-2.1,0c-0.8,0-1.6,0-2.4,0
			C281.6,546.4,281.6,546.4,281.6,546.3 M291.1,547.3c-0.1-0.1-0.1-0.2,0-0.2c0.2-0.4,0.4-0.8,0.7-1.1c0-0.1,0.1-0.2,0-0.3
			c-0.4-1.6-0.9-3.1-1.3-4.7c0-0.2-0.1-0.3-0.1-0.5c0,0-0.1,0-0.1,0c-1.7,0.5-3.4,0.9-5.1,1.4c-0.1,0-0.1,0.1-0.2,0.1
			c-0.2,0.4-0.5,0.8-0.7,1.2c0,0.1-0.1,0.1-0.2,0.1c-0.4,0-0.9,0-1.3,0c-0.1,0-0.2,0-0.2,0.1c-1,1-2,1.9-2.9,2.9
			c-0.3,0.3-0.6,0.6-0.8,0.8c0,0,0,0,0,0c1.3,1.3,2.5,2.5,3.8,3.8c0,0,0.1,0.1,0.2,0.1c0.4,0,0.9,0,1.3,0c0.1,0,0.2,0,0.2,0.1
			c0.2,0.4,0.4,0.7,0.6,1.1c0.1,0.1,0.1,0.2,0.2,0.2c1.3,0.3,2.5,0.7,3.8,1c0.5,0.1,0.9,0.2,1.4,0.4c0,0,0-0.1,0-0.1
			c0.5-1.7,0.9-3.4,1.4-5c0-0.1,0-0.2,0-0.2C291.6,548.1,291.3,547.7,291.1,547.3"/>
    </g>
  </g>
</svg>