<?xml version="1.0" encoding="UTF-8" standalone="yes"?>
<svg viewBox="0 0 18 18">
  <g>
    <g>
      <path d="M290.8,547.3c-0.4,1.3-0.7,2.5-1.1,3.8c0,0,0,0,0,0.1l-0.1-0.1c-0.7-1.3-1.5-2.6-2.2-3.8c-0.1-0.1-0.1-0.2,0-0.2
			c0.7-1.2,1.5-2.5,2.2-3.7l0.1-0.1c0.1,0.5,0.3,0.9,0.4,1.4C290.3,545.5,290.6,546.4,290.8,547.3
			C290.8,547.1,290.8,547.2,290.8,547.3 M287.2,551.5c-0.9-0.2-1.7-0.5-2.6-0.7c-0.1,0-0.2-0.1-0.2-0.1c-0.9-0.9-1.8-1.8-2.7-2.8
			l-0.1-0.1c0.2,0,0.3,0,0.4,0c1.4,0,2.7,0,4.1,0c0.1,0,0.1,0,0.2,0.1c0.8,1.3,1.5,2.6,2.3,3.9c0,0,0,0,0,0.1
			C288.1,551.8,287.6,551.7,287.2,551.5 M281.6,546.3c0.9-0.9,1.8-1.8,2.7-2.7c0.1-0.1,0.1-0.1,0.2-0.1c1.3-0.3,2.6-0.7,3.9-1
			c0,0,0,0,0.1,0c-0.2,0.3-0.3,0.6-0.5,0.8c-0.6,1-1.2,2.1-1.8,3.1c-0.1,0.1-0.1,0.1-0.2,0.1c-0.7,0-1.4,0-2.1,0c-0.8,0-1.6,0-2.4,0
			C281.6,546.4,281.6,546.4,281.6,546.3 M291.1,547.3c-0.1-0.1-0.1-0.2,0-0.2c0.2-0.4,0.4-0.8,0.7-1.1c0-0.1,0.1-0.2,0-0.3
			c-0.4-1.6-0.9-3.1-1.3-4.7c0-0.2-0.1-0.3-0.1-0.5h-0.1c-1.7,0.5-3.4,0.9-5.1,1.4c-0.1,0-0.1,0.1-0.2,0.1c-0.2,0.4-0.5,0.8-0.7,1.2
			c0,0.1-0.1,0.1-0.2,0.1c-0.4,0-0.9,0-1.3,0c-0.1,0-0.2,0-0.2,0.1c-1,1-2,1.9-2.9,2.9c-0.3,0.3-0.6,0.6-0.8,0.8l0,0
			c1.3,1.3,2.5,2.5,3.8,3.8c0,0,0.1,0.1,0.2,0.1c0.4,0,0.9,0,1.3,0c0.1,0,0.2,0,0.2,0.1c0.2,0.4,0.4,0.7,0.6,1.1
			c0.1,0.1,0.1,0.2,0.2,0.2c1.3,0.3,2.5,0.7,3.8,1c0.5,0.1,0.9,0.2,1.4,0.4v-0.1c0.5-1.7,0.9-3.4,1.4-5c0-0.1,0-0.2,0-0.2
			C291.6,548.1,291.3,547.7,291.1,547.3"/>
    </g>
  </g>
  <path d="M14.3,9.3c-0.1-0.1-0.1-0.2,0-0.2c0.2-0.4,0.4-0.8,0.7-1.1c0-0.1,0.1-0.2,0-0.3c-0.4-1.6-0.9-3.1-1.3-4.7
	c0-0.2-0.1-0.3-0.1-0.5c0,0-0.1,0-0.1,0c-1.7,0.5-3.4,0.9-5.1,1.4C8.3,3.8,8.3,3.9,8.2,4C8,4.3,7.8,4.7,7.6,5.1
	c0,0.1-0.1,0.1-0.2,0.1c-0.4,0-0.9,0-1.3,0c-0.1,0-0.2,0-0.2,0.1c-1,1-2,1.9-2.9,2.9C2.6,8.6,2.3,8.8,2,9.1c0,0,0,0,0,0
	c1.3,1.3,2.5,2.5,3.8,3.8C5.9,13,6,13,6,13c0.4,0,0.9,0,1.3,0c0.1,0,0.2,0,0.2,0.1c0.2,0.4,0.4,0.7,0.6,1.1c0.1,0.1,0.1,0.2,0.2,0.2
	c1.3,0.3,2.5,0.7,3.8,1c0.5,0.1,0.9,0.2,1.4,0.4c0,0,0-0.1,0-0.1c0.5-1.7,0.9-3.4,1.4-5c0-0.1,0-0.2,0-0.2
	C14.8,10,14.5,9.6,14.3,9.3z M4.8,8.3c0.9-0.9,1.8-1.8,2.7-2.7c0.1-0.1,0.1-0.1,0.2-0.1c1.3-0.3,2.6-0.7,3.9-1c0,0,0,0,0.1,0
	c-0.2,0.3-0.3,0.6-0.5,0.8c-0.6,1-1.2,2.1-1.8,3.1C9.4,8.5,9.4,8.5,9.2,8.5c-0.7,0-1.4,0-2.1,0c-0.8,0-1.6,0-2.4,0
	C4.7,8.4,4.8,8.3,4.8,8.3z M10.3,13.5c-0.9-0.2-1.7-0.5-2.6-0.7c-0.1,0-0.2-0.1-0.2-0.1c-0.9-0.9-1.8-1.8-2.7-2.8
	c0,0-0.1-0.1-0.1-0.1c0.2,0,0.3,0,0.4,0c1.4,0,2.7,0,4.1,0c0.1,0,0.1,0,0.2,0.1c0.8,1.3,1.5,2.6,2.3,3.9c0,0,0,0,0,0.1
	C11.3,13.8,10.8,13.6,10.3,13.5z M12.9,13.1C12.9,13.1,12.9,13.1,12.9,13.1c-0.1,0-0.1,0-0.1,0c-0.7-1.3-1.5-2.6-2.2-3.8
	c-0.1-0.1-0.1-0.2,0-0.2c0.7-1.2,1.5-2.5,2.2-3.7c0,0,0.1-0.1,0.1-0.1C13,5.6,13.1,6,13.2,6.5c0.2,0.8,0.5,1.7,0.7,2.5
	c0,0.1,0,0.2,0,0.3C13.6,10.6,13.2,11.8,12.9,13.1z"/>
</svg>