<?xml version="1.0" encoding="UTF-8" standalone="yes"?>
<svg viewBox="0 0 18 18" xmlns="http://www.w3.org/2000/svg">
  <path d="M9 9C10.6569 9 12 7.65685 12 6C12 4.34315 10.6569 3 9 3C7.34315 3 6 4.34315 6 6C6 7.65685 7.34315 9 9 9Z"/>
  <path d="M13.9003 14.0066C14.0101 14.5479 13.5523 15 13 15H5C4.44772 15 3.98995 14.5479 4.09967 14.0066C4.16337 13.6924 4.25731 13.3842 4.3806 13.0866C4.63188 12.48 5.00017 11.9288 5.46447 11.4645C5.92876 11.0002 6.47995 10.6319 7.08658 10.3806C7.69321 10.1293 8.34339 10 9 10C9.65661 10 10.3068 10.1293 10.9134 10.3806C11.52 10.6319 12.0712 11.0002 12.5355 11.4645C12.9998 11.9288 13.3681 12.48 13.6194 13.0866C13.7427 13.3842 13.8366 13.6924 13.9003 14.0066Z"/>
</svg>