<?xml version="1.0" encoding="UTF-8" standalone="yes"?>
<svg viewBox="0 0 20 20">
  <path d="M7.5,15H5v-2.5C5,12.2,4.8,12,4.5,12S4,12.2,4,12.5v3C4,15.8,4.2,16,4.5,16h3C7.8,16,8,15.8,8,15.5S7.8,15,7.5,15z"/>
  <path d="M4.5,8C4.8,8,5,7.8,5,7.5V5h2.5C7.8,5,8,4.8,8,4.5S7.8,4,7.5,4h-3C4.2,4,4,4.2,4,4.5v3C4,7.8,4.2,8,4.5,8z"/>
  <path d="M7,8v4c0,0.6,0.4,1,0.9,1h4.2c0.5,0,0.9-0.4,0.9-1V8c0-0.6-0.4-1-0.9-1H7.9C7.4,7,7,7.4,7,8z"/>
  <path d="M15.5,12c-0.3,0-0.5,0.2-0.5,0.5V15h-2.5c-0.3,0-0.5,0.2-0.5,0.5s0.2,0.5,0.5,0.5h3c0.3,0,0.5-0.2,0.5-0.5v-3
	C16,12.2,15.8,12,15.5,12z"/>
  <path d="M15.5,4h-3C12.2,4,12,4.2,12,4.5S12.2,5,12.5,5H15v2.5C15,7.8,15.2,8,15.5,8S16,7.8,16,7.5v-3C16,4.2,15.8,4,15.5,4z"/>
</svg>