<?xml version="1.0" encoding="UTF-8" standalone="yes"?>
<svg viewBox="0 0 18 18">
  <path d="M6.5,14H4v-2.5C4,11.2,3.8,11,3.5,11S3,11.2,3,11.5v3C3,14.8,3.2,15,3.5,15h3C6.8,15,7,14.8,7,14.5S6.8,14,6.5,14z"/>
  <path d="M3.5,7C3.8,7,4,6.8,4,6.5V4h2.5C6.8,4,7,3.8,7,3.5S6.8,3,6.5,3h-3C3.2,3,3,3.2,3,3.5v3C3,6.8,3.2,7,3.5,7z"/>
  <path d="M6,7v4c0,0.6,0.4,1,0.9,1h4.2c0.5,0,0.9-0.4,0.9-1V7c0-0.6-0.4-1-0.9-1H6.9C6.4,6,6,6.4,6,7z"/>
  <path d="M14.5,11c-0.3,0-0.5,0.2-0.5,0.5V14h-2.5c-0.3,0-0.5,0.2-0.5,0.5s0.2,0.5,0.5,0.5h3c0.3,0,0.5-0.2,0.5-0.5v-3
	C15,11.2,14.8,11,14.5,11z"/>
  <path d="M14.5,3h-3C11.2,3,11,3.2,11,3.5S11.2,4,11.5,4H14v2.5C14,6.8,14.2,7,14.5,7S15,6.8,15,6.5v-3C15,3.2,14.8,3,14.5,3z"/>
</svg>