<?xml version="1.0" encoding="UTF-8" standalone="yes"?>
<svg viewBox="0 0 18 18">
  <path d="M9.8,1.4c1,0,1.8,0.8,1.8,1.8S10.8,5,9.8,5S8,4.2,8,3.2S8.8,1.4,9.8,1.4z M13.4,8.6L13.4,8.6L11.7,8L9.8,5.8
	C9.6,5.6,9.3,5.4,9,5.5H8.9H8.8c-0.1,0-0.2,0-0.3,0L5.7,6.4C5.4,6.5,5.2,6.6,5.1,6.9L4,9c-0.3,0.5-0.1,1.1,0.4,1.4s1.1,0.1,1.4-0.4
	c0,0,0,0,0-0.1l0.9-1.7L7.3,8l-1.2,5.1l-2.3,2.3c-0.4,0.4-0.4,1-0.1,1.4c0.4,0.4,1,0.4,1.4,0.1c0,0,0,0,0.1-0.1l2.5-2.5
	C7.8,14.2,7.9,14,8,13.8l0.4-1.6l1.7,1.4V16c0,0.6,0.4,1,1,1s1-0.4,1-1l0,0v-2.9c0-0.3-0.1-0.6-0.4-0.8l-2.2-1.9
	c0.1-0.5,0.3-1.1,0.4-1.6l0.6,0.6c0.1,0.1,0.3,0.2,0.4,0.3l1.9,0.6c0.5,0.2,1.1-0.1,1.3-0.6C14.2,9.4,13.9,8.8,13.4,8.6z"/>
</svg>