<?xml version="1.0" encoding="UTF-8" standalone="yes"?>
<svg viewBox="0 0 20 20">
  <path d="M10.8,2.4c1,0,1.8,0.8,1.8,1.8S11.8,6,10.8,6S9,5.2,9,4.2S9.8,2.4,10.8,2.4z M14.4,9.6L14.4,9.6L12.7,9l-1.9-2.2
	c-0.2-0.2-0.5-0.4-0.8-0.3H9.9H9.8c-0.1,0-0.2,0-0.3,0L6.7,7.4C6.4,7.5,6.2,7.6,6.1,7.9L5,10c-0.3,0.5-0.1,1.1,0.4,1.4
	s1.1,0.1,1.4-0.4c0,0,0,0,0-0.1l0.9-1.7L8.3,9l-1.2,5.1l-2.3,2.3c-0.4,0.4-0.4,1-0.1,1.4c0.4,0.4,1,0.4,1.4,0.1c0,0,0,0,0.1-0.1
	l2.5-2.5C8.8,15.2,8.9,15,9,14.8l0.4-1.6l1.7,1.4V17c0,0.6,0.4,1,1,1s1-0.4,1-1l0,0v-2.9c0-0.3-0.1-0.6-0.4-0.8l-2.2-1.9
	c0.1-0.5,0.3-1.1,0.4-1.6l0.6,0.6c0.1,0.1,0.3,0.2,0.4,0.3l1.9,0.6c0.5,0.2,1.1-0.1,1.3-0.6C15.2,10.4,14.9,9.8,14.4,9.6z"/>
</svg>