<?xml version="1.0" encoding="UTF-8" standalone="yes"?>
<svg viewBox="0 0 18 18" xmlns="http://www.w3.org/2000/svg">
  <path d="M11.5 3.25C11.5 4.2165 10.7165 5 9.75 5C8.7835 5 8 4.2165 8 3.25C8 2.2835 8.7835 1.5 9.75 1.5C10.7165 1.5 11.5 2.2835 11.5 3.25Z"/>
  <path d="M6.76396 6.02179C7.13588 5.84289 7.5433 5.75 7.95601 5.75H9.26393C10.3056 5.75 11.2578 6.33851 11.7236 7.27016L12.118 8.05902C12.3298 8.4825 12.7626 8.75 13.2361 8.75H13.5C13.9142 8.75 14.25 9.08579 14.25 9.5C14.25 9.91421 13.9142 10.25 13.5 10.25H13.2361C12.1944 10.25 11.2422 9.66149 10.7764 8.72984L10.382 7.94098C10.3176 7.81235 10.2329 7.6981 10.1329 7.60138L9.26516 10.2045L10.9445 11.8839C11.4604 12.3997 11.75 13.0996 11.75 13.8288V15.4998C11.75 15.914 11.4142 16.25 11 16.25C10.5858 16.25 10.25 15.9142 10.25 15.5V13.8288C10.25 13.4971 10.1182 13.1789 9.88388 12.9445L8.38352 11.4442L7.22357 15.6973C7.11459 16.097 6.70228 16.3326 6.30266 16.2236C5.90304 16.1146 5.66744 15.7023 5.77643 15.3027L7.2788 9.79395L8.0057 7.25H7.95601C7.76841 7.25 7.58322 7.29222 7.41417 7.37354L6.63347 7.74907C6.28379 7.91726 6.03206 8.23831 5.95212 8.61801L5.73391 9.65451C5.64858 10.0598 5.25082 10.3192 4.84549 10.2339C4.44016 10.1486 4.18076 9.75082 4.26609 9.34549L4.4843 8.309C4.66016 7.47366 5.21398 6.76735 5.98326 6.39732L6.76396 6.02179Z"/>
</svg>