<?xml version="1.0" encoding="UTF-8" standalone="no"?>
<!-- Created with Inkscape (http://www.inkscape.org/) -->

<svg
   xmlns:dc="http://purl.org/dc/elements/1.1/"
   xmlns:cc="http://creativecommons.org/ns#"
   xmlns:rdf="http://www.w3.org/1999/02/22-rdf-syntax-ns#"
   xmlns:svg="http://www.w3.org/2000/svg"
   xmlns="http://www.w3.org/2000/svg"
   xmlns:sodipodi="http://sodipodi.sourceforge.net/DTD/sodipodi-0.dtd"
   xmlns:inkscape="http://www.inkscape.org/namespaces/inkscape"
   width="20"
   height="20"
   viewBox="0 0 20 20"
   id="svg4136"
   version="1.1"
   inkscape:version="0.91 r13725"
   sodipodi:docname="walk.svg">
  <defs
     id="defs4138" />
  <sodipodi:namedview
     id="base"
     pagecolor="#ffffff"
     bordercolor="#666666"
     borderopacity="1.0"
     inkscape:pageopacity="0.0"
     inkscape:pageshadow="2"
     inkscape:zoom="16"
     inkscape:cx="20.216499"
     inkscape:cy="9.7099374"
     inkscape:document-units="px"
     inkscape:current-layer="layer1"
     showgrid="true"
     units="px"
     showborder="true"
     inkscape:window-width="1280"
     inkscape:window-height="778"
     inkscape:window-x="1688"
     inkscape:window-y="189"
     inkscape:window-maximized="0"
     inkscape:snap-bbox="true"
     inkscape:bbox-paths="true"
     inkscape:bbox-nodes="true"
     inkscape:snap-bbox-edge-midpoints="true"
     showguides="true">
    <inkscape:grid
       type="xygrid"
       id="grid4684"
       color="#ee3f00"
       opacity="0.1254902"
       empspacing="2"
       spacingx="0.5"
       spacingy="0.5"
       dotted="false"
       visible="true"
       enabled="true" />
  </sodipodi:namedview>
  <metadata
     id="metadata4141">
    <rdf:RDF>
      <cc:Work
         rdf:about="">
        <dc:format>image/svg+xml</dc:format>
        <dc:type
           rdf:resource="http://purl.org/dc/dcmitype/StillImage" />
        <dc:title />
      </cc:Work>
    </rdf:RDF>
  </metadata>
  <g
     inkscape:label="Layer 1"
     inkscape:groupmode="layer"
     id="layer1"
     transform="translate(0,-1032.3622)">
    <circle
       style="fill:#000000;fill-opacity:1;stroke-width:2;stroke-linecap:round;stroke-linejoin:round;stroke-miterlimit:4;stroke-dasharray:none"
       id="path4139"
       cx="10.5"
       cy="1036.6122"
       r="1.75" />
    <path
       style="color:#000000;font-style:normal;font-variant:normal;font-weight:normal;font-stretch:normal;font-size:medium;line-height:normal;font-family:sans-serif;text-indent:0;text-align:start;text-decoration:none;text-decoration-line:none;text-decoration-style:solid;text-decoration-color:#000000;letter-spacing:normal;word-spacing:normal;text-transform:none;direction:ltr;block-progression:tb;writing-mode:lr-tb;baseline-shift:baseline;text-anchor:start;white-space:normal;clip-rule:nonzero;display:inline;overflow:visible;visibility:visible;opacity:1;isolation:auto;mix-blend-mode:normal;color-interpolation:sRGB;color-interpolation-filters:linearRGB;solid-color:#000000;solid-opacity:1;fill:#000000;fill-opacity:1;fill-rule:evenodd;stroke:none;stroke-width:2;stroke-linecap:round;stroke-linejoin:round;stroke-miterlimit:4;stroke-dasharray:none;stroke-dashoffset:0;stroke-opacity:1;color-rendering:auto;image-rendering:auto;shape-rendering:auto;text-rendering:auto;enable-background:accumulate"
       d="M 9.9199219 6.5449219 A 1.0001 1.0001 0 0 0 9.8144531 6.5546875 A 1.0001 1.0001 0 0 0 9.6992188 6.5488281 A 1.0001 1.0001 0 0 0 9.4335938 6.5917969 L 6.7109375 7.3789062 A 1.0001 1.0001 0 0 0 6.0917969 7.8984375 L 5.0449219 10.033203 A 1.0001 1.0001 0 1 0 6.8398438 10.914062 L 7.6914062 9.1777344 L 8.2617188 9.0117188 L 7.0898438 14.085938 L 4.7695312 16.349609 A 1.0001 1.0001 0 1 0 6.1640625 17.78125 L 8.6953125 15.3125 A 1.0001 1.0001 0 0 0 8.9726562 14.822266 L 9.3398438 13.228516 L 11.009766 14.638672 L 11.009766 17.064453 A 1.0001 1.0001 0 1 0 13.009766 17.064453 L 13.009766 14.173828 A 1.0001 1.0001 0 0 0 12.65625 13.410156 L 10.410156 11.513672 C 10.542446 10.97728 10.665862 10.450645 10.783203 9.9472656 L 11.34375 10.570312 A 1.0001 1.0001 0 0 0 11.775391 10.851562 L 13.714844 11.486328 A 1.0001 1.0001 0 1 0 14.335938 9.5859375 L 12.652344 9.0351562 L 10.71875 6.8847656 A 1.0001 1.0001 0 0 0 9.9199219 6.5449219 z "
       transform="translate(0,1032.3622)"
       id="path4143" />
  </g>
</svg>
