<?xml version="1.0" encoding="UTF-8" standalone="yes"?>
<svg viewBox="0 0 18 18">
  <path d="M12.2,6.1c0.2,0,0.4,0,0.6,0c-0.6-2.4-3.2-4.4-6.4-4.4C2.8,1.7,0,4.1,0,7.1c0,1.8,1,3.2,2.6,4.4L2,13.3l2.2-1.2
	c0.8,0.2,1.4,0.4,2.2,0.4c0.2,0,0.4,0,0.6,0c-0.2-0.4-0.2-0.8-0.2-1.4C6.8,8.3,9.2,6.1,12.2,6.1L12.2,6.1z M8.8,4.5
	c0.4,0,0.8,0.4,0.8,0.8S9.2,6.1,8.8,6.1c-0.6,0-1-0.4-1-0.8C7.8,4.7,8.2,4.5,8.8,4.5L8.8,4.5z M4.4,6.1c-0.6,0-1-0.4-1-0.8
	s0.4-0.8,1-0.8c0.4,0,0.8,0.4,0.8,0.8C5,5.7,4.8,6.1,4.4,6.1L4.4,6.1z M18,11.1c0-2.6-2.6-4.6-5.4-4.6c-3,0-5.4,2-5.4,4.6
	c0,2.6,2.4,4.6,5.4,4.6c0.6,0,1.2-0.2,2-0.4l1.8,1l-0.6-1.6C17,13.9,18,12.5,18,11.1L18,11.1z M10.8,10.3c-0.2,0-0.6-0.4-0.6-0.6
	c0-0.4,0.4-0.6,0.6-0.6c0.4,0,0.8,0.4,0.8,0.6S11.4,10.3,10.8,10.3L10.8,10.3z M14.4,10.3c-0.4,0-0.6-0.4-0.6-0.6
	c0-0.4,0.4-0.6,0.6-0.6c0.4,0,0.8,0.4,0.8,0.6C15.2,9.9,14.8,10.3,14.4,10.3L14.4,10.3z"/>
</svg>