<?xml version="1.0" encoding="UTF-8" standalone="yes"?>
<svg viewBox="0 0 18 18">
  <path d="M673.3 342.3c11.3 0 22.4 0.9 33.5 2.1 -30-139.8-179.4-243.6-350-243.6C166.2 100.8 10 230.7 10 395.8 10 491 61.9 569.2 148.8 630l-34.7 104.3 121.3-60.8c43.4 8.5 78.2 17.3 121.5 17.3 10.9 0 21.7-0.5 32.3-1.3 -6.7-23.2-10.7-47.5-10.7-72.8C378.5 465.3 508.6 342.3 673.3 342.3L673.3 342.3zM486.9 248.3c26.2 0 43.4 17.2 43.4 43.3 0 26-17.2 43.4-43.4 43.4 -25.9 0-52-17.4-52-43.4C434.9 265.4 460.9 248.3 486.9 248.3L486.9 248.3zM244.2 335c-26 0-52.2-17.4-52.2-43.4 0-26.1 26.2-43.3 52.2-43.3 26 0 43.3 17.2 43.3 43.3C287.5 317.6 270.2 335 244.2 335L244.2 335zM990 612.7C990 474 851.2 361 695.3 361c-165.1 0-295 113.1-295 251.7 0 139 130 251.7 295 251.7 34.5 0 69.4-8.6 104.1-17.3l95.1 52.2 -26.1-86.7C938.1 760.2 990 690.9 990 612.7L990 612.7zM599.7 569.2c-17.2 0-34.7-17.2-34.7-34.7 0-17.3 17.5-34.7 34.7-34.7 26.3 0 43.4 17.4 43.4 34.7C643.1 552.1 626 569.2 599.7 569.2L599.7 569.2zM790.4 569.2c-17.1 0-34.5-17.2-34.5-34.7 0-17.3 17.3-34.7 34.5-34.7 26.1 0 43.4 17.4 43.4 34.7C833.9 552.1 816.5 569.2 790.4 569.2L790.4 569.2z"/>
</svg>